<?xml version="1.0" encoding="UTF-8"?>
<svg id="Capa_2" data-name="Capa 2" xmlns="http://www.w3.org/2000/svg" viewBox="0 0 410.08 886.64">
  <defs>
    <style>
      .cls-1 {
        fill: #c36;
        stroke-width: .44px;
      }

      .cls-1, .cls-2, .cls-3, .cls-4, .cls-5, .cls-6, .cls-7, .cls-8, .cls-9, .cls-10, .cls-11, .cls-12, .cls-13, .cls-14, .cls-15, .cls-16, .cls-17, .cls-18, .cls-19, .cls-20, .cls-21, .cls-22, .cls-23, .cls-24, .cls-25, .cls-26, .cls-27, .cls-28, .cls-29, .cls-30, .cls-31, .cls-32, .cls-33, .cls-34, .cls-35, .cls-36, .cls-37, .cls-38, .cls-39, .cls-40, .cls-41 {
        stroke: #000;
      }

      .cls-1, .cls-42, .cls-6, .cls-43, .cls-44, .cls-45, .cls-46, .cls-47, .cls-20, .cls-31, .cls-48 {
        stroke-linecap: round;
      }

      .cls-1, .cls-42, .cls-43, .cls-44, .cls-45, .cls-46, .cls-47, .cls-20, .cls-31, .cls-48 {
        stroke-linejoin: round;
      }

      .cls-2, .cls-3, .cls-49, .cls-4, .cls-5, .cls-6, .cls-50, .cls-7, .cls-51, .cls-52, .cls-53, .cls-8, .cls-54, .cls-55, .cls-9, .cls-10, .cls-11, .cls-12, .cls-13, .cls-14, .cls-56, .cls-15, .cls-57, .cls-58, .cls-16, .cls-59, .cls-17, .cls-60, .cls-18, .cls-61, .cls-19, .cls-21, .cls-22, .cls-23, .cls-62, .cls-24, .cls-25, .cls-26, .cls-27, .cls-28, .cls-63, .cls-29, .cls-30, .cls-64, .cls-65, .cls-32, .cls-33, .cls-34, .cls-35, .cls-66, .cls-36, .cls-67, .cls-37, .cls-68, .cls-69, .cls-38, .cls-39, .cls-40, .cls-41 {
        stroke-miterlimit: 10;
      }

      .cls-2, .cls-5, .cls-7, .cls-18, .cls-27, .cls-70 {
        fill: #347dc0;
      }

      .cls-2, .cls-21, .cls-35 {
        stroke-width: .91px;
      }

      .cls-71 {
        fill: #fa7445;
      }

      .cls-3 {
        stroke-width: .58px;
      }

      .cls-3, .cls-72 {
        fill: #f18cb8;
      }

      .cls-49 {
        stroke-width: .81px;
      }

      .cls-49, .cls-50, .cls-51, .cls-52, .cls-53, .cls-54, .cls-55, .cls-56, .cls-57, .cls-58, .cls-59, .cls-60, .cls-61, .cls-62, .cls-63, .cls-64, .cls-65, .cls-66, .cls-67, .cls-68, .cls-69 {
        stroke: #1d1d1b;
      }

      .cls-49, .cls-64 {
        fill: #09c;
      }

      .cls-4, .cls-51, .cls-8, .cls-54, .cls-16, .cls-60, .cls-24, .cls-25, .cls-26, .cls-29, .cls-32, .cls-36 {
        fill: #f2a84d;
      }

      .cls-4, .cls-63 {
        stroke-width: .46px;
      }

      .cls-5 {
        stroke-width: .34px;
      }

      .cls-42 {
        fill: #ff5a5a;
      }

      .cls-42, .cls-44, .cls-47, .cls-48 {
        stroke: #301500;
        stroke-width: .31px;
      }

      .cls-6, .cls-45, .cls-73 {
        fill: none;
      }

      .cls-6, .cls-19 {
        stroke-width: .39px;
      }

      .cls-50 {
        stroke-width: .8px;
      }

      .cls-50, .cls-52, .cls-53, .cls-55, .cls-69 {
        fill: #f9c;
      }

      .cls-7 {
        stroke-width: .81px;
      }

      .cls-51 {
        stroke-width: .26px;
      }

      .cls-43 {
        fill: #263238;
        stroke: #263238;
        stroke-width: .14px;
      }

      .cls-52 {
        stroke-width: .81px;
      }

      .cls-53 {
        stroke-width: .81px;
      }

      .cls-74, .cls-47, .cls-31, .cls-33, .cls-34, .cls-37, .cls-41 {
        fill: #fff;
      }

      .cls-8, .cls-9, .cls-14, .cls-61, .cls-22, .cls-28, .cls-34 {
        stroke-width: .69px;
      }

      .cls-44 {
        fill: #ffb640;
      }

      .cls-54, .cls-36 {
        stroke-width: .8px;
      }

      .cls-55 {
        stroke-width: .99px;
      }

      .cls-9, .cls-23, .cls-75 {
        fill: #0070b7;
      }

      .cls-10, .cls-76 {
        fill: #2db25f;
      }

      .cls-10, .cls-41 {
        stroke-width: .64px;
      }

      .cls-11, .cls-61 {
        fill: #ea5b2a;
      }

      .cls-11, .cls-32, .cls-33, .cls-39 {
        stroke-width: .25px;
      }

      .cls-12 {
        stroke-width: .43px;
      }

      .cls-12, .cls-22, .cls-38 {
        fill: #f295ca;
      }

      .cls-45, .cls-46 {
        stroke: #263238;
        stroke-width: .42px;
      }

      .cls-13 {
        stroke-width: .82px;
      }

      .cls-13, .cls-77 {
        fill: #fae3ce;
      }

      .cls-14, .cls-15, .cls-78 {
        fill: #009e7c;
      }

      .cls-56 {
        stroke-width: .81px;
      }

      .cls-56, .cls-79, .cls-67, .cls-68 {
        fill: #f5e3d5;
      }

      .cls-15 {
        stroke-width: .82px;
      }

      .cls-57 {
        stroke-width: .85px;
      }

      .cls-57, .cls-58, .cls-62, .cls-63 {
        fill: #f63;
      }

      .cls-58 {
        stroke-width: .96px;
      }

      .cls-16 {
        stroke-width: .81px;
      }

      .cls-80, .cls-21, .cls-30 {
        fill: #db1c53;
      }

      .cls-46 {
        fill: #80deea;
      }

      .cls-59 {
        fill: #396;
        stroke-width: .8px;
      }

      .cls-17 {
        stroke-width: .77px;
      }

      .cls-17, .cls-65, .cls-35 {
        fill: #009fdc;
      }

      .cls-81 {
        fill: #f96;
      }

      .cls-18 {
        stroke-width: .4px;
      }

      .cls-19 {
        fill: #fc3;
      }

      .cls-20 {
        fill: #90a4ae;
      }

      .cls-20, .cls-31 {
        stroke-width: 1.28px;
      }

      .cls-82 {
        fill: #fb6e47;
      }

      .cls-23 {
        stroke-width: .99px;
      }

      .cls-62 {
        stroke-width: .98px;
      }

      .cls-24 {
        stroke-width: .81px;
      }

      .cls-25 {
        stroke-width: .43px;
      }

      .cls-26 {
        stroke-width: .92px;
      }

      .cls-27 {
        stroke-width: .91px;
      }

      .cls-28 {
        fill: #8303ea;
      }

      .cls-29 {
        stroke-width: .39px;
      }

      .cls-30 {
        stroke-width: .81px;
      }

      .cls-83 {
        fill: #151721;
      }

      .cls-48 {
        fill: #301500;
      }

      .cls-64 {
        stroke-width: .98px;
      }

      .cls-65 {
        stroke-width: .6px;
      }

      .cls-66 {
        fill: #fdf7ec;
        stroke-width: .4px;
      }

      .cls-84 {
        fill: #1f1e21;
      }

      .cls-85 {
        fill: #c04237;
      }

      .cls-67 {
        stroke-width: .2px;
      }

      .cls-37 {
        stroke-width: .81px;
      }

      .cls-68 {
        stroke-width: .92px;
      }

      .cls-69 {
        stroke-width: .4px;
      }

      .cls-38 {
        stroke-width: .73px;
      }

      .cls-39 {
        fill: #c63c38;
      }

      .cls-40 {
        stroke-width: .41px;
      }
    </style>
  </defs>
  <g id="Capa_1-2" data-name="Capa 1">
    <g>
      <g id="I">
        <rect class="cls-58" x=".5" y="63.59" width="55.72" height="62.74"/>
        <rect class="cls-27" x=".5" y=".53" width="55.72" height="62.74"/>
        <rect class="cls-55" x=".5" y="126.65" width="55.72" height="66.52"/>
        <path class="cls-25" d="M28.27,12.81c-10.65,0-19.28,8.63-19.28,19.28s8.63,19.28,19.28,19.28,19.28-8.63,19.28-19.28-8.63-19.28-19.28-19.28ZM36.11,21.51c2.51-1.45,5.72-.59,7.17,1.92,1.45,2.51.59,5.72-1.92,7.17-2.51,1.45-5.72.59-7.17-1.92-1.45-2.51-.59-5.72,1.92-7.17ZM28.27,14.76c2.9,0,5.25,2.35,5.25,5.25s-2.35,5.25-5.25,5.25-5.25-2.35-5.25-5.25,2.35-5.25,5.25-5.25ZM31.42,31.52c-.51.3-1.17.12-1.47-.39-.3-.51-.12-1.17.39-1.47.51-.3,1.17-.12,1.47.39.3.51.12,1.17-.39,1.47ZM31.82,34.13c-.3.51-.96.69-1.47.39-.51-.3-.69-.96-.39-1.47s.96-.69,1.47-.39c.51.3.69.96.39,1.47ZM28.27,34.03c.59,0,1.08.48,1.08,1.08s-.48,1.08-1.08,1.08-1.08-.48-1.08-1.08.48-1.08,1.08-1.08ZM27.34,31.55c.3-.51.96-.69,1.47-.39.51.3.69.96.39,1.47-.3.51-.96.69-1.47.39-.51-.3-.69-.96-.39-1.47ZM28.27,30.15c-.59,0-1.08-.48-1.08-1.08s.48-1.08,1.08-1.08,1.08.48,1.08,1.08-.48,1.08-1.08,1.08ZM26.6,31.12c-.3.51-.96.69-1.47.39-.51-.3-.69-.96-.39-1.47s.96-.69,1.47-.39c.51.3.69.96.39,1.47ZM26.2,34.53c-.51.3-1.17.12-1.47-.39-.3-.51-.12-1.17.39-1.47.51-.3,1.17-.12,1.47.39s.12,1.17-.39,1.47ZM13.27,23.43c1.45-2.51,4.66-3.37,7.17-1.92,2.51,1.45,3.37,4.66,1.92,7.17-1.45,2.51-4.66,3.37-7.17,1.92-2.51-1.45-3.37-4.66-1.92-7.17ZM20.44,42.67c-2.51,1.45-5.72.59-7.17-1.92-1.45-2.51-.59-5.72,1.92-7.17,2.51-1.45,5.72-.59,7.17,1.92,1.45,2.51.59,5.72-1.92,7.17ZM28.27,49.42c-2.9,0-5.25-2.35-5.25-5.25s2.35-5.25,5.25-5.25,5.25,2.35,5.25,5.25-2.35,5.25-5.25,5.25ZM43.28,40.75c-1.45,2.51-4.66,3.37-7.17,1.92-2.51-1.45-3.37-4.66-1.92-7.17,1.45-2.51,4.66-3.37,7.17-1.92,2.51,1.45,3.37,4.66,1.92,7.17Z"/>
        <g>
          <path class="cls-12" d="M47.16,92.45c-2.94-2.27-7.33-1.92-10.84-1.92-2.2,0-4.4,0-6.59,0-3.81,0-7.62,0-11.43,0-2.58,0-5.31.04-7.65,1.27-2.93,1.54-4.71,4.31-4.77,7.66-.05,3.03,1.11,6.42,4.19,7.56,3.02,1.12,6.32.88,9.49.96,6.23.15,12.48.27,18.71.09,2.42.03,5.03.05,7.36-.7,1.86-.6,3.18-2.27,3.8-4.08,1.17-3.39.81-8.47-2.27-10.85ZM20.7,99.4c-.2,1.56-2.94,1.7-4.38,1.67.16,1.33.54,4.26-1.02,4.65-2,.5-1.79-3.06-1.77-4.23,0-.58-.21-.4-.79-.44-.56-.04-1.13-.07-1.68-.19-.72-.16-1.67-.38-1.79-1.24-.26-1.76,2.77-1.86,4.19-1.83-.11-1.34.04-4.11,1.57-4.32,1.61-.22,1.5,3.26,1.45,4.2-.01.23-.12.12.23.12.23,0,.45,0,.68.02.58.04,1.17.09,1.72.25.57.16,1.7.51,1.59,1.32ZM26.08,97.17c.91-.12,3.32-.21,4.06-.07.46.09.31.69-.06.72-.91.08-2.98.08-4,.08-.41,0-.51-.66.01-.73ZM30.07,101.07c-.91.08-2.98.08-4,.08-.41,0-.51-.66.01-.73.91-.12,3.32-.21,4.06-.07.46.09.31.69-.06.72ZM39.92,104.62c-1.14.32-2.79-.44-2.68-1.81.09-1.23.74-2.17,1.99-2.37.05,0,.09-.01.12-.01,0,0,.01,0,.02,0,1.22-.03,2.27.61,2.33,1.95.05,1.19-.68,1.93-1.77,2.24ZM43.84,98.75c-1.14.32-2.79-.44-2.68-1.81.09-1.23.74-2.17,1.99-2.37.05,0,.09-.01.12-.01,0,0,.01,0,.02,0,1.22-.03,2.27.61,2.33,1.95.05,1.19-.68,1.93-1.77,2.24Z"/>
          <path class="cls-84" d="M50.65,94.4c-1.22-2.61-3.53-3.79-6.26-4.29-3.68-.69-7.65-.38-11.4-.38-.97,0-1.94,0-2.91,0,.02-.03.03-.07.03-.11-.03-.64,0-1.28,0-1.92,0-.1-.2-.12-.25-.12-.28,0-.68-.16-1.01-.17-.15,0-.3,0-.44.02-.44-1.67-.28-3.49,1.19-4.61.96-.73,2-1.35,2.95-2.09,1.74-1.35,2.8-3.12,2.16-5.35-.11-.39-.95-.17-.84.22.85,2.98-1.63,4.63-3.8,6.1-2.16,1.47-3.19,3.25-2.53,5.88-.13.03-.26.07-.38.1-.33.09-.81.2-1.06.45-.3.3-.15,1.1-.1,1.58-1.89,0-3.78,0-5.67,0-4.02,0-8.05.09-11.59,2.24-4.3,2.61-6.08,8.83-3.21,13.18,2.99,4.53,9.86,3.58,14.56,3.68,5.82.13,11.67.23,17.49.06,3.07.03,6.34-.04,9.24-1.18,2.29-.9,3.78-3.01,4.49-5.3.8-2.6.49-5.57-.65-8.01ZM49.43,103.3c-.63,1.81-1.94,3.48-3.8,4.08-2.33.75-4.94.72-7.36.7-6.23.17-12.48.06-18.71-.09-3.17-.08-6.46.16-9.49-.96-3.07-1.14-4.24-4.53-4.19-7.56.06-3.35,1.84-6.12,4.77-7.66,2.34-1.23,5.07-1.27,7.65-1.27,3.81,0,7.62,0,11.43,0,2.2,0,4.4,0,6.59,0,3.51,0,7.9-.35,10.84,1.92,3.08,2.38,3.44,7.46,2.27,10.85ZM26.83,88.89s-.04-.63-.05-.62c.14-.14.63-.21.85-.27.42-.11.87-.16,1.31-.1.12.02.23.06.34.09,0,.13,0,.26,0,.39-.21,0-.43.02-.64.02-.2,0-.42.05-.59.16-.13.08-.12.18.05.18.39,0,.77-.03,1.16-.04,0,0,.02,0,.02,0,0,.11,0,.22,0,.33-.21.02-.43.04-.64,0-.19-.03-.44.05-.59.16-.14.1-.1.2.06.22.39.06.78,0,1.18-.03,0,.11,0,.23,0,.34l-2.45.03s.03-.07.03-.11c-.02-.25-.03-.51-.03-.76Z"/>
          <path class="cls-75" d="M19.78,98.86c-1-.73-2.54-.79-3.73-.73-.08,0-.18-.02-.18-.12.08-1.06.17-3.16-.61-4-.78-.84-1.26,3.37-1.19,3.88.02.17-.33.28-.5.23-.64-.03-1.3-.06-1.93.04-.72.11-2.69,1.04-1.46,1.91,1.05.74,2.55.61,3.77.71.04,0,.18,0,.18.08-.02,1.16-.3,3.48.62,4.38.98.94,1.08-2.31,1.08-2.53-.02-.59-.06-1.17-.13-1.75-.02-.17.29-.24.41-.24.72.03,1.45.01,2.15-.12.65-.12,2.76-.85,1.52-1.75ZM11.34,99.56s0,.05-.03.04c-.17-.05-.34-.12-.51-.15-.05,0-.11-.2-.05-.22.16-.05.33-.11.49-.17.05-.02.08.13.08.15,0,.08,0,.16.02.25.01.03.02.06.01.09h0ZM15.09,104.21c0,.05-.2.11-.22.05-.05-.16-.11-.33-.17-.49-.02-.05.13-.08.15-.08.08,0,.16,0,.25-.02.03-.01.06-.02.09-.01h0s.05.01.04.04c-.05.17-.12.34-.15.51ZM15.18,95.76c-.08,0-.16,0-.25.02-.03.01-.06.02-.09.01h0s-.05-.01-.04-.04c.05-.17.12-.34.15-.51,0-.05.2-.11.22-.05.05.16.11.33.17.49.02.05-.13.08-.15.08ZM19.12,99.46c-.16.05-.33.11-.49.17-.05.02-.08-.13-.08-.15,0-.08,0-.16-.02-.25-.01-.03-.02-.06-.01-.09h0s0-.05.03-.05c.17.05.34.12.51.15.05,0,.11.2.05.22Z"/>
          <path class="cls-84" d="M19.1,98.08c-.56-.16-1.15-.21-1.72-.25-.23-.02-.45-.02-.68-.02-.35,0-.24.11-.23-.12.04-.94.16-4.42-1.45-4.2-1.53.2-1.69,2.98-1.57,4.32-1.42-.04-4.45.07-4.19,1.83.13.85,1.07,1.08,1.79,1.24.55.12,1.12.15,1.68.19.58.04.8-.14.79.44-.02,1.16-.23,4.73,1.77,4.23,1.55-.39,1.17-3.31,1.02-4.65,1.45.03,4.18-.11,4.38-1.67.1-.81-1.02-1.16-1.59-1.32ZM18.26,100.61c-.71.13-1.44.15-2.15.12-.12,0-.43.07-.41.24.06.58.11,1.17.13,1.75,0,.22-.1,3.47-1.08,2.53-.93-.89-.64-3.21-.62-4.38,0-.07-.14-.08-.18-.08-1.22-.11-2.72.03-3.77-.71-1.23-.86.74-1.8,1.46-1.91.63-.1,1.29-.07,1.93-.04.17.05.52-.07.5-.23-.07-.51.41-4.72,1.19-3.88.78.84.7,2.94.61,4,0,.1.1.12.18.12,1.19-.06,2.73,0,3.73.73,1.24.91-.87,1.64-1.52,1.75Z"/>
          <path class="cls-84" d="M14.95,95.24c-.03.18-.11.34-.15.51,0,.03.02.03.04.03h0s.06,0,.09,0c.08,0,.16-.01.25-.02.03,0,.17-.03.15-.08-.06-.16-.11-.32-.17-.49-.02-.06-.21,0-.22.05Z"/>
          <path class="cls-84" d="M19.08,99.24c-.18-.03-.34-.11-.51-.15-.03,0-.03.02-.03.04h0s0,.07.01.1c0,.08.01.16.02.25,0,.03.03.17.08.15.16-.06.32-.11.49-.17.06-.02,0-.21-.05-.22Z"/>
          <path class="cls-84" d="M11.31,99.22s-.03-.17-.08-.15c-.16.06-.32.11-.49.17-.06.02,0,.21.05.22.18.03.34.11.51.15.03,0,.03-.02.03-.04h0s0-.07-.01-.1c0-.08-.01-.16-.02-.25Z"/>
          <path class="cls-84" d="M15.21,103.66h0s-.06,0-.09,0c-.08,0-.16.01-.25.02-.03,0-.17.03-.15.08.06.16.11.32.17.49.02.06.21,0,.22-.05.03-.18.11-.34.15-.51,0-.03-.02-.03-.04-.03Z"/>
          <path class="cls-76" d="M44.82,95.88c-.38-.81-.97-1.09-1.84-1.09-.96.21-1.49,1.73-1.13,2.57.49,1.13,2.31,1.86,2.98.39.27-.6.27-1.27-.01-1.87Z"/>
          <path class="cls-84" d="M43.29,94.56s-.01,0-.02,0c-.03,0-.07,0-.12.01-1.25.2-1.89,1.14-1.99,2.37-.1,1.37,1.54,2.12,2.68,1.81,1.09-.3,1.83-1.05,1.77-2.24-.06-1.34-1.12-1.98-2.33-1.95ZM41.84,97.36c-.36-.83.18-2.36,1.13-2.57.86,0,1.45.28,1.84,1.09.28.6.28,1.26.01,1.87-.67,1.47-2.49.74-2.98-.39Z"/>
          <path class="cls-76" d="M40.89,101.76c-.38-.81-.97-1.09-1.84-1.09-.96.21-1.49,1.73-1.13,2.57.49,1.13,2.31,1.86,2.98.39.27-.6.27-1.27-.01-1.87Z"/>
          <path class="cls-84" d="M39.36,100.44s0,0-.02,0c-.03,0-.07,0-.12.01-1.25.2-1.89,1.14-1.99,2.37-.1,1.37,1.54,2.12,2.68,1.81,1.09-.3,1.83-1.05,1.77-2.24-.06-1.34-1.12-1.98-2.33-1.95ZM37.92,103.24c-.36-.83.18-2.36,1.13-2.57.86,0,1.45.28,1.84,1.09.28.6.28,1.26.01,1.87-.67,1.47-2.5.74-2.98-.39Z"/>
          <path class="cls-84" d="M30.13,100.35c-.73-.14-3.14-.05-4.06.07-.53.07-.42.73-.01.73,1.03,0,3.09,0,4-.08.37-.03.52-.63.06-.72Z"/>
          <path class="cls-84" d="M26.07,97.9c1.03,0,3.09,0,4-.08.37-.03.52-.63.06-.72-.73-.14-3.14-.05-4.06.07-.53.07-.42.73-.01.73Z"/>
          <path class="cls-76" d="M26.83,89.75l2.45-.03c0-.11,0-.23,0-.34-.39.02-.78.09-1.18.03-.16-.03-.2-.12-.06-.22.15-.11.4-.19.59-.16.21.04.43.02.64,0,0-.11,0-.22,0-.33,0,0-.02,0-.02,0-.39,0-.77.03-1.16.04-.16,0-.18-.1-.05-.18.17-.11.39-.16.59-.16.21,0,.43-.01.64-.02,0-.13,0-.26,0-.39-.11-.03-.22-.08-.34-.09-.44-.06-.89,0-1.31.1-.23.06-.71.13-.85.27.01-.01.05.58.05.62,0,.25.02.51.03.76,0,.04,0,.07-.03.11Z"/>
        </g>
        <g>
          <path class="cls-10" d="M42.66,142.42H13.47c-2.39,0-4.33,1.94-4.33,4.33v15.61c0,2.39,1.94,4.33,4.33,4.33h.91c-.91,2.01-2.65,5.08-5.46,6.9,0,0,5.92-.41,12.09-6.9h21.65c2.39,0,4.33-1.94,4.33-4.33v-15.61c0-2.39-1.94-4.33-4.33-4.33Z"/>
          <g>
            <path class="cls-41" d="M23.04,154c0-1.23-1-2.23-2.23-2.23s-2.23,1-2.23,2.23,1,2.23,2.23,2.23,2.23-1,2.23-2.23Z"/>
            <circle class="cls-41" cx="28.38" cy="154" r="2.23"/>
            <path class="cls-41" d="M38.18,154c0-1.23-1-2.23-2.23-2.23s-2.23,1-2.23,2.23,1,2.23,2.23,2.23,2.23-1,2.23-2.23Z"/>
          </g>
        </g>
        <rect class="cls-2" x="112.53" y=".45" width="55.8" height="62.84"/>
        <g>
          <rect class="cls-34" x="116.37" y="13.67" width="49.54" height="36.19"/>
          <polygon points="116.19 15.47 114.93 15.47 114.93 51.48 164.74 51.48 164.74 49.86 116.64 49.86 116.19 15.47"/>
          <rect class="cls-8" x="120.55" y="17.85" width="12.63" height="12.63"/>
          <rect class="cls-61" x="135.05" y="17.85" width="12.63" height="12.63"/>
          <rect class="cls-9" x="149.31" y="17.85" width="12.63" height="12.63"/>
          <rect class="cls-14" x="120.55" y="32.83" width="12.63" height="12.63"/>
          <rect class="cls-28" x="134.82" y="32.83" width="12.63" height="12.63"/>
          <rect class="cls-22" x="149.31" y="32.83" width="12.63" height="12.63"/>
        </g>
        <g>
          <rect class="cls-21" x="56.21" y=".49" width="55.8" height="62.84"/>
          <g>
            <path class="cls-35" d="M84.97,51.26h0c-7.71,0-13.96-6.25-13.96-13.96v-15.71c0-4.82,3.91-8.73,8.73-8.73h10.47c4.82,0,8.73,3.91,8.73,8.73v15.71c0,7.71-6.25,13.96-13.96,13.96Z"/>
            <line class="cls-31" x1="71.01" y1="30.31" x2="98.93" y2="30.31"/>
            <line class="cls-20" x1="84.97" y1="12.86" x2="84.97" y2="30.31"/>
            <path d="M84.97,25.95h0c-.96,0-1.75-.78-1.75-1.75v-5.24c0-.96.78-1.75,1.75-1.75h0c.96,0,1.75.78,1.75,1.75v5.24c0,.96-.78,1.75-1.75,1.75Z"/>
          </g>
        </g>
        <g>
          <rect class="cls-60" x="56.23" y="63.67" width="55.55" height="62.55"/>
          <g>
            <path class="cls-3" d="M84.05,95.17c-10.31,0-18.66,8.35-18.66,18.66h37.32c0-10.31-8.35-18.66-18.66-18.66Z"/>
            <circle class="cls-3" cx="84.05" cy="84.16" r="8.1" transform="translate(-25.87 129.6) rotate(-67.5)"/>
          </g>
        </g>
      </g>
      <g id="I-2" data-name="I">
        <g id="I-3" data-name="I">
          <g>
            <rect class="cls-62" x="239.33" y="1.6" width="54.49" height="64.39"/>
            <g>
              <polygon points="254.68 14.23 251.32 16.25 251.9 44.79 257.95 41.6 264.8 53.69 279.1 45.68 272.79 34.38 278.57 30.8 254.68 14.23"/>
              <polygon class="cls-74" points="255.4 16.45 255.48 41.98 260.88 39.13 267.91 51.05 277.7 45.49 271.03 34.01 276.55 30.51 255.4 16.45"/>
            </g>
          </g>
          <g>
            <rect class="cls-26" x="294.64" y="66.41" width="56.85" height="64.02"/>
            <g>
              <path class="cls-73" d="M322.35,88.72s0,0,0,0h0Z"/>
              <path class="cls-73" d="M342.9,85.31s-.04,0,0,0h0Z"/>
              <path class="cls-80" d="M344.91,96.75c-.06-2.52-.06-5.03-.03-7.55.01-1.12.02-2.24.04-3.35,0-.26-2.03-.15-2.49-.15-.05,0-.23,0-.24-.08-.11-1.01-.22-2.03-.31-3.04-.73.15-1.44.16-2.21.06-.03,0-.15-.02-.15-.08.05-1.02.06-2.04.05-3.06,0,.04-.2,0-.55-.02-.41-.02-.82-.05-1.23-.07-2-.08-4.15-.2-6.15.05-.02,1.19-.05,2.39-.16,3.57-.02.18-.46.25-.58.26-.84.07-1.68,0-2.52,0-.11.79,0,1.56-.01,2.36,0,.21-.43.3-.59.3h-2.31c.15.96.19,1.94.22,2.9,0,.2-.48.34-.71.3-1.02,0-2.04-.02-3.05-.04-.04,0-.24,0-.24-.08,0-.83,0-1.66.01-2.5.02-.98-.32-.82-1.23-.81-.53,0-1.06,0-1.59-.03-.04,0-.15-.02-.15-.08-.08-.87-.27-1.74-.31-2.61-.02-.57.32-.43-.37-.44-.9,0-1.79-.02-2.69-.06-.04,0-.15-.02-.15-.08-.08-.84-.04-1.7.02-2.54.01-.2.03-.4.05-.6-.01.15-1.13.07-1.22.07-2,.02-4.01.1-6.01.04-.15,1.03-.16,2.06-.25,3.09-.02.18-.46.25-.58.26-1.03.09-2.07.16-3.11.16-.02.9.03,1.79.14,2.69.03.22-.45.29-.59.3-.72.06-1.43,0-2.14-.03.16,3.19-.24,6.43-.27,9.63,0,.53,0,1.06,0,1.6,0,.13-.03.19-.07.22.03,0,.06,0,.11,0h2.39s.24,0,.24.08c-.01.53-.03,1.05-.04,1.58-.01.54-.18.95.07.96,1.04.06,2.09.11,3.13.17.03,0,.15.02.15.08.02.94.05,1.88.07,2.82,0,.09-.02.15-.04.17.27,0,.54,0,.81,0,.81,0,1.61.02,2.42.04.03,0,.15.02.15.08.02.87.04,1.75.06,2.62.01.51,2.25.24,2.81.22.05,0,.24,0,.24.08.01.67.03,1.33.04,2,.01.61.15.47.8.52.63.05,1.27.08,1.9.12.03,0,.15.02.15.08,0,.62.03,1.24.05,1.86.02.38,0,.83.03.83.82.03,1.63.06,2.45.09.04,0,.15.02.15.08.01.4.15,2.65-.02,2.62.89.16,1.77.32,2.66.48.05,0,.13.02.15.08.14.44.39,3.1.08,3.09,1.08.03,2.2.09,3.28-.02.06-1.04.09-2.09,0-3.13-.02-.21.45-.3.59-.3.64-.02,1.26-.16,1.89-.27.06-.86.05-1.72-.02-2.57-.02-.25.52-.31.68-.3.73.03,1.46-.08,2.19-.19-.02-.77-.04-1.54.08-2.3.03-.18.45-.25.58-.26.8-.06,1.6-.12,2.4-.18.01-.93.03-1.86.04-2.79,0-.22.43-.3.59-.3.77-.02,1.54-.05,2.31-.06-.04-.92-.08-1.85-.12-2.77,0-.22.44-.29.59-.3.7-.04,1.4-.09,2.1-.14.03-.8.11-1.61.19-2.4.02-.21.53-.27.67-.25.71.05,1.6.22,2.34.11.06-.82.12-1.65.18-2.47.02-.22.42-.29.59-.3.54-.03,1.08-.07,1.63-.1ZM341.67,93.67c0,.28-.82.43-.83.22-.05-1.59-.03-3.18,0-4.78,0-.01,0-.02.01-.03-.02,0-.03,0-.05,0-.31,0-.62-.01-.94-.02-.5-.01-.99-.02-1.49-.03-.05,0-.24,0-.24-.09-.03-.78-.02-1.55,0-2.33.02-1.19-1.01-.91-1.94-.89-.55.02.08-.39.34-.4.74-.02,1.46.04,2.2.06.05,0,.24,0,.24.09,0,.93-.07,1.86-.03,2.79.02.43-.39.36.06.37.14,0,.28,0,.42,0,.67.01,1.34.03,2,.04.05,0,.25,0,.24.09-.03,1.63-.05,3.26,0,4.89Z"/>
              <path class="cls-84" d="M345.74,85.46c0-.06-.12-.08-.15-.08-.52-.04-1.04-.05-1.56-.06-.29,0-.59,0-.88,0-.06,0-.11,0-.15,0-.11-1.04-.23-2.07-.32-3.11-.01-.15-.39-.06-.46-.05-2.03.57-1.87-.05-1.84-1.45,0-.49,0-.99,0-1.48,0-.06-.12-.08-.15-.08-2.91-.21-6.07-.45-8.96.02-.14.02-.48.1-.48.29-.01,1.16-.04,2.32-.14,3.48-.83.02-1.66-.05-2.5-.03-.14,0-.55.08-.58.26-.16.81-.07,1.6-.06,2.41h-2.36c-.13,0-.62.1-.59.3.17.95.22,1.93.25,2.89-.45,0-.9,0-1.36-.02-.29,0-.57,0-.86-.01-.05,0-.09,0-.12,0,0-1.11,0-2.23.05-3.34,0-.09-.2-.08-.24-.08-.46,0-2.74.31-2.8-.46-.07-.87-.25-1.71-.28-2.58,0-.09-.19-.08-.24-.08-.94,0-1.88-.01-2.82-.05-.39-.02-.1-2.67-.07-3.03.01-.13-.14-.12-.24-.13-2.64-.05-5.29.12-7.93.01-.15,0-.64.04-.67.25-.19,1.05-.2,2.1-.28,3.16-1.01.08-2.02.14-3.03.11-.18,0-.67.05-.68.3-.04.91,0,1.81.1,2.72-.68,0-1.35-.06-2.03-.09-.16,0-.69.05-.68.3.16,2.48-.17,4.93-.22,7.4-.03,1.49-.04,2.97-.04,4.46,0,.09.2.08.24.08h2.64c-.39,0-.23.82-.24,1.22-.01.43-.02.87-.03,1.3,0,.06.12.08.15.08,1.12.06,2.23.12,3.35.18-.21-.01-.05,2.53-.04,3,0,.09.2.08.24.08.45,0,.91,0,1.36.01.43,0,1.72-.2,1.73.22.02.87.04,1.75.06,2.62,0,.06.12.07.15.08.52.06,1.05.07,1.57.07.32,0,.64,0,.95-.01.13,0,.25,0,.38-.01.02.8.03,1.6.05,2.4,0,.06.12.07.15.08.63.08,1.26.13,1.9.16.74.04.79.17.8.85.02.63.05,1.26.08,1.89,0,.06.12.08.15.08.43.02.86.03,1.3.05.37.01,1.15.09,1.15,0,.03.89.06,1.77.09,2.66,0,.06.12.07.15.08.89.16,1.77.32,2.66.48.12.02.09,2.75.08,3.1,0,.06.12.08.15.08,1.38.04,2.8.11,4.17-.1.15-.02.47-.1.48-.29.06-1.03.1-2.07.03-3.1.66-.08,1.29-.23,1.97-.32.1-.01.47-.1.48-.25.07-.85.07-1.69.02-2.54.79-.03,1.59-.16,2.37-.28.14-.02.49-.1.48-.29-.02-.73-.04-1.48.04-2.21.81-.06,1.62-.12,2.42-.17.16-.01.58-.08.59-.3.01-.92.03-1.84.04-2.77.77-.02,1.55-.04,2.32-.05.15,0,.6-.09.59-.3-.04-.93-.08-1.87-.12-2.8.69-.04,1.38-.09,2.08-.15.16-.01.58-.08.59-.3.02-.75.09-1.51.16-2.26.89.08,1.85.16,2.66-.09.13-.04.36-.1.37-.27.06-.8.12-1.6.18-2.4.55-.03,1.1-.07,1.65-.1.15,0,.59-.08.59-.3-.1-3.78-.05-7.56,0-11.33ZM342.69,97.15c-.06.82-.12,1.65-.18,2.47-.74.11-1.63-.06-2.34-.11-.14-.01-.65.05-.67.25-.08.8-.16,1.6-.19,2.4-.7.05-1.4.1-2.1.14-.15,0-.6.08-.59.3.04.92.08,1.85.12,2.77-.77.01-1.54.03-2.31.06-.16,0-.58.08-.59.3-.01.93-.03,1.86-.04,2.79-.8.05-1.6.11-2.4.18-.13.01-.56.07-.58.26-.11.76-.1,1.53-.08,2.3-.72.11-1.46.22-2.19.19-.16,0-.69.05-.68.3.06.86.08,1.72.02,2.57-.63.11-1.25.25-1.89.27-.14,0-.61.09-.59.3.09,1.04.06,2.09,0,3.13-1.08.11-2.2.05-3.28.02.31,0,.06-2.66-.08-3.09-.02-.06-.1-.07-.15-.08-.89-.16-1.77-.32-2.66-.48.17.03.03-2.22.02-2.62,0-.06-.12-.08-.15-.08-.82-.03-1.63-.06-2.45-.09-.03,0-.02-.46-.03-.83-.03-.62-.05-1.24-.05-1.86,0-.06-.12-.08-.15-.08-.63-.04-1.27-.08-1.9-.12-.64-.05-.79.09-.8-.52-.01-.67-.03-1.33-.04-2,0-.09-.2-.08-.24-.08-.57.02-2.8.3-2.81-.22-.02-.87-.04-1.75-.06-2.62,0-.06-.12-.08-.15-.08-.81-.02-1.61-.03-2.42-.04-.27,0-.54,0-.81,0,.03-.03.05-.08.04-.17-.02-.94-.05-1.88-.07-2.82,0-.06-.12-.08-.15-.08-1.04-.06-2.09-.11-3.13-.17-.25-.01-.09-.42-.07-.96.01-.53.03-1.05.04-1.58,0-.09-.2-.08-.24-.08h-2.39s-.08,0-.11,0c.03-.03.07-.1.07-.22,0-.53,0-1.06,0-1.6.02-3.2.43-6.43.27-9.63.71.04,1.42.09,2.14.03.14-.01.61-.09.59-.3-.11-.9-.16-1.79-.14-2.69,1.04,0,2.07-.07,3.11-.16.12-.01.57-.07.58-.26.09-1.03.09-2.07.25-3.09,2,.06,4.01-.02,6.01-.04.09,0,1.21.08,1.22-.07-.02.2-.03.4-.05.6-.06.84-.1,1.7-.02,2.54,0,.06.11.08.15.08.9.05,1.79.06,2.69.06.7,0,.35-.14.37.44.03.87.23,1.74.31,2.61,0,.06.11.08.15.08.53.02,1.06.03,1.59.03.91,0,1.25-.16,1.23.81-.02.83-.02,1.66-.01,2.5,0,.09.2.08.24.08,1.02.02,2.03.04,3.05.04.23.03.72-.1.71-.3-.03-.97-.07-1.94-.22-2.9h2.31c.16,0,.58-.09.59-.3.01-.8-.09-1.57.01-2.36.84,0,1.68.07,2.52,0,.12-.01.57-.07.58-.26.1-1.19.14-2.38.16-3.57,2-.25,4.15-.13,6.15-.05.41.02.82.04,1.23.07.36.02.55.06.55.02,0,1.02,0,2.04-.05,3.06,0,.06.12.07.15.08.77.11,1.48.09,2.21-.06.09,1.02.2,2.03.31,3.04,0,.09.19.08.24.08.47,0,2.5-.11,2.49.15-.01,1.12-.03,2.24-.04,3.35-.02,2.52-.03,5.03.03,7.55-.54.03-1.08.07-1.63.1-.17.01-.57.08-.59.3ZM342.9,85.31s-.03,0,0,0h0ZM322.35,88.72s0,0,0,0h0Z"/>
              <path class="cls-74" d="M341.43,88.68c-.67-.01-1.34-.03-2-.04-.14,0-.28,0-.42,0-.45,0-.04.06-.06-.37-.04-.93.02-1.86.03-2.79,0-.09-.2-.09-.24-.09-.74-.02-1.46-.08-2.2-.06-.26,0-.9.42-.34.4.94-.03,1.97-.3,1.94.89-.02.78-.03,1.55,0,2.33,0,.09.19.09.24.09.5.01.99.02,1.49.03.31,0,.62.01.94.02.02,0,.03,0,.05,0,0,0-.01.02-.01.03-.03,1.59-.05,3.18,0,4.78,0,.21.84.06.83-.22-.05-1.63-.03-3.26,0-4.89,0-.09-.2-.09-.24-.09Z"/>
            </g>
          </g>
          <g>
            <rect class="cls-15" x="352.45" y="1.52" width="57.03" height="64.54"/>
            <g>
              <path class="cls-13" d="M388.66,53.59l-15.37-.34c-1.02-.02-1.91-.96-1.99-2.1l-2.24-34.64c-.18-1.65,1.49-2.23,2.51-2.21l14.58.52c1.02.02,1.91.96,1.99,2.1l3.25,34.76c.07,1.14-.7,1.97-2.73,1.91Z"/>
              <path class="cls-43" d="M389.75,53.38l-15.37-.34c-1.02-.02-1.91-.96-1.99-2.1l-2.24-34.64c-.07-1.14.7-2.05,1.72-2.02l15.37.34c1.02.02,1.91.96,1.99,2.1l2.24,34.64c.07,1.14-.7,2.05-1.72,2.02Z"/>
              <polygon class="cls-38" points="390.48 49.44 373.13 49.05 371.09 17.52 388.44 17.9 390.48 49.44"/>
              <path class="cls-77" d="M382.07,16.32l-4.79-.11c-.19,0-.35-.18-.36-.38h0c-.01-.21.13-.37.31-.37l4.79.11c.19,0,.35.18.36.38h0c.01.21-.13.37-.31.37Z"/>
              <path class="cls-77" d="M382.51,50.67c-.02-.38-.32-.69-.66-.7-.34,0-.6.29-.57.67.02.38.32.69.66.7.34,0,.6-.29.57-.67Z"/>
            </g>
          </g>
          <g>
            <rect class="cls-64" x="352.44" y="66.39" width="57.03" height="64.22"/>
            <g>
              <polygon class="cls-47" points="383.85 86.71 380.28 78.65 376.7 86.71 383.85 86.71"/>
              <path class="cls-51" d="M376.7,86.72s.65-1.52,3.57-1.52c2.38,0,3.57,1.52,3.57,1.52v23.68s-1.36-1.08-3.57-1.08c-2.1,0-3.57,1.08-3.57,1.08v-23.68Z"/>
              <line class="cls-42" x1="382.27" y1="109.84" x2="382.27" y2="85.76"/>
              <line class="cls-42" x1="380.28" y1="109.31" x2="380.28" y2="85.24"/>
              <line class="cls-42" x1="378.39" y1="109.84" x2="378.39" y2="85.76"/>
              <path class="cls-42" d="M383.85,112.89s.43,4.81-3.57,4.81c-4,0-3.57-4.81-3.57-4.81,0,0,1.31-1.79,3.96-1.79,2.65,0,3.18,1.79,3.18,1.79Z"/>
              <path class="cls-44" d="M383.85,110.4v2.49s-3.57-2.49-7.15,0v-2.49s1.42-1.08,3.57-1.08,3.57,1.08,3.57,1.08Z"/>
              <path class="cls-48" d="M381.54,81.5s-1.28-.8-2.53,0l1.26-2.85,1.26,2.85Z"/>
            </g>
          </g>
          <g>
            <rect class="cls-68" x="352.44" y="130.61" width="57.03" height="63.89"/>
            <g>
              <g>
                <path class="cls-63" d="M389.43,155.18c-.63-.06-1.05,1.07-1.33,1.6-.19.37-1.17,2.47-1.2,2.71-.03.35.46.58.78.48.25-.08,1.13-2.31,1.32-2.74.35-.79.46-1.16.73-1.9.59-1.63,2.11-3.53,4.06-2.93,2.65.81-.53,5.22-1.09,6.58-1.83,4.48-.98,6.57.9,10.71.47,1.03,1.05,2.21,1.6,3.2,1.15,2.07,3.26,4.43,4.16,6.35.65,1.39.5,2.2-1.07,2.58-5.01,1.23-11.12-.93-14.78-4.43-1.15-1.1-2.03-2.7-3.08-3.9,3.41-5.24,4.13-11.93,4.35-18,.44.2.8.14.9-.38.22-1.21-.06-3.28,0-4.65.1-2.03.51-4.05.6-6.08.86-1.38,2.92-.65,3.08.89,0,2.57-.2,5.17-.09,7.74.03.69.28,1.43.16,2.17Z"/>
                <path class="cls-85" d="M386.12,144.37h.15c-.09,2.03-.5,4.05-.6,6.08-.07,1.36.22,3.43,0,4.65-.1.52-.46.58-.9.38.06-1.59-.05-3.21,0-4.8,0-.05,0-.1,0-.15,0-.2,0-.4,0-.6.04-1,.2-4.7.74-5.34.17-.19.36-.23.61-.22Z"/>
                <path class="cls-63" d="M386.12,144.37c-.24-.02-.44.02-.61.22-.54.63-.7,4.33-.74,5.34-.38-1.36-.12-3.88-2.1-3.9.03-.03-.02-.12,0-.15s.21.02.3,0c-.23-.69.51-1.8-.15-2.25.04-.02.14-.37.31-.51,1.06-.9,3.08-.26,2.99,1.26Z"/>
                <path class="cls-85" d="M389.43,155.18c.08,0,.21.12.3.15-.27.74-.38,1.11-.73,1.9-.19.43-1.07,2.66-1.32,2.74-.32.1-.81-.13-.78-.48.02-.24,1-2.33,1.2-2.71.28-.53.7-1.65,1.33-1.6Z"/>
                <path class="cls-85" d="M382.82,143.62c.66.45-.08,1.56.15,2.25-.09.02-.28-.03-.3,0-.21-.06-.43-.43-.6-.45-.01-.44.03-1.27-.15-1.65.19-.06.8-.08.9-.15Z"/>
                <path class="cls-82" d="M384.77,150.68v-.15s0,.1,0,.15Z"/>
              </g>
              <g>
                <path class="cls-4" d="M378.62,143.02c-1.1.15-1.13,2.13-1.2,3.08-.22,3.14-.13,6.32-.31,9.46.46,1.24.96.29,1.06-.61.31-3.03.03-6.38.3-9.45.08-.92.55-1.59.6-2.48.48-.06.68-.16,1.21-.09.44.06,1.45.43,1.65.84.18.38.14,1.21.15,1.65-.22-.02-1.2.4-1.41.61-1.04,1.03-.62,4.72-.68,6.22-.02.64-.53,4.1-.17,4.36.33.24.88-.05.91-.47-.01-1.5.23-3,.31-4.49.06-1.07-.3-4.32.45-4.96.36-.3.63-.11,1.2-.68,1.98.03,1.72,2.54,2.1,3.9,0,.2,0,.4,0,.6v.15c-.05,1.59.06,3.21,0,4.8-.23,6.08-.94,12.77-4.35,18-3.34,5.12-9.34,8.41-15.53,7.96-1.34-.1-3.62-.26-3.33-2,.2-1.25,2.95-4.63,3.78-5.97,1.28-2.08,4.05-7.42,4.4-9.7.16-1.04-.38-3.72-.64-4.84-.34-1.49-1.75-4.43-1.36-5.71.33-1.07,2.11-1.57,2.86-.6l1.27,1.96c.26-1.56.13-3.15.15-4.73,0-.35.16-.68.16-1.04.02-1.85-1.08-5.74,2.02-5.49.46.04.48.23.67.31-.45.53-.56,1.33-.61,2.02-.23,3.18.07,6.7-.15,9.92.06.84.96.67,1.06-.15.45-3.44-.4-7.8.43-11.27.02-.21-.26-.39-.29-.52-.35-1.66,2.69-2.12,3.3-.6ZM371.52,154.74c-.53.17-.35,1.26-.42,1.69-.12.77-.98,4.45-.87,4.8s.57.32.82.11c.29-.24,1.04-4.41,1.09-5.06.03-.36.16-1.42-.22-1.54-.14-.03-.28-.04-.41,0Z"/>
                <path class="cls-71" d="M378.62,143.02c.14-.02.31.02.45,0-.05.88-.52,1.55-.6,2.48-.27,3.06,0,6.42-.3,9.45-.09.9-.59,1.85-1.06.61.18-3.14.09-6.32.31-9.46.07-.95.1-2.93,1.2-3.08Z"/>
                <path class="cls-71" d="M375.32,143.62c.03.12.31.31.29.52-.83,3.47.02,7.83-.43,11.27-.11.82-1.01.99-1.06.15.22-3.22-.08-6.74.15-9.92.05-.69.15-1.49.61-2.02.1.04.32-.03.45,0Z"/>
                <path class="cls-71" d="M382.67,145.87s.03.12,0,.15c-.57.57-.84.38-1.2.68-.75.63-.39,3.88-.45,4.96-.08,1.49-.32,2.99-.31,4.49-.03.41-.57.71-.91.47-.36-.26.14-3.72.17-4.36.06-1.5-.36-5.19.68-6.22.21-.21,1.19-.63,1.41-.61.17.02.39.39.6.45Z"/>
                <path class="cls-71" d="M371.52,154.74c.13-.04.28-.04.41,0,.38.13.25,1.18.22,1.54-.05.65-.8,4.82-1.09,5.06-.25.2-.71.23-.82-.11s.75-4.03.87-4.8c.06-.42-.12-1.52.42-1.69Z"/>
              </g>
            </g>
          </g>
          <g>
            <rect class="cls-23" x="294.83" y="1.63" width="56.81" height="64.43"/>
            <g>
              <g>
                <path class="cls-74" d="M325.02,21.5c-.25.86.31,1.89-.23,2.62-.22.29-.61.52-.62.88,0,.22.14.42.2.64.1.34,0,.69-.16,1.02-.37.06-.73.15-1.09.26-1.31.39-2.5,1.09-3.79,1.52-.86.29-1.82.45-2.71.33-.39-.49-.74-.99-1.06-1.52-.33-.56-.61-1.13-.93-1.69.36-1.9.86-3.94,2.49-5.08.55-.38,1.19-.63,1.75-1,1.45-.98,2.17-2.7,2.34-4.38.03-.34.05-.69.21-1,.16-.31.51-.56.86-.49.64.12.64,1,1.05,1.48.36.42,1.03.52,1.39.93.65.74-.04,1.86.13,2.8.11.61.6,1.16.51,1.77-.04.32-.24.6-.34.92Z"/>
                <path d="M324.89,21.47c-.15.6.01,1.18,0,1.79,0,.38-.11.69-.38.96-.16.17-.36.33-.45.56s-.03.4.05.61c.15.4.29,1.01-.23,1.18-.35.12-.72.17-1.07.28s-.69.25-1.03.4c-1.43.6-2.83,1.37-4.42,1.41-.17,0-.38.02-.55-.02-.2-.05-.29-.21-.41-.37-.24-.32-.46-.65-.67-.99-.18-.29-.34-.6-.5-.9s-.47-.68-.44-1.02c.06-.6.26-1.24.44-1.81.19-.61.44-1.2.78-1.73s.82-1.03,1.39-1.37c.6-.37,1.26-.63,1.82-1.07.94-.74,1.55-1.82,1.87-2.97.18-.63.17-1.29.32-1.92.09-.38.38-.83.83-.74.33.06.46.39.58.66.23.54.45.91.98,1.19.31.16.65.29.86.59.24.34.21.78.15,1.17-.09.62-.23,1.22,0,1.84.13.36.34.7.4,1.08.06.44-.19.8-.33,1.2-.06.17.21.24.27.07.11-.32.3-.61.34-.95s-.07-.65-.2-.96c-.15-.35-.32-.69-.34-1.08s.07-.75.13-1.12c.08-.55.1-1.12-.31-1.55-.46-.48-1.2-.53-1.52-1.16-.21-.4-.31-.96-.75-1.18-.52-.25-1.06.12-1.27.6-.12.28-.14.59-.17.89-.04.39-.1.77-.19,1.14-.18.71-.46,1.39-.88,1.99-.46.67-1.07,1.15-1.78,1.53-.66.36-1.31.69-1.83,1.23-.91.95-1.36,2.23-1.66,3.49-.08.33-.16.66-.21.99s.23.65.39.94c.38.72.78,1.41,1.26,2.07.17.23.28.48.58.51.42.04.84.02,1.25-.03.8-.11,1.55-.37,2.28-.68.89-.37,1.75-.81,2.67-1.11.24-.08.49-.15.74-.2.17-.04.44-.03.58-.13.21-.14.27-.65.27-.88,0-.48-.44-.82-.05-1.26.22-.25.46-.44.58-.76.28-.75-.12-1.56.08-2.33.04-.17-.22-.25-.27-.07Z"/>
              </g>
              <g>
                <path class="cls-74" d="M340.08,25.95c-.24.35-.55.66-.72,1.04-.12.29-.15.6-.23.9-.17.64-.6,1.21-1.19,1.57-.37.23-.82.39-1.04.75-.27.43-.13.98-.34,1.43-.44.94-2,.87-2.61,1.72-.15.21-.23.46-.34.7-.37.8-1.15,1.42-2.04,1.63-.74.17-1.61.11-2.13.63-.29.28-.4.69-.69.97-.35.34-.9.45-1.4.38-.49-.07-.96-.28-1.41-.49-.22-.1-.46-.21-.7-.17-.33.06-.55.35-.85.5-.78.38-1.63-.4-2.51-.51-.54-.07-1.08.12-1.62.16h0c.73,2.19,2.08,3.86,4.78,6.58.22.22.38.49.45.79.07.3-.02.64-.29.8-.5.29-1.21-.19-1.71.1-.62.37-.12,1.36-.52,1.94-.27.38-.85.45-1.3.29-.45-.16-.81-.49-1.19-.77-.1-.08-.21-.15-.34-.17-.18-.02-.35.09-.51.18-.64.35-1.46.38-2.12.08-.17-.08-.34-.18-.46-.31-.34-.37-.31-.92-.26-1.42.17-1.72.29-3.49-.34-5.11-.27-.69-.4-1.19-1.97-2.82-.34-.31-.66-.63-.96-.97-.01-.01-.03-.02-.04-.03-.02-.02-.03-.04-.05-.06,0,0,0,0,0,0-.01-.02-.03-.03-.04-.05-.33-.38-.64-.79-.92-1.21-1.17-1.76-1.82-3.85-1.73-5.92.03-.66.13-1.32.07-1.98-.06-.66-.31-1.34-.85-1.75-.1-.08-.21-.16-.32-.24-.58-.08-1.14-.24-1.66-.5-.03-.02-.07-.04-.06-.07,0-.02.01-.03.03-.05.44-.4,1.18-.76,1.8-.7.49-.54,1.17-.95,1.89-.86.27.03.52.12.76.24.81.4,1.42,1.09,1.89,1.83.13.2.25.4.36.6.32.56.6,1.13.93,1.69.31.53.67,1.04,1.06,1.52.89.12,1.85-.04,2.71-.33,1.29-.44,2.48-1.14,3.79-1.52.36-.11.72-.19,1.09-.26.88-.17,1.78-.28,2.65-.47,3.55-.78,6.51-3,9.48-5,.36-.25.75-.49,1.19-.54.45-.04.95.2,1.02.62.03.18-.02.37.02.54.12.46.83.57,1,1.02.14.35-.11.75,0,1.11.11.34.51.52.69.84.2.37.04.83-.19,1.17Z"/>
                <path d="M339.96,25.88c-.25.34-.55.66-.72,1.06s-.18.84-.35,1.24c-.21.49-.56.88-1.01,1.17-.33.21-.71.35-.97.65-.57.66-.13,1.6-.98,2.12-.55.34-1.24.44-1.76.84-.61.48-.71,1.33-1.27,1.87-.76.72-1.64.73-2.59.94-.29.06-.58.16-.82.34-.33.25-.46.63-.72.94-.91,1.1-2.11.11-3.13-.14-.32-.08-.56-.02-.83.15-.25.16-.44.35-.74.4-.26.04-.52-.03-.76-.12-.46-.16-.89-.41-1.37-.47-.55-.08-1.11.1-1.66.16-.07,0-.14.06-.14.14,0,.34.32.87.46,1.18.24.51.52.99.83,1.45.7,1.03,1.53,1.97,2.38,2.87.48.51,1.7,1.36,1.52,2.14-.21.9-1.31.14-1.91.5-.29.17-.38.48-.4.79-.02.24.02.49-.02.73-.1.68-.7.88-1.29.69-.54-.18-.99-.89-1.56-.94-.27-.02-.51.17-.74.27-.5.21-1.05.25-1.57.09-1.17-.36-.91-1.44-.83-2.38.07-.82.11-1.65.04-2.48-.09-.96-.33-1.94-.79-2.79-.52-.99-1.38-1.77-2.15-2.55-2.23-2.26-3.39-5.17-3.17-8.35.08-1.16.08-2.38-.89-3.19-.27-.23-.45-.25-.78-.33-.25-.05-1.13-.2-.89-.55.21-.3.88-.38,1.21-.43.31-.04.28-.08.56-.31,1.62-1.38,3.31.26,4.16,1.65.42.68.76,1.41,1.16,2.09.22.37.45.72.7,1.06.13.17.27.43.45.53.45.24,1.46,0,1.95-.11.73-.16,1.43-.44,2.11-.74.75-.33,1.49-.69,2.27-.94.86-.28,1.75-.41,2.63-.55,1.69-.27,3.29-.74,4.83-1.5s2.95-1.67,4.35-2.62c.68-.46,1.35-.98,2.06-1.38.63-.35,1.46-.46,1.6.49.04.23.01.38.16.57.14.18.34.28.52.41.46.35.26.78.31,1.25.03.24.12.4.28.58.09.1.2.18.29.28.36.42.24.82-.02,1.25-.09.15.15.29.24.14.24-.4.42-.87.19-1.32-.11-.2-.3-.33-.45-.49-.36-.39-.13-.8-.19-1.24-.06-.47-.47-.59-.78-.87-.47-.42-.11-1.07-.72-1.43-1.05-.61-2.33.64-3.12,1.17-1.26.86-2.52,1.71-3.85,2.45-1.41.78-2.89,1.42-4.47,1.77-1.66.37-3.33.49-4.92,1.15s-2.98,1.46-4.66,1.46c-.54,0-.77-.3-1.06-.71-.27-.39-.51-.79-.74-1.2-.41-.73-.77-1.5-1.26-2.18-.69-.96-1.88-2.08-3.18-1.79-.65.15-1.05.69-1.66.84-.49.12-1.29.32-1.56.81-.03.06-.02.12.02.17.57.65,1.71.38,2.31,1.06.71.8.57,1.96.5,2.94-.12,1.73.2,3.43.93,5.01.69,1.48,1.69,2.65,2.83,3.79.81.81,1.53,1.68,1.93,2.76.37.98.48,2,.47,3.04-.01.89-.22,1.81-.16,2.69.04.62.37,1.02.93,1.24.73.29,1.33.12,2.05-.08.44-.12.75-.08,1.1.18.14.11.28.21.43.31.28.17.59.3.92.32.45.02.91-.15,1.11-.59.33-.73-.26-1.95,1.05-1.78.47.06,1.02.16,1.31-.31.35-.57-.08-1.23-.47-1.63-.7-.73-1.42-1.45-2.08-2.22-.57-.66-1.11-1.34-1.57-2.08-.2-.32-.38-.65-.54-.99-.14-.29-.46-.78-.46-1.11l-.14.14c.58-.06,1.18-.25,1.76-.14.45.09.85.33,1.28.47.29.09.59.16.89.09.51-.12.79-.61,1.37-.54.43.05.91.42,1.34.54.34.1.71.15,1.06.09.33-.05.65-.18.89-.42.4-.39.53-.95,1.06-1.21.76-.37,1.65-.23,2.42-.62s1.19-.96,1.52-1.69c.63-1.41,2.72-1.02,2.97-2.71.04-.29.04-.61.2-.86.2-.32.6-.47.91-.66.34-.2.64-.46.88-.78.27-.36.42-.76.52-1.19.15-.67.47-1.09.87-1.64.11-.15-.14-.28-.24-.14Z"/>
              </g>
            </g>
          </g>
        </g>
      </g>
      <g>
        <rect class="cls-59" x="58.23" y="771.71" width="55.53" height="56.89"/>
        <path class="cls-69" d="M91.15,793.42c10.95-10.61-5.01-17.67-5.32-2.35.31-15.32-15.93-8.92-5.41,2.13-10.52-11.05-17.51,5.06-2.33,5.37-15.18-.31-8.84,16.07,2.11,5.46-10.95,10.61,5.01,17.67,5.32,2.35-.31,15.32,15.93,8.92,5.41-2.13,10.52,11.05,17.51-5.06,2.33-5.37,15.18.31,8.84-16.07-2.11-5.46Z"/>
        <ellipse class="cls-79" cx="86.51" cy="799.54" rx="5.97" ry="6.03"/>
      </g>
      <rect class="cls-16" x="296.46" y="829.12" width="56.26" height="57.12"/>
      <rect class="cls-56" x="114.63" y="828.95" width="56.23" height="57.09"/>
      <g>
        <rect class="cls-52" x="57.84" y="828.97" width="55.97" height="57.15"/>
        <path d="M98.95,853.08c-.27.17-.61.32-.87.5-1,.72-1.47,1.2-1.93,2.37-.32.8-.35,1.73-.63,2.42-.33.83-1.19,1.66-1.43,2.58.25,1.54,2.03,2.89,2.2,4.38.05.45-.02.94,0,1.39-.81.67-1.57,1.38-1.4,2.54.09.6.84,1.1.96,1.75-.4.18-.71.5-1.07.75-.21.14-.56.24-.77.41-.18.15-.24.34-.42.47-.19.13-.42.12-.58.23-.21.14-.29.51-.43.65-.24.26-1.18,1.05-1.51,1.27-.97.68-1.4.45-2.48.14-1.8-.51-2.85-1.53-4.49-2.17-1.25-.49-1.8-.43-2.93-1.29-.2-.16-.58-.22-.77-.42-.46-.49-.36-1.4-.36-2.01,0-.5-.16-.72.16-1.25.24-.4.58-.31.64-1,.03-.34-.19-.39-.2-.57,0-.07.07-.76.08-.81.07-.25.6-.44.65-.83.1-.7-.37-.92-.43-1.36-.08-.57.23-.71-.22-1.41-.64-.99-1.5-1.14-2.33-1.74-.6-.43-.45-.74-.7-1.3-.33-.75-1.42-.55-2.08-.73-.22-.06-1.57-.58-1.67-.7-.48-.58.61-.79.7-1.02.27-.76-.95-1.83-1.47-2.29-.95-.86-2.1-1.55-2.96-2.52l-1.7-2.34c.49.13,1.16.12,1.63.26.82.24,1.9,1.08,2.7,1.44.3.14.85.33,1.17.31.53-.03.82-.95,1.26-1.12.59-.22,1.35.28,1.92.3.72.02,1.03-.17,1.62-.38.47-.16.99-.18,1.44-.41,1.1-.56,1.35-.74,2.65-.98.51-.1,1.27,0,1.6-.47.13-.19.14-.58.23-.81.21-.53.66-.68,1.06-1.01.53-1,.86-2.73,1.41-3.63.23-.37.95-.93,1.3-1.3.52-.55,1.07-1.61,1.92-1.48.4.06,2.82,1.25,3.14,1.52.37.32.45.95.97,1.33.22.16.74.31.87.53.23.37-.04,1.03.01,1.47.09.76.6,1.16.98,1.68.42.58,2.15,2.79,2.31,3.25.12.33.29,1.46.32,1.84.04.53-.01,1.06-.09,1.58Z"/>
      </g>
      <rect class="cls-7" x="353.42" y="829.15" width="56.24" height="57.09"/>
      <g>
        <polygon class="cls-37" points="353.42 819.25 353.37 819.25 353.37 771.69 296.68 771.69 296.68 828.37 353.42 828.37 353.42 819.25"/>
        <g>
          <g>
            <rect class="cls-40" x="296.94" y="771.69" width="11.6" height="10.91"/>
            <rect class="cls-40" x="320.13" y="771.69" width="11.6" height="10.91"/>
            <rect class="cls-40" x="308.54" y="782.6" width="11.6" height="11.41"/>
            <rect class="cls-40" x="296.94" y="794" width="11.6" height="11.41"/>
            <rect class="cls-40" x="320.14" y="794" width="11.6" height="11.41"/>
            <rect class="cls-40" x="308.54" y="805.41" width="11.6" height="11.41"/>
            <rect class="cls-40" x="342.76" y="771.69" width="10.61" height="10.91"/>
            <rect class="cls-40" x="331.16" y="782.6" width="11.6" height="11.41"/>
            <rect class="cls-40" x="342.76" y="794" width="10.61" height="11.41"/>
            <rect class="cls-40" x="331.16" y="805.41" width="11.6" height="11.41"/>
          </g>
          <g>
            <rect class="cls-40" x="296.76" y="816.82" width="11.6" height="11.41"/>
            <rect class="cls-40" x="319.96" y="816.82" width="11.6" height="11.41"/>
            <rect class="cls-40" x="308.36" y="828.22" width="11.6" height=".27"/>
            <polygon class="cls-40" points="353.42 819.25 353.37 819.25 353.37 816.82 342.58 816.82 342.58 828.22 353.42 828.22 353.42 819.25"/>
            <rect class="cls-40" x="330.98" y="828.22" width="11.6" height=".27"/>
          </g>
        </g>
      </g>
      <g>
        <g>
          <rect class="cls-36" x="354.04" y="772.16" width="55.62" height="56.47"/>
          <path class="cls-65" d="M388.78,814.76v2.74s-14.2-.05-14.2-.05v-2.68s3.27,0,3.27,0v-.54s1.07,0,1.07,0v-25.24h-5.43s-.56,0-.56,0v.56s-.56,0-.56,0v.56s-.54,0-.54,0v1.07s-.54,0-.54,0v1.12s-.56,0-.56,0v1.62s-.58,0-.58,0v.56s-2.22.05-2.18,0,0-9.33,0-9.33h2.77s0,.54,0,.54h.56s0,.56,0,.56h20.8v-.55s.55,0,.55,0v-.54s2.74,0,2.74,0l.03,9.31h-2.22s0-.55,0-.55h-.55s0-1.64,0-1.64h-.54s0-1.09,0-1.09h-.56s0-1.1,0-1.1h-.54s0-.54,0-.54h-.54s0-.55,0-.55h-6.05s0,25.21,0,25.21h1.11s0,.55,0,.55h3.27Z"/>
        </g>
        <g>
          <rect class="cls-57" x="354.03" y="714.8" width="55.62" height="56.47"/>
          <g>
            <path class="cls-54" d="M397.99,740.94h0c0,.1,0,.2,0,.3-.16,9.19-7.65,16.58-16.86,16.58s-16.7-7.4-16.86-16.58c0-.1,0-.2,0-.3h0c0-9.32,7.55-16.88,16.86-16.88h0c9.31,0,16.85,7.56,16.86,16.88Z"/>
            <path class="cls-50" d="M381.13,724.29c0,9.19-7.44,16.65-16.62,16.65-.08,0-.16,0-.24,0,0-9.32,7.55-16.88,16.86-16.88,0,.08,0,.16,0,.24Z"/>
            <path class="cls-50" d="M397.99,740.94c-.08,0-.16,0-.24,0-9.18,0-16.62-7.45-16.62-16.65,0-.08,0-.16,0-.24,9.31,0,16.85,7.56,16.86,16.88Z"/>
            <path class="cls-50" d="M381.13,757.82c-9.21,0-16.7-7.4-16.86-16.58.08,0,.16,0,.23,0,9.16,0,16.59,7.42,16.62,16.59Z"/>
            <path class="cls-50" d="M397.99,741.24c-.16,9.19-7.65,16.58-16.86,16.58.03-9.17,7.46-16.59,16.62-16.59.08,0,.16,0,.23,0Z"/>
          </g>
        </g>
      </g>
      <rect class="cls-24" x="1.08" y="828.97" width="56" height="57.15"/>
      <g>
        <rect class="cls-49" x="1.08" y="771.29" width="56.44" height="57.05"/>
        <g>
          <ellipse class="cls-19" cx="29.3" cy="800.85" rx="16.75" ry="16.68"/>
          <path class="cls-6" d="M18.72,803.7s1.88,7.33,10.42,7.51c5.07.11,10.38-3.36,10.78-8.34"/>
          <path class="cls-6" d="M41.42,802.34s-1.36,1.11-2.78-.46"/>
          <path d="M27.4,796.38c.05,1.91-.8,3.48-1.89,3.52-1.09.04-2.01-1.48-2.06-3.38-.05-1.91.8-3.48,1.89-3.52,1.09-.04,2.01,1.48,2.06,3.38Z"/>
          <path d="M31.5,796.53c.05,1.91.97,3.42,2.06,3.38,1.09-.04,1.94-1.61,1.89-3.52-.05-1.91-.97-3.42-2.06-3.38-1.09.04-1.94,1.61-1.89,3.52Z"/>
          <path class="cls-6" d="M19.57,802.31s-.44,1.99-2.64,1.52"/>
        </g>
      </g>
      <g>
        <rect class="cls-17" x="239.45" y="829.12" width="56.26" height="57.12"/>
        <polygon class="cls-29" points="265.43 848.29 269.86 838.89 271.23 849.19 280.35 844.19 275.4 853.34 285.71 854.65 276.34 859.14 283.91 866.26 273.68 864.38 275.62 874.59 268.46 867.06 264.02 876.46 262.65 866.16 253.54 871.16 258.49 862.01 248.18 860.7 257.55 856.22 249.98 849.09 260.2 850.97 258.26 840.76 265.43 848.29"/>
      </g>
      <g>
        <rect class="cls-53" x="1.1" y="714.91" width="56.47" height="56.8"/>
        <g>
          <path class="cls-73" d="M26.18,727.23c3.33,0,6.66-.04,9.99-.06.33,0,3.05-.28,3.09.22.12,1.58.14,3.16.16,4.75.02,2.61.33,5.21.35,7.83,0,.15-.23.26-.43.29.21-.03.45-.14.45-.29-.02-2.61-.33-5.21-.35-7.83-.01-1.58-.03-3.17-.16-4.75-.04-.5-2.76-.22-3.09-.22-3.33.01-6.66.05-9.99.06-1.66,0-3.36-.08-5.03.02,1.66-.09,3.35-.02,5.01-.02Z"/>
          <path class="cls-73" d="M36.91,740.24s.06,0,.1,0c-.03,0-.06,0-.1,0Z"/>
          <path class="cls-73" d="M20.6,740.6s.09,0,.14-.02c0,0,0,0-.01,0-.04.01-.09.02-.13.02Z"/>
          <path class="cls-73" d="M25.96,747.74c-.09,0-.17.02-.26.02.09,0,.17-.01.26-.02Z"/>
          <path class="cls-73" d="M20.83,746.04c.16-.02.32-.03.48-.04-.16,0-.32.02-.48.04Z"/>
          <path class="cls-73" d="M21.41,746c.15,0,.29-.01.44-.02-.15,0-.29,0-.44.02Z"/>
          <path class="cls-73" d="M18.31,724.89c.86-.03,1.72-.06,2.58-.09-.86.03-1.72.05-2.58.09Z"/>
          <path class="cls-73" d="M25.66,747.77c-.35.02-.69.03-1.04.06.35-.02.69-.03,1.04-.06Z"/>
          <path class="cls-73" d="M39.33,740.26s-.03,0-.04,0c.01,0,.03,0,.04,0Z"/>
          <path class="cls-73" d="M21.09,724.8c.9-.03,1.81-.05,2.71-.07-.9.02-1.81.04-2.71.07Z"/>
          <path class="cls-73" d="M23.87,724.73c1.9-.04,3.8-.07,5.7-.08-1.9.01-3.8.04-5.7.08Z"/>
          <path class="cls-73" d="M18.54,757.2c-.5-10.76-.49-21.54-.49-32.31,0,0-.01,0-.02,0,0,10.77-.01,21.55.49,32.31,5.44.28,10.9.31,16.35.06.12,0,.23-.01.35-.02-.11,0-.22.01-.33.02-5.44.24-10.9.22-16.35-.06Z"/>
          <path class="cls-73" d="M29.86,724.65c.86,0,1.72-.01,2.58-.01-.86,0-1.72,0-2.58.01Z"/>
          <path class="cls-73" d="M31.43,754.89c.18-.01.36-.02.53-.03-.18,0-.36.02-.53.03Z"/>
          <path class="cls-73" d="M28.85,754.87c-.45-.03-.9-.03-1.36-.01.45-.02.9-.01,1.34.02.25.02.59,0,.66.3.06.24-.25.35-.41.41-.13.04-.27.06-.42.07.16,0,.31-.02.44-.07.16-.05.47-.16.41-.41-.07-.3-.4-.28-.66-.3Z"/>
          <path class="cls-73" d="M33.44,754.87c-.45-.03-.9-.03-1.36-.01.45-.02.9-.01,1.34.02.25.02.59,0,.66.3.06.24-.25.35-.41.41-.13.04-.27.06-.42.07.16,0,.31-.02.44-.07.16-.05.47-.16.41-.41-.07-.3-.4-.28-.66-.3Z"/>
          <path class="cls-73" d="M26.84,754.89c.18-.01.37-.02.55-.03-.18,0-.37.02-.55.03Z"/>
          <path class="cls-73" d="M22.41,745.97h0c-.18,0-.35,0-.53,0,.18,0,.35,0,.53,0Z"/>
          <path class="cls-73" d="M24.61,747.83c0,.69.02,1.38.07,2.06.02.18-.27.27-.41.29-.27.03-.53.06-.8.07.27-.02.54-.04.82-.07.14-.02.43-.1.41-.29-.06-.69-.07-1.37-.08-2.06,0,0-.01,0-.02,0Z"/>
          <path class="cls-73" d="M26.65,745.9c.06,0,.21,0,.22.1.06.48.05.96.02,1.44,0,.11-.23.2-.31.22-.19.04-.39.07-.58.09.2-.02.4-.05.6-.09.09-.02.3-.1.31-.22.04-.48.04-.96-.02-1.44-.01-.09-.16-.09-.22-.1-.5-.04-.99-.04-1.49-.02-.03,0-.05,0-.07,0,.02,0,.04,0,.06,0,.5-.02.99-.02,1.49.02Z"/>
          <path class="cls-73" d="M24.35,743.6c.06,0,.21.01.22.1.08.67.07,1.34.06,2.01,0,.19.04.23.13.22-.08,0-.11-.04-.11-.22,0-.67.01-1.35-.06-2.01,0-.09-.16-.1-.22-.1-.5,0-1-.01-1.51.01,0,0,0,0-.01,0,.5-.02,1-.02,1.5-.01Z"/>
          <path class="cls-84" d="M43.03,739.53c-.16-5.13-.53-10.25-.54-15.38,0-.05-.01-.1-.03-.14,0-.13-.09-.22-.34-.24-.1-.02-.2-.02-.31,0-8.12-.08-16.29-.07-24.41.26-.24,0-.78.21-.78.52,0,11.1-.01,22.2.51,33.29,0,.18.31.26.44.27,5.8.31,11.63.33,17.44.07,3.82-.17,6.46-2.52,7.44-6.13,1.08-3.96.69-8.44.57-12.51ZM41.42,750.45c-.24,1.67-.7,3.39-1.76,4.74-1.1,1.41-2.74,1.93-4.45,2.06-.12,0-.23.02-.35.02-5.44.24-10.9.22-16.35-.06-.5-10.76-.49-21.54-.49-32.31,0,0,.01,0,.02,0h0c.09,0,.18,0,.26,0,.86-.03,1.72-.06,2.58-.09.07,0,.13,0,.2,0,.9-.03,1.81-.05,2.71-.07.03,0,.05,0,.08,0,1.9-.04,3.8-.07,5.7-.08.1,0,.19,0,.29,0,.86,0,1.72-.01,2.58-.01,2.89,0,5.78,0,8.67.04.02,4.58.31,9.16.49,13.74.15,3.98.38,8.1-.18,12.05Z"/>
          <path class="cls-67" d="M20.78,727.65c.17,4.18.19,8.37.31,12.56,5.98-.1,11.96-.36,17.95-.33-.04-2.37-.32-4.74-.34-7.11-.01-1.58,0-3.17-.13-4.75-.05-.64-.42-.46-.94-.46-.29,0-.58,0-.87,0-.72,0-1.45,0-2.17.01-3.04.02-6.08.05-9.12.05-1.55,0-3.13-.08-4.68.03ZM22.16,734.29c0-1.72-.04-3.45-.08-5.17,0-.15.34-.2.34-.03.04,1.72.07,3.45.08,5.17,0,.15-.34.2-.34.03ZM34.61,738.43h2.78c.19-.89-.07-1.79-.02-2.69,0-.1.34-.17.34-.05-.05.94.23,1.87,0,2.8-.02.08-.17.11-.24.11h-2.99c-.23,0,.02-.17.14-.17Z"/>
          <path class="cls-84" d="M39.77,739.97c-.02-2.61-.33-5.21-.35-7.83-.01-1.59-.03-3.17-.16-4.75-.04-.5-2.76-.22-3.09-.22-3.33.01-6.66.05-9.99.06-1.66,0-3.35-.07-5.01.02-.23.01-.47.03-.7.05-.14.01-.43.11-.42.29.18,4.3.2,8.6.32,12.91,0,.08.11.11.24.1.04,0,.08-.01.13-.02,0,0,0,0,.01,0,0,0,0,0,0,0,5.39-.09,10.77-.31,16.16-.33.03,0,.06,0,.1,0,.71,0,1.41,0,2.12,0,.04.02.1.02.17.02.01,0,.03,0,.04,0,0,0,0,0,.01,0,.2-.03.43-.14.43-.29ZM34.58,727.58c.72,0,1.45,0,2.17-.01.29,0,.58,0,.87,0,.51,0,.89-.18.94.46.12,1.58.11,3.17.13,4.75.02,2.38.3,4.74.34,7.11-5.99-.04-11.97.23-17.95.33-.12-4.19-.13-8.37-.31-12.56,1.55-.1,3.13-.03,4.68-.03,3.04,0,6.08-.03,9.12-.05Z"/>
          <path class="cls-70" d="M23.22,749.88c.24,0,.48-.02.72-.04-.05-.69-.06-1.38-.06-2.07,0-.18.26-.27.41-.29.63-.07,1.27-.03,1.89-.12.04-.38.12-1.11-.19-1.11-.62-.02-1.24.02-1.86.03-.05,0-.22-.02-.22-.1,0-.64.02-1.29-.03-1.93-.02-.26.2-.27.01-.27-.14,0-.27,0-.41,0-.14,0-.29,0-.43,0-.01.69.07,1.39.08,2.08,0,.2-.39.32-.59.29-.48,0-.96,0-1.44.02,0,.39-.01,1.21-.03,1.21.24,0,.49,0,.73,0,.35,0,.71-.02,1.06-.03.05,0,.22.02.22.1.01.47.02.95.03,1.42,0,.08-.05.8.09.8Z"/>
          <path class="cls-84" d="M24.68,749.89c-.06-.69-.07-1.37-.07-2.06,0,0,.01,0,.02,0h0c.35-.02.69-.03,1.04-.06.01,0,.03,0,.04,0,.09,0,.17-.01.26-.02,0,0,.02,0,.03,0,.19-.02.39-.05.58-.09.09-.02.3-.1.31-.22.04-.48.04-.96-.02-1.44-.01-.09-.16-.09-.22-.1-.5-.04-.99-.04-1.49-.02-.02,0-.04,0-.06,0-.16.02-.27.06-.34.06-.09,0-.13-.03-.13-.22,0-.67.01-1.35-.06-2.01-.01-.09-.16-.1-.22-.1-.5,0-1-.01-1.5.01-.13,0-.48.07-.49.24-.03.71.04,1.41.07,2.11,0,0-.01,0-.02,0h0c-.18,0-.35,0-.53,0-.01,0-.03,0-.04,0-.15,0-.29,0-.44.02-.03,0-.07,0-.1,0-.16,0-.32.02-.48.04,0,0,0,0,0,0-.1.01-.4.09-.41.24-.02.54-.01,1.07.01,1.6,0,.09.16.1.22.1.39.01.78,0,1.17,0,.16,0,.31,0,.47-.01.05,0,.09,0,.12,0,.02.73.04,1.47.04,2.2,0,.09.17.1.22.1.27,0,.54,0,.81-.01.27-.02.53-.04.8-.07.14-.02.43-.1.41-.29ZM23.1,747.66c0-.08-.17-.1-.22-.1-.35.01-.71.02-1.06.03-.24,0-.49,0-.73,0,.01,0,.02-.81.03-1.21.48-.03.95-.03,1.44-.02.21.03.6-.09.59-.29-.02-.69-.09-1.39-.08-2.08.14,0,.29,0,.43,0,.14,0,.27,0,.41,0,.19,0-.03.01-.01.27.05.64.04,1.29.03,1.93,0,.08.17.1.22.1.62-.01,1.24-.05,1.86-.03.31,0,.24.74.19,1.11-.62.08-1.27.05-1.89.12-.15.02-.41.1-.41.29,0,.69.01,1.38.06,2.07-.24.02-.48.04-.72.04-.14,0-.09-.71-.09-.8,0-.47-.02-.95-.03-1.42Z"/>
          <path class="cls-81" d="M39.4,744.63c-.25-.69-.66-.94-1.44-.91-.66.06-1.09.7-1.13,1.5-.03.72.75,1.44,1.63,1.24,1-.23,1.19-1.21.94-1.83Z"/>
          <path class="cls-78" d="M37.1,748.28c-.25-.69-.66-.94-1.44-.91-.66.06-1.09.7-1.13,1.5-.03.72.75,1.44,1.63,1.24,1-.23,1.19-1.21.94-1.83Z"/>
          <path class="cls-84" d="M34.08,755.16c-.07-.3-.4-.28-.66-.3-.44-.03-.89-.03-1.34-.02-.04,0-.08,0-.12,0-.18,0-.36.02-.53.03-.22.02-.44.04-.66.07-.03,0-.06,0-.09.02-.22.07-.39.13-.42.39-.04.35.53.28.71.28.5,0,1,0,1.51-.01.23,0,.51.02.77,0,.15,0,.3-.03.42-.07.16-.05.47-.16.41-.41Z"/>
          <path class="cls-84" d="M29.49,755.16c-.07-.3-.4-.28-.66-.3-.44-.03-.89-.03-1.34-.02-.03,0-.07,0-.1,0-.18,0-.37.02-.55.03-.22.02-.44.04-.66.07-.03,0-.06,0-.09.02-.22.07-.39.13-.42.39-.04.35.53.28.71.28.5,0,1,0,1.51-.01.23,0,.51.02.77,0,.15,0,.3-.02.42-.07.16-.05.47-.16.41-.41Z"/>
          <path class="cls-84" d="M37.46,738.6c.07,0,.22-.03.24-.11.23-.93-.05-1.86,0-2.8,0-.12-.33-.05-.34.05-.05.9.21,1.8.02,2.69h-2.78c-.11,0-.36.17-.14.17h2.99Z"/>
          <path class="cls-84" d="M22.08,729.12c.04,1.72.07,3.45.08,5.17,0,.18.34.13.34-.03,0-1.72-.04-3.45-.08-5.17,0-.18-.35-.13-.34.03Z"/>
          <path class="cls-30" d="M41.11,724.67c-2.89-.03-5.78-.04-8.67-.04-.86,0-1.72,0-2.58.01-.1,0-.19,0-.29,0-1.9.01-3.8.04-5.7.08-.03,0-.05,0-.08,0-.9.02-1.81.04-2.71.07-.07,0-.13,0-.2,0-.86.03-1.72.05-2.58.09-.09,0-.18,0-.26,0h0c0,10.77-.01,21.55.49,32.31,5.44.28,10.9.31,16.35.06.11,0,.22-.01.33-.02,1.71-.13,3.35-.65,4.45-2.06,1.05-1.35,1.52-3.07,1.76-4.74.56-3.95.33-8.07.18-12.05-.17-4.58-.46-9.15-.49-13.74ZM36.83,745.22c.03-.8.47-1.44,1.13-1.5.78-.03,1.19.22,1.44.91.25.63.06,1.61-.94,1.83-.88.2-1.66-.52-1.63-1.24ZM34.53,748.87c.03-.8.47-1.44,1.13-1.5.78-.04,1.19.22,1.44.91.25.63.06,1.61-.94,1.83-.88.2-1.66-.52-1.63-1.24ZM26.2,727.23c3.33,0,6.66-.04,9.99-.06.33,0,3.05-.28,3.09.22.13,1.58.14,3.16.16,4.75.02,2.61.33,5.21.35,7.83,0,.16-.24.27-.45.29,0,0,0,0-.01,0-.01,0-.03,0-.04,0-.07,0-.13,0-.17-.02-.71,0-1.41,0-2.12,0-.03,0-.06,0-.1,0-5.39.02-10.78.24-16.16.33,0,0,0,0,0,0-.05.01-.1.02-.14.02-.13,0-.24-.02-.24-.1-.12-4.3-.13-8.61-.32-12.91,0-.18.28-.28.42-.29.23-.02.47-.04.7-.05,1.67-.1,3.37-.02,5.03-.02ZM24.29,750.17c-.27.03-.54.06-.82.07-.27.01-.54.02-.81.01-.05,0-.22-.01-.22-.1,0-.73-.02-1.47-.04-2.2-.03,0-.07,0-.12,0-.16,0-.31,0-.47.01-.39,0-.78.02-1.17,0-.05,0-.21-.01-.22-.1-.03-.53-.03-1.06-.01-1.6,0-.15.31-.23.41-.24,0,0,0,0,0,0,.16-.02.32-.03.48-.04.03,0,.07,0,.1,0,.15,0,.29-.01.44-.02.01,0,.03,0,.04,0,.18,0,.35,0,.53,0,0,0,.01,0,.02,0-.03-.7-.1-1.41-.07-2.11,0-.17.35-.23.49-.24,0,0,.01,0,.01,0,.5-.02,1-.02,1.51-.01.06,0,.21.01.22.1.08.67.07,1.34.06,2.01,0,.18.03.23.11.22.07,0,.18-.04.34-.06.02,0,.05,0,.07,0,.5-.02.99-.02,1.49.02.06,0,.21,0,.22.1.06.48.05.96.02,1.44,0,.11-.23.2-.31.22-.2.04-.4.07-.6.09,0,0-.02,0-.03,0-.09,0-.17.02-.26.02-.01,0-.03,0-.04,0-.35.02-.69.03-1.04.06h0c0,.69.02,1.38.08,2.06.01.18-.28.27-.41.29ZM29.09,755.57c-.13.04-.29.06-.44.07-.26.01-.53-.01-.77,0-.5.01-1,.01-1.51.01-.17,0-.75.07-.71-.28.03-.26.2-.32.42-.39.04-.01.07-.02.09-.02.22-.03.44-.05.66-.07.18-.01.37-.02.55-.03.03,0,.07,0,.1,0,.46-.02.91-.01,1.36.01.25.02.59,0,.66.3.06.24-.25.35-.41.41ZM33.68,755.57c-.13.04-.29.06-.44.07-.26.01-.53-.01-.77,0-.5.01-1,.01-1.51.01-.17,0-.75.07-.71-.28.03-.26.2-.32.42-.39.04-.01.07-.02.09-.02.22-.03.44-.05.66-.07.18-.01.36-.02.53-.03.04,0,.08,0,.12,0,.46-.02.91-.01,1.36.01.25.02.59,0,.66.3.06.24-.25.35-.41.41Z"/>
        </g>
      </g>
      <g>
        <g>
          <circle class="cls-32" cx="391.46" cy="849.52" r="4.12"/>
          <circle class="cls-32" cx="381.08" cy="843.99" r="4.12"/>
          <circle class="cls-32" cx="378.15" cy="850.11" r="4.12" transform="translate(-130.58 71.09) rotate(-9.17)"/>
          <circle class="cls-32" cx="373.32" cy="850.46" r="4.12" transform="translate(-184.07 107.52) rotate(-13.18)"/>
          <circle class="cls-32" cx="375" cy="846.71" r="4.12"/>
          <circle class="cls-32" cx="387.61" cy="846" r="4.12"/>
          <circle class="cls-32" cx="384.51" cy="850.34" r="4.12"/>
        </g>
        <g>
          <g>
            <polygon class="cls-39" points="390.96 875.05 373.4 875.05 368.64 852.09 395.72 852.09 390.96 875.05"/>
            <polygon class="cls-33" points="388.98 875.05 375.38 875.05 371.69 852.09 392.67 852.09 388.98 875.05"/>
            <polygon class="cls-39" points="387.16 875.05 377.2 875.05 374.5 852.09 389.86 852.09 387.16 875.05"/>
            <polygon class="cls-33" points="385.15 875.05 379.21 875.05 377.61 852.09 386.75 852.09 385.15 875.05"/>
            <polygon class="cls-39" points="383.25 875.05 381.11 875.05 380.53 852.09 383.83 852.09 383.25 875.05"/>
          </g>
          <g>
            <polygon class="cls-11" points="390.96 875.05 373.4 875.05 368.64 852.09 395.72 852.09 390.96 875.05"/>
            <polygon class="cls-33" points="388.98 875.05 375.38 875.05 371.69 852.09 392.67 852.09 388.98 875.05"/>
            <polygon class="cls-11" points="387.16 875.05 377.2 875.05 374.5 852.09 389.86 852.09 387.16 875.05"/>
            <polygon class="cls-33" points="385.15 875.05 379.21 875.05 377.61 852.09 386.75 852.09 385.15 875.05"/>
            <polygon class="cls-11" points="383.25 875.05 381.11 875.05 380.53 852.09 383.83 852.09 383.25 875.05"/>
          </g>
          <path class="cls-11" d="M391.15,875.56h-17.94c-.35,0-.64-.29-.64-.64h0c0-.35.29-.64.64-.64h17.94c.35,0,.64.29.64.64h0c0,.35-.29.64-.64.64Z"/>
          <path class="cls-11" d="M395.88,852.73h-27.4c-.35,0-.64-.29-.64-.64h0c0-.35.29-.64.64-.64h27.4c.35,0,.64.29.64.64h0c0,.35-.29.64-.64.64Z"/>
        </g>
      </g>
      <g>
        <path class="cls-66" d="M324.87,847.19c-9.29.26-17.36,5.15-22.07,12.39,5.11,6.97,13.43,11.4,22.72,11.14,9.29-.26,17.36-5.15,22.07-12.39-5.11-6.97-13.43-11.4-22.72-11.14Z"/>
        <circle class="cls-72" cx="325.2" cy="858.96" r="11.62"/>
        <circle class="cls-83" cx="325.2" cy="858.96" r="5.47"/>
      </g>
      <path class="cls-1" d="M141.77,874.37l-12.82-14.01c-12.65-12.85.44-27.52,12.82-15.24,13.09-12.61,26.22,3.05,12.91,15.24l-12.91,14.01Z"/>
      <g>
        <circle class="cls-18" cx="28.68" cy="858.7" r="16.4" transform="translate(-598.79 271.79) rotate(-45)"/>
        <path class="cls-5" d="M37.43,858.64c.06,9.06-3.81,16.43-8.64,16.46-4.83.03-8.8-7.29-8.86-16.35-.06-9.06,3.81-16.43,8.64-16.46,4.83-.03,8.8,7.29,8.86,16.35Z"/>
        <path class="cls-45" d="M28.42,841.78c-2.07,11.35.86,22.02.36,33.65"/>
        <line class="cls-46" x1="12.28" y1="858.81" x2="45.09" y2="858.59"/>
        <g>
          <path class="cls-45" d="M39.74,846.51c-2.9,2.67-6.75,4.33-11,4.36-4.25.03-8.12-1.58-11.05-4.21"/>
          <path class="cls-45" d="M17.85,870.89c2.9-2.67,6.75-4.33,11-4.36,4.25-.03,8.12,1.58,11.05,4.21"/>
        </g>
      </g>
    </g>
  </g>
</svg>