<?xml version="1.0" encoding="UTF-8"?>
<svg id="Capa_2" data-name="Capa 2" xmlns="http://www.w3.org/2000/svg" viewBox="0 0 410.12 885.31">
  <defs>
    <style>
      .cls-1 {
        fill: #fa7445;
      }

      .cls-2 {
        fill: #f18cb8;
        stroke-width: .58px;
      }

      .cls-2, .cls-3, .cls-4, .cls-5, .cls-6, .cls-7, .cls-8, .cls-9, .cls-10, .cls-11, .cls-12, .cls-13, .cls-14, .cls-15, .cls-16, .cls-17, .cls-18, .cls-19, .cls-20, .cls-21, .cls-22, .cls-23, .cls-24, .cls-25, .cls-26, .cls-27, .cls-28, .cls-29 {
        stroke-miterlimit: 10;
      }

      .cls-2, .cls-4, .cls-5, .cls-11, .cls-12, .cls-17, .cls-18, .cls-20, .cls-23, .cls-25, .cls-28, .cls-29 {
        stroke: #000;
      }

      .cls-3 {
        stroke-width: .81px;
      }

      .cls-3, .cls-6, .cls-7, .cls-8, .cls-9, .cls-10, .cls-13, .cls-14, .cls-15, .cls-16, .cls-19, .cls-21, .cls-22, .cls-24, .cls-26, .cls-27 {
        stroke: #1d1d1b;
      }

      .cls-3, .cls-21 {
        fill: #09c;
      }

      .cls-4, .cls-7, .cls-9, .cls-16, .cls-18, .cls-23 {
        fill: #f2a84d;
      }

      .cls-4, .cls-19 {
        stroke-width: .46px;
      }

      .cls-30 {
        fill: #ff5a5a;
      }

      .cls-30, .cls-5, .cls-31, .cls-32, .cls-33 {
        stroke-linecap: round;
      }

      .cls-30, .cls-31, .cls-32, .cls-33 {
        stroke: #301500;
        stroke-linejoin: round;
        stroke-width: .31px;
      }

      .cls-5, .cls-34 {
        fill: none;
      }

      .cls-5, .cls-17 {
        stroke-width: .39px;
      }

      .cls-6 {
        stroke-width: .8px;
      }

      .cls-6, .cls-8, .cls-10, .cls-27 {
        fill: #f9c;
      }

      .cls-7 {
        stroke-width: .26px;
      }

      .cls-8 {
        stroke-width: .81px;
      }

      .cls-35, .cls-32, .cls-25, .cls-29 {
        fill: #fff;
      }

      .cls-31 {
        fill: #ffb640;
      }

      .cls-9, .cls-23 {
        stroke-width: .8px;
      }

      .cls-10 {
        stroke-width: .99px;
      }

      .cls-11, .cls-36 {
        fill: #2db25f;
      }

      .cls-11, .cls-29 {
        stroke-width: .64px;
      }

      .cls-12 {
        fill: #f295ca;
        stroke-width: .43px;
      }

      .cls-13 {
        stroke-width: .85px;
      }

      .cls-13, .cls-14, .cls-19 {
        fill: #f63;
      }

      .cls-14 {
        stroke-width: .96px;
      }

      .cls-37, .cls-20 {
        fill: #db1c53;
      }

      .cls-15 {
        fill: #396;
        stroke-width: .8px;
      }

      .cls-38 {
        fill: #f96;
      }

      .cls-17 {
        fill: #fc3;
      }

      .cls-39 {
        fill: #fb6e47;
      }

      .cls-18 {
        stroke-width: .92px;
      }

      .cls-20 {
        stroke-width: .81px;
      }

      .cls-40 {
        fill: #009e7c;
      }

      .cls-41 {
        fill: #0070b7;
      }

      .cls-33 {
        fill: #301500;
      }

      .cls-21 {
        stroke-width: .98px;
      }

      .cls-22 {
        fill: #009fdc;
        stroke-width: .6px;
      }

      .cls-42, .cls-24, .cls-26 {
        fill: #f5e3d5;
      }

      .cls-43 {
        fill: #1f1e21;
      }

      .cls-44 {
        fill: #c04237;
      }

      .cls-45 {
        fill: #347dc0;
      }

      .cls-24 {
        stroke-width: .2px;
      }

      .cls-25 {
        stroke-width: .81px;
      }

      .cls-26 {
        stroke-width: .92px;
      }

      .cls-27 {
        stroke-width: .4px;
      }

      .cls-28 {
        stroke-width: .41px;
      }
    </style>
  </defs>
  <g id="Capa_2-2" data-name="Capa 2">
    <g>
      <g id="I">
        <rect class="cls-14" x=".5" y=".5" width="43.75" height="49.2"/>
        <rect class="cls-10" x=".5" y="49.95" width="43.75" height="52.24"/>
        <g>
          <path class="cls-12" d="M37.14,23.1c-2.3-1.78-5.76-1.51-8.51-1.51-1.73,0-3.45,0-5.18,0-2.99,0-5.98,0-8.97,0-2.02,0-4.17.03-6.01,1-2.3,1.21-3.7,3.38-3.75,6.02-.04,2.38.87,5.04,3.29,5.94,2.37.88,4.96.69,7.45.75,4.89.12,9.8.21,14.69.07,1.9.02,3.95.04,5.78-.55,1.46-.47,2.5-1.78,2.99-3.2.92-2.66.64-6.66-1.78-8.52ZM16.36,28.55c-.16,1.22-2.31,1.33-3.44,1.31.12,1.05.42,3.34-.8,3.65-1.57.4-1.4-2.4-1.39-3.32,0-.46-.17-.31-.62-.34-.44-.03-.89-.05-1.32-.15-.57-.12-1.31-.3-1.41-.97-.2-1.38,2.18-1.46,3.29-1.43-.09-1.05.03-3.23,1.23-3.39,1.26-.17,1.17,2.56,1.14,3.3,0,.18-.1.09.18.1.18,0,.36,0,.53.02.45.03.92.07,1.35.2.45.13,1.33.4,1.25,1.04ZM20.59,26.8c.72-.1,2.61-.16,3.18-.06.36.07.24.54-.05.57-.71.06-2.34.06-3.14.06-.32,0-.4-.52,0-.57ZM23.72,29.87c-.71.06-2.34.06-3.14.06-.32,0-.4-.52,0-.57.72-.1,2.61-.16,3.18-.06.36.07.24.54-.05.57ZM31.46,32.65c-.9.25-2.19-.34-2.11-1.42.07-.96.58-1.7,1.56-1.86.04,0,.07,0,.09,0,0,0,0,0,.01,0,.95-.02,1.78.48,1.83,1.53.04.93-.53,1.52-1.39,1.76ZM34.54,28.04c-.9.25-2.19-.34-2.11-1.42.07-.96.58-1.7,1.56-1.86.04,0,.07,0,.09,0,0,0,0,0,.01,0,.95-.02,1.78.48,1.83,1.53.04.93-.53,1.52-1.39,1.76Z"/>
          <path class="cls-43" d="M39.89,24.62c-.96-2.05-2.78-2.97-4.92-3.37-2.89-.54-6.01-.3-8.95-.3h-2.28s.03-.06.02-.09c-.02-.5,0-1,0-1.51,0-.08-.15-.09-.2-.09-.22,0-.53-.13-.8-.13-.12,0-.23,0-.35.02-.34-1.31-.22-2.74.94-3.62.75-.57,1.57-1.06,2.32-1.64,1.37-1.06,2.2-2.45,1.7-4.2-.09-.31-.75-.13-.66.18.67,2.34-1.28,3.64-2.98,4.79-1.7,1.15-2.51,2.55-1.99,4.62-.1.02-.2.05-.3.08-.26.07-.64.16-.83.36-.23.23-.12.87-.08,1.24-1.48,0-2.97,0-4.45,0-3.16,0-6.32.07-9.1,1.76-3.38,2.05-4.78,6.94-2.52,10.35,2.35,3.56,7.74,2.81,11.43,2.89,4.57.1,9.16.18,13.74.05,2.41.03,4.98-.03,7.26-.93,1.8-.71,2.97-2.36,3.52-4.16.63-2.04.38-4.37-.51-6.29ZM38.92,31.62c-.49,1.42-1.52,2.73-2.99,3.2-1.83.59-3.88.57-5.78.55-4.89.14-9.8.05-14.69-.07-2.49-.06-5.08.13-7.45-.75-2.41-.89-3.33-3.56-3.29-5.94.04-2.63,1.45-4.81,3.75-6.02,1.84-.97,3.98-1,6.01-1,2.99,0,5.98,0,8.97,0,1.73,0,3.45,0,5.18,0,2.75,0,6.21-.27,8.51,1.51,2.42,1.87,2.7,5.86,1.78,8.52ZM21.17,20.29s-.03-.5-.04-.49c.11-.11.49-.17.67-.21.33-.08.69-.12,1.03-.08.1.01.18.05.27.07,0,.1,0,.2,0,.3-.17,0-.34.01-.5.02-.16,0-.33.04-.47.12-.1.06-.09.14.04.14.3,0,.61-.03.91-.03,0,0,.01,0,.02,0,0,.09,0,.17,0,.26-.17.02-.34.03-.5,0-.15-.02-.35.04-.47.13-.11.08-.08.15.05.17.31.05.62,0,.92-.02,0,.09,0,.18,0,.27l-1.92.02s.02-.05.02-.08c-.01-.2-.02-.4-.02-.6Z"/>
          <path class="cls-41" d="M15.64,28.13c-.78-.57-1.99-.62-2.93-.57-.06,0-.15-.02-.14-.09.07-.83.13-2.48-.48-3.14-.61-.66-.99,2.65-.93,3.05.02.13-.26.22-.39.18-.5-.03-1.02-.04-1.52.03-.56.09-2.11.82-1.15,1.5.83.58,2,.48,2.96.56.03,0,.14,0,.14.06-.01.91-.24,2.74.49,3.44.77.74.85-1.81.85-1.98-.01-.46-.05-.92-.1-1.38-.01-.13.23-.19.32-.19.56.03,1.13,0,1.69-.09.51-.09,2.17-.66,1.19-1.38ZM9.01,28.68s0,.04-.03.03c-.14-.04-.26-.1-.4-.12-.04,0-.08-.15-.04-.17.13-.04.26-.08.38-.13.04-.02.06.1.06.12,0,.06,0,.13.01.19,0,.02.01.05,0,.07h0ZM11.96,32.33s-.15.08-.17.04c-.04-.13-.08-.26-.13-.38-.02-.04.1-.06.12-.06.06,0,.13,0,.19-.01.02,0,.05-.01.07,0h0s.04,0,.03.03c-.04.14-.1.26-.12.4ZM12.03,25.69c-.06,0-.13,0-.19.01-.02,0-.05.01-.07,0h0s-.04,0-.03-.03c.04-.14.1-.26.12-.4,0-.04.15-.08.17-.04.04.13.08.26.13.38.02.04-.1.06-.12.06ZM15.12,28.6c-.13.04-.26.08-.38.13-.04.02-.06-.1-.06-.12,0-.06,0-.13-.01-.19,0-.02-.01-.05,0-.07h0s0-.04.03-.04c.14.04.26.1.4.12.04,0,.08.15.04.17Z"/>
          <path class="cls-43" d="M15.11,27.52c-.44-.13-.9-.16-1.35-.2-.18-.01-.35-.02-.53-.02-.28,0-.19.09-.18-.1.03-.74.12-3.47-1.14-3.3-1.2.16-1.32,2.34-1.23,3.39-1.11-.03-3.5.05-3.29,1.43.1.67.84.85,1.41.97.43.09.88.12,1.32.15.45.03.63-.11.62.34-.01.91-.18,3.71,1.39,3.32,1.22-.31.92-2.6.8-3.65,1.14.02,3.28-.09,3.44-1.31.08-.63-.8-.91-1.25-1.04ZM14.44,29.51c-.55.1-1.13.12-1.69.09-.1,0-.34.05-.32.19.05.46.08.92.1,1.38,0,.17-.08,2.72-.85,1.98-.73-.7-.5-2.52-.49-3.44,0-.06-.11-.06-.14-.06-.96-.08-2.13.02-2.96-.56-.97-.68.58-1.41,1.15-1.5.5-.07,1.01-.06,1.52-.03.13.04.41-.05.39-.18-.05-.4.32-3.7.93-3.05.62.66.55,2.31.48,3.14,0,.08.08.1.14.09.94-.05,2.15,0,2.93.57.98.71-.69,1.29-1.19,1.38Z"/>
          <path class="cls-43" d="M11.85,25.28c-.02.14-.08.27-.12.4,0,.02.02.02.03.03h0s.05,0,.07,0c.06,0,.13-.01.19-.01.02,0,.14-.02.12-.06-.05-.13-.09-.25-.13-.38-.02-.05-.16,0-.17.04Z"/>
          <path class="cls-43" d="M15.09,28.43c-.14-.02-.27-.08-.4-.12-.02,0-.02.02-.03.03h0s0,.05,0,.08c0,.06.01.13.01.19,0,.02.02.14.06.12.13-.05.25-.09.38-.13.05-.02,0-.16-.04-.17Z"/>
          <path class="cls-43" d="M8.99,28.41s-.02-.14-.06-.12c-.13.05-.25.09-.38.13-.05.02,0,.16.04.17.14.02.27.08.4.12.02,0,.02-.02.03-.03h0s0-.05,0-.08c0-.06-.01-.13-.01-.19Z"/>
          <path class="cls-43" d="M12.05,31.9h0s-.05,0-.07,0c-.06,0-.13.01-.19.01-.02,0-.14.02-.12.06.05.13.09.25.13.38.02.05.16,0,.17-.04.02-.14.08-.27.12-.4,0-.02-.02-.02-.03-.03Z"/>
          <path class="cls-36" d="M35.3,25.79c-.3-.64-.76-.86-1.44-.85-.75.16-1.17,1.36-.89,2.01.38.89,1.82,1.46,2.34.31.21-.47.21-.99,0-1.47Z"/>
          <path class="cls-43" d="M34.1,24.75s0,0-.01,0c-.02,0-.06,0-.09,0-.98.15-1.49.89-1.56,1.86-.08,1.08,1.21,1.67,2.11,1.42.86-.24,1.44-.82,1.39-1.76-.05-1.05-.88-1.55-1.83-1.53ZM32.97,26.95c-.28-.65.14-1.85.89-2.01.68,0,1.14.22,1.44.85.22.47.22.99,0,1.47-.52,1.16-1.96.58-2.34-.31Z"/>
          <path class="cls-36" d="M32.22,30.41c-.3-.64-.76-.86-1.44-.85-.75.16-1.17,1.36-.89,2.01.38.89,1.82,1.46,2.34.31.21-.47.21-.99,0-1.47Z"/>
          <path class="cls-43" d="M31.02,29.37s0,0-.01,0c-.02,0-.06,0-.09,0-.98.15-1.49.89-1.56,1.86-.08,1.08,1.21,1.67,2.11,1.42.86-.24,1.44-.82,1.39-1.76-.05-1.05-.88-1.55-1.83-1.53ZM29.88,31.57c-.28-.65.14-1.85.89-2.01.68,0,1.14.22,1.44.85.22.47.22.99,0,1.47-.52,1.16-1.96.58-2.34-.31Z"/>
          <path class="cls-43" d="M23.77,29.3c-.58-.11-2.47-.04-3.18.06-.41.06-.33.57,0,.57.81,0,2.43,0,3.14-.06.29-.02.41-.5.05-.57Z"/>
          <path class="cls-43" d="M20.58,27.37c.81,0,2.43,0,3.14-.06.29-.02.41-.5.05-.57-.58-.11-2.47-.04-3.18.06-.41.06-.33.57,0,.57Z"/>
          <path class="cls-36" d="M21.17,20.98l1.92-.02c0-.09,0-.18,0-.27-.31.02-.62.07-.92.02-.12-.02-.16-.09-.05-.17.12-.09.32-.15.47-.13.17.03.33.01.5,0,0-.09,0-.17,0-.26,0,0-.01,0-.02,0-.3,0-.61.03-.91.03-.13,0-.14-.08-.04-.14.14-.08.31-.12.47-.12.17,0,.34,0,.5-.02,0-.1,0-.2,0-.3-.09-.03-.17-.06-.27-.07-.34-.04-.7,0-1.03.08-.18.05-.56.1-.67.21,0,0,.04.46.04.49,0,.2.01.4.02.6,0,.03,0,.06-.02.08Z"/>
        </g>
        <g>
          <path class="cls-11" d="M33.61,62.34H10.68c-1.88,0-3.4,1.52-3.4,3.4v12.26c0,1.88,1.52,3.4,3.4,3.4h.71c-.71,1.58-2.08,3.99-4.29,5.42,0,0,4.65-.32,9.5-5.42h17c1.88,0,3.4-1.52,3.4-3.4v-12.26c0-1.88-1.52-3.4-3.4-3.4Z"/>
          <g>
            <path class="cls-29" d="M18.2,71.43c0-.97-.78-1.75-1.75-1.75s-1.75.78-1.75,1.75.78,1.75,1.75,1.75,1.75-.78,1.75-1.75Z"/>
            <circle class="cls-29" cx="22.4" cy="71.43" r="1.75"/>
            <path class="cls-29" d="M30.09,71.43c0-.97-.78-1.75-1.75-1.75s-1.75.78-1.75,1.75.78,1.75,1.75,1.75,1.75-.78,1.75-1.75Z"/>
          </g>
        </g>
        <g>
          <rect class="cls-16" x="44.26" y=".5" width="43.62" height="49.11"/>
          <g>
            <path class="cls-2" d="M66.11,25.23c-8.09,0-14.65,6.56-14.65,14.65h29.31c0-8.09-6.56-14.65-14.65-14.65Z"/>
            <circle class="cls-2" cx="66.11" cy="16.58" r="6.36" transform="translate(25.49 71.31) rotate(-67.5)"/>
          </g>
        </g>
      </g>
      <g id="I-2" data-name="I">
        <g id="I-3" data-name="I">
          <g>
            <rect class="cls-18" x="319.37" y=".51" width="44.64" height="50.27"/>
            <g>
              <path class="cls-34" d="M341.13,18.04s0,0,0,0h0Z"/>
              <path class="cls-34" d="M357.27,15.35s-.03,0,0,0h0Z"/>
              <path class="cls-37" d="M358.84,24.34c-.05-1.98-.04-3.95-.03-5.93,0-.88.02-1.76.03-2.63,0-.2-1.59-.12-1.96-.12-.04,0-.18,0-.19-.06-.09-.8-.17-1.59-.24-2.39-.58.12-1.13.13-1.74.04-.02,0-.12-.02-.12-.06.04-.8.05-1.6.04-2.4,0,.03-.15,0-.43-.02-.32-.02-.65-.04-.97-.05-1.57-.07-3.26-.16-4.83.04-.01.94-.04,1.87-.12,2.81-.01.14-.36.19-.46.2-.66.05-1.32,0-1.98,0-.08.62,0,1.22-.01,1.86,0,.17-.34.24-.46.24h-1.81c.12.75.15,1.52.17,2.28,0,.16-.38.26-.56.24-.8,0-1.6-.02-2.4-.03-.03,0-.19,0-.19-.06,0-.65,0-1.31,0-1.96.02-.77-.25-.64-.96-.64-.42,0-.83,0-1.25-.02-.03,0-.11-.02-.12-.06-.06-.68-.21-1.37-.24-2.05-.02-.45.25-.34-.29-.34-.7,0-1.41-.01-2.11-.05-.03,0-.11-.02-.12-.06-.07-.66-.03-1.33.01-2,.01-.16.02-.31.04-.47-.01.12-.89.06-.96.06-1.57.01-3.15.08-4.72.03-.12.81-.13,1.62-.2,2.43-.01.14-.36.19-.46.2-.81.07-1.62.12-2.44.12-.02.71.02,1.41.11,2.11.02.17-.35.23-.46.24-.57.05-1.12,0-1.68-.03.13,2.51-.19,5.05-.21,7.56,0,.42,0,.84,0,1.25,0,.1-.03.15-.05.17.02,0,.05,0,.08,0h1.88s.19,0,.19.06c-.01.41-.02.83-.03,1.24-.01.43-.14.74.06.75.82.04,1.64.09,2.46.13.03,0,.12.02.12.06.02.74.04,1.48.06,2.21,0,.07-.02.11-.03.14.21,0,.42,0,.63,0,.63,0,1.27.02,1.9.03.03,0,.12.02.12.06.02.69.03,1.37.05,2.06,0,.4,1.77.19,2.21.17.04,0,.19,0,.19.06.01.52.02,1.05.03,1.57,0,.48.12.37.63.41.5.04.99.06,1.49.09.03,0,.12.02.12.06,0,.49.02.97.04,1.46.01.3,0,.65.03.65.64.02,1.28.05,1.92.07.03,0,.12.02.12.06.01.32.12,2.08-.02,2.06.7.13,1.39.25,2.09.38.04,0,.1.01.12.06.11.34.31,2.44.06,2.43.85.02,1.73.07,2.57-.02.05-.82.07-1.64,0-2.46-.02-.17.35-.23.46-.24.51-.01.99-.13,1.49-.21.05-.67.04-1.35-.01-2.02-.01-.19.41-.24.53-.24.57.02,1.15-.06,1.72-.15-.02-.6-.03-1.21.06-1.8.02-.15.35-.19.46-.2.63-.05,1.26-.1,1.89-.14.01-.73.02-1.46.03-2.19,0-.17.34-.23.46-.24.6-.02,1.21-.04,1.81-.04-.03-.73-.06-1.45-.09-2.18,0-.17.34-.23.46-.24.55-.03,1.1-.07,1.65-.11.02-.63.09-1.26.15-1.89.02-.16.42-.21.53-.2.56.04,1.25.17,1.83.09.05-.65.1-1.29.14-1.94.01-.18.33-.23.46-.24.43-.03.85-.05,1.28-.08ZM356.31,21.92c0,.22-.64.34-.65.17-.04-1.25-.02-2.5,0-3.75,0-.01,0-.02,0-.03-.01,0-.02,0-.04,0-.24,0-.49-.01-.73-.02-.39,0-.78-.02-1.17-.03-.04,0-.19,0-.19-.07-.02-.61-.01-1.22,0-1.83.02-.93-.79-.72-1.53-.7-.44.01.06-.31.27-.32.58-.02,1.15.03,1.73.05.04,0,.19,0,.19.07,0,.73-.05,1.46-.03,2.19.01.34-.31.28.04.29.11,0,.22,0,.33,0,.52.01,1.05.02,1.57.03.04,0,.19,0,.19.07-.02,1.28-.04,2.56,0,3.84Z"/>
              <path class="cls-43" d="M359.5,15.47s-.09-.06-.12-.06c-.41-.03-.82-.04-1.23-.04-.23,0-.46,0-.69,0-.05,0-.09,0-.12,0-.09-.81-.18-1.63-.25-2.44-.01-.11-.31-.05-.36-.04-1.59.45-1.47-.04-1.45-1.14,0-.39,0-.78,0-1.16,0-.05-.09-.06-.12-.06-2.28-.17-4.77-.35-7.03.01-.11.02-.38.08-.38.23-.01.91-.03,1.83-.11,2.73-.65.01-1.31-.04-1.96-.02-.11,0-.43.06-.46.2-.12.64-.05,1.25-.05,1.89h-1.85c-.1,0-.49.08-.46.24.14.75.17,1.51.2,2.27-.36,0-.71,0-1.07-.01-.23,0-.45,0-.68-.01-.04,0-.07,0-.09,0,0-.87,0-1.75.04-2.62,0-.07-.16-.06-.19-.06-.36,0-2.15.25-2.2-.36-.06-.68-.19-1.34-.22-2.03,0-.07-.15-.06-.19-.06-.74,0-1.48,0-2.22-.04-.31-.01-.08-2.1-.06-2.38,0-.1-.11-.1-.19-.1-2.08-.04-4.15.1-6.23,0-.12,0-.5.03-.53.2-.15.82-.15,1.65-.22,2.48-.79.06-1.59.11-2.38.08-.14,0-.52.04-.53.24-.03.72,0,1.42.08,2.13-.53,0-1.06-.05-1.6-.07-.13,0-.54.04-.53.24.13,1.95-.13,3.87-.17,5.81-.02,1.17-.03,2.33-.03,3.5,0,.07.16.06.19.06h2.07c-.31,0-.18.64-.19.96,0,.34-.02.68-.03,1.02,0,.04.09.06.12.06.88.05,1.75.1,2.63.14-.17,0-.04,1.99-.03,2.35,0,.07.15.06.19.06.36,0,.71,0,1.07,0,.33,0,1.35-.16,1.36.17.02.69.03,1.37.05,2.06,0,.05.09.06.12.06.41.05.82.05,1.23.05.25,0,.5,0,.75-.01.1,0,.2,0,.3,0,.01.63.02,1.26.04,1.89,0,.05.09.06.12.06.5.06.99.1,1.49.13.58.03.62.14.63.67.01.49.04.99.06,1.48,0,.04.09.06.12.06.34.01.68.02,1.02.04.29.01.9.07.9,0,.02.7.05,1.39.07,2.09,0,.05.09.06.12.06.7.13,1.39.25,2.09.38.1.02.07,2.16.06,2.43,0,.04.09.06.12.06,1.08.03,2.2.09,3.28-.08.12-.02.37-.08.38-.23.05-.81.08-1.63.02-2.44.52-.06,1.02-.18,1.54-.25.08-.01.37-.08.38-.19.06-.66.05-1.33.01-1.99.62-.03,1.25-.13,1.86-.22.11-.02.38-.08.38-.23-.02-.57-.04-1.16.03-1.73.63-.05,1.27-.09,1.9-.14.13,0,.46-.06.46-.24.01-.72.02-1.45.03-2.17.61-.02,1.22-.04,1.82-.04.12,0,.47-.07.46-.24-.03-.73-.06-1.46-.09-2.2.54-.03,1.09-.07,1.63-.12.13-.01.46-.06.46-.24.01-.59.07-1.18.13-1.77.7.06,1.46.13,2.09-.07.1-.03.28-.08.29-.21.05-.63.09-1.25.14-1.88l1.3-.08c.12,0,.46-.06.46-.24-.08-2.97-.04-5.93,0-8.9ZM357.11,24.66c-.05.65-.1,1.29-.14,1.94-.58.09-1.28-.05-1.83-.09-.11,0-.51.04-.53.2-.06.63-.12,1.26-.15,1.89-.55.04-1.1.08-1.65.11-.12,0-.47.07-.46.24.03.73.06,1.45.09,2.18-.6,0-1.21.03-1.81.04-.13,0-.46.07-.46.24-.01.73-.02,1.46-.03,2.19-.63.04-1.26.09-1.89.14-.1,0-.44.06-.46.2-.09.59-.08,1.2-.06,1.8-.57.09-1.15.17-1.72.15-.12,0-.55.04-.53.24.05.67.06,1.35.01,2.02-.49.09-.98.2-1.49.21-.11,0-.48.07-.46.24.07.81.05,1.64,0,2.46-.85.09-1.73.04-2.57.02.25,0,.05-2.09-.06-2.43-.02-.05-.08-.05-.12-.06-.7-.13-1.39-.25-2.09-.38.13.02.03-1.74.02-2.06,0-.04-.09-.06-.12-.06-.64-.02-1.28-.05-1.92-.07-.03,0-.01-.36-.03-.65-.02-.49-.04-.97-.04-1.46,0-.04-.09-.06-.12-.06-.5-.03-.99-.06-1.49-.09-.5-.04-.62.07-.63-.41-.01-.52-.02-1.05-.03-1.57,0-.07-.15-.06-.19-.06-.44.02-2.2.23-2.21-.17-.02-.69-.03-1.37-.05-2.06,0-.04-.09-.06-.12-.06-.63-.02-1.27-.03-1.9-.03-.21,0-.42,0-.63,0,.02-.02.04-.06.03-.14-.02-.74-.04-1.48-.06-2.21,0-.04-.09-.06-.12-.06-.82-.04-1.64-.09-2.46-.13-.2-.01-.07-.33-.06-.75.01-.41.02-.83.03-1.24,0-.07-.16-.06-.19-.06h-1.88s-.06,0-.08,0c.03-.03.05-.08.05-.17,0-.42,0-.84,0-1.25.02-2.52.34-5.05.21-7.56.56.03,1.11.07,1.68.03.11,0,.48-.07.46-.24-.09-.71-.12-1.4-.11-2.11.81,0,1.63-.05,2.44-.12.1,0,.45-.06.46-.2.07-.81.07-1.62.2-2.43,1.57.04,3.15-.02,4.72-.03.07,0,.95.07.96-.06-.01.16-.02.31-.04.47-.05.66-.08,1.33-.01,2,0,.05.09.06.12.06.7.04,1.41.05,2.11.05.55,0,.28-.11.29.34.03.68.18,1.37.24,2.05,0,.05.09.06.12.06.42.02.83.02,1.25.02.71,0,.98-.13.96.64-.02.65-.01,1.31,0,1.96,0,.07.15.06.19.06.8.02,1.6.03,2.4.03.18.03.56-.08.56-.24-.02-.76-.05-1.53-.17-2.28h1.81c.13,0,.46-.07.46-.24.01-.63-.07-1.23.01-1.86.66,0,1.32.06,1.98,0,.1,0,.44-.06.46-.2.08-.93.11-1.87.12-2.81,1.57-.2,3.26-.11,4.83-.04.32.01.65.03.97.05.28.02.43.05.43.02,0,.8,0,1.6-.04,2.4,0,.05.09.06.12.06.6.08,1.16.07,1.74-.04.07.8.16,1.59.24,2.39,0,.07.15.06.19.06.37,0,1.96-.09,1.96.12-.01.88-.02,1.76-.03,2.63-.02,1.98-.02,3.95.03,5.93-.43.03-.85.05-1.28.08-.13,0-.45.06-.46.24ZM357.27,15.35s-.02,0,0,0h0ZM341.13,18.04s0,0,0,0h0Z"/>
              <path class="cls-35" d="M356.12,18.01c-.52-.01-1.05-.02-1.57-.03-.11,0-.22,0-.33,0-.35,0-.03.05-.04-.29-.03-.73.02-1.46.03-2.19,0-.07-.15-.07-.19-.07-.58-.02-1.15-.07-1.73-.05-.21,0-.7.33-.27.32.74-.02,1.55-.23,1.53.7-.01.61-.02,1.22,0,1.83,0,.07.15.07.19.07.39,0,.78.02,1.17.03.24,0,.49.01.73.02.01,0,.03,0,.04,0,0,0,0,.02,0,.03-.02,1.25-.04,2.5,0,3.75,0,.16.66.04.65-.17-.04-1.28-.02-2.56,0-3.84,0-.07-.16-.07-.19-.07Z"/>
            </g>
          </g>
          <g>
            <rect class="cls-21" x="364.77" y=".5" width="44.78" height="50.43"/>
            <g>
              <polygon class="cls-32" points="389.43 16.45 386.62 10.13 383.82 16.45 389.43 16.45"/>
              <path class="cls-7" d="M383.82,16.46s.51-1.19,2.81-1.19c1.87,0,2.81,1.19,2.81,1.19v18.6s-1.07-.85-2.81-.85c-1.65,0-2.81.85-2.81.85v-18.6Z"/>
              <line class="cls-30" x1="388.19" y1="34.62" x2="388.19" y2="15.71"/>
              <line class="cls-30" x1="386.62" y1="34.21" x2="386.62" y2="15.3"/>
              <line class="cls-30" x1="385.14" y1="34.62" x2="385.14" y2="15.71"/>
              <path class="cls-30" d="M389.43,37.01s.34,3.78-2.81,3.78c-3.14,0-2.81-3.78-2.81-3.78,0,0,1.03-1.4,3.11-1.4s2.5,1.4,2.5,1.4Z"/>
              <path class="cls-31" d="M389.43,35.06v1.95s-2.8-1.95-5.61,0v-1.95s1.12-.85,2.81-.85,2.81.85,2.81.85Z"/>
              <path class="cls-33" d="M387.61,12.36s-1-.63-1.98,0l.99-2.23.99,2.23Z"/>
            </g>
          </g>
          <g>
            <rect class="cls-26" x="364.77" y="50.93" width="44.78" height="50.17"/>
            <g>
              <g>
                <path class="cls-19" d="M393.81,70.22c-.49-.04-.83.84-1.04,1.25-.15.29-.92,1.94-.94,2.13-.03.27.36.46.61.38.2-.06.89-1.82,1.04-2.15.27-.62.36-.91.57-1.49.47-1.28,1.65-2.78,3.19-2.3,2.08.64-.42,4.1-.85,5.17-1.44,3.52-.77,5.16.71,8.41.37.81.82,1.74,1.26,2.51.9,1.62,2.56,3.48,3.26,4.98.51,1.09.39,1.73-.84,2.03-3.93.97-8.74-.73-11.61-3.48-.9-.86-1.59-2.12-2.42-3.06,2.68-4.11,3.24-9.37,3.42-14.14.35.16.63.11.7-.3.17-.95-.05-2.58,0-3.65.08-1.59.4-3.18.47-4.77.68-1.08,2.29-.51,2.42.7,0,2.02-.15,4.06-.07,6.08.02.54.22,1.12.12,1.7Z"/>
                <path class="cls-44" d="M391.21,61.74h.12c-.07,1.59-.39,3.18-.47,4.77-.05,1.07.17,2.69,0,3.65-.08.41-.36.46-.7.3.05-1.25-.04-2.52,0-3.77,0-.04,0-.08,0-.12,0-.16,0-.31,0-.47.03-.79.16-3.69.58-4.19.13-.15.29-.18.48-.17Z"/>
                <path class="cls-19" d="M391.21,61.74c-.19-.02-.35.02-.48.17-.43.5-.55,3.4-.58,4.19-.3-1.07-.09-3.04-1.65-3.06.02-.02-.02-.1,0-.12s.17.02.24,0c-.18-.54.4-1.42-.12-1.77.03-.02.11-.29.24-.4.83-.71,2.42-.2,2.35.99Z"/>
                <path class="cls-44" d="M393.81,70.22c.06,0,.16.09.24.12-.21.58-.3.87-.57,1.49-.15.34-.84,2.09-1.04,2.15-.25.08-.64-.1-.61-.38.02-.19.79-1.83.94-2.13.22-.42.55-1.3,1.04-1.25Z"/>
                <path class="cls-44" d="M388.62,61.15c.52.35-.06,1.23.12,1.77-.07.01-.22-.02-.24,0-.16-.05-.33-.34-.47-.35,0-.34.03-1-.12-1.3.15-.05.63-.07.71-.12Z"/>
                <path class="cls-39" d="M390.15,66.69v-.12s0,.08,0,.12Z"/>
              </g>
              <g>
                <path class="cls-4" d="M385.32,60.68c-.87.12-.89,1.67-.94,2.42-.17,2.46-.1,4.96-.24,7.43.36.97.76.22.83-.48.24-2.38.03-5.01.24-7.42.06-.73.43-1.25.47-1.95.37-.05.53-.12.95-.07.35.05,1.14.34,1.29.66.14.3.11.95.12,1.3-.18-.02-.94.32-1.11.48-.82.81-.49,3.71-.53,4.89-.02.5-.41,3.22-.13,3.42.26.19.69-.04.71-.37,0-1.18.18-2.36.24-3.53.04-.84-.24-3.39.35-3.89.28-.24.5-.09.94-.53,1.56.02,1.35,1.99,1.65,3.06,0,.16,0,.31,0,.47v.12c-.04,1.25.05,2.52,0,3.77-.18,4.77-.74,10.03-3.42,14.14-2.62,4.02-7.34,6.6-12.2,6.25-1.06-.08-2.84-.2-2.62-1.57.16-.98,2.32-3.64,2.97-4.69,1.01-1.64,3.18-5.83,3.46-7.62.13-.82-.3-2.92-.5-3.8-.27-1.17-1.38-3.48-1.07-4.48.26-.84,1.65-1.23,2.25-.47l1,1.54c.21-1.22.1-2.48.11-3.72,0-.28.12-.54.13-.81.01-1.45-.85-4.5,1.59-4.31.36.03.38.18.53.24-.36.41-.44,1.04-.48,1.59-.18,2.5.06,5.26-.12,7.79.05.66.75.52.84-.12.36-2.7-.31-6.12.34-8.85.02-.16-.2-.31-.22-.41-.27-1.3,2.11-1.66,2.59-.47ZM379.74,69.88c-.42.13-.28.99-.33,1.33-.09.6-.77,3.5-.68,3.77s.45.25.65.09c.23-.19.82-3.46.86-3.97.02-.28.13-1.11-.17-1.21-.11-.02-.22-.03-.32,0Z"/>
                <path class="cls-1" d="M385.32,60.68c.11-.02.24.01.35,0-.04.69-.41,1.22-.47,1.95-.21,2.41,0,5.04-.24,7.42-.07.7-.47,1.45-.83.48.14-2.47.07-4.97.24-7.43.05-.74.07-2.3.94-2.42Z"/>
                <path class="cls-1" d="M382.73,61.15c.02.1.24.24.22.41-.65,2.73.02,6.15-.34,8.85-.08.64-.79.78-.84.12.18-2.53-.06-5.29.12-7.79.04-.54.12-1.17.48-1.59.08.03.25-.02.35,0Z"/>
                <path class="cls-1" d="M388.5,62.92s.02.1,0,.12c-.44.45-.66.3-.94.53-.59.5-.31,3.05-.35,3.89-.06,1.17-.25,2.35-.24,3.53-.02.32-.45.55-.71.37-.28-.2.11-2.92.13-3.42.04-1.18-.28-4.08.53-4.89.17-.16.93-.5,1.11-.48.14.01.31.31.47.35Z"/>
                <path class="cls-1" d="M379.74,69.88c.11-.03.22-.03.32,0,.3.1.19.93.17,1.21-.04.51-.62,3.79-.86,3.97-.2.16-.56.18-.65-.09s.59-3.16.68-3.77c.05-.33-.09-1.19.33-1.33Z"/>
              </g>
            </g>
          </g>
        </g>
      </g>
      <g>
        <rect class="cls-15" x="45.84" y="842" width="43.61" height="42.71"/>
        <path class="cls-27" d="M71.69,859.05c8.6-8.33-3.94-13.88-4.18-1.85.24-12.03-12.51-7-4.25,1.68-8.26-8.68-13.75,3.97-1.83,4.22-11.92-.24-6.94,12.62,1.66,4.29-8.6,8.33,3.94,13.88,4.18,1.85-.24,12.03,12.51,7,4.25-1.68,8.26,8.68,13.75-3.97,1.83-4.22,11.92.24,6.94-12.62-1.66-4.29Z"/>
        <ellipse class="cls-42" cx="68.04" cy="863.86" rx="4.69" ry="4.73"/>
      </g>
      <g>
        <polygon class="cls-25" points="365.53 884.9 365.53 879.52 365.49 879.52 365.49 842.18 320.97 842.18 320.97 884.9 365.53 884.9"/>
        <g>
          <g>
            <rect class="cls-28" x="321.18" y="842.18" width="9.11" height="8.57"/>
            <rect class="cls-28" x="339.39" y="842.18" width="9.11" height="8.57"/>
            <rect class="cls-28" x="330.28" y="850.74" width="9.11" height="8.96"/>
            <rect class="cls-28" x="321.18" y="859.7" width="9.11" height="8.96"/>
            <rect class="cls-28" x="339.39" y="859.7" width="9.11" height="8.96"/>
            <rect class="cls-28" x="330.28" y="868.66" width="9.11" height="8.96"/>
            <rect class="cls-28" x="357.16" y="842.18" width="8.34" height="8.57"/>
            <rect class="cls-28" x="348.05" y="850.74" width="9.11" height="8.96"/>
            <rect class="cls-28" x="357.16" y="859.7" width="8.34" height="8.96"/>
            <rect class="cls-28" x="348.05" y="868.66" width="9.11" height="8.96"/>
          </g>
          <g>
            <rect class="cls-28" x="321.04" y="877.61" width="9.11" height="7.29"/>
            <rect class="cls-28" x="339.25" y="877.61" width="9.11" height="7.29"/>
            <polygon class="cls-28" points="365.53 884.9 365.53 879.52 365.49 879.52 365.49 877.61 357.02 877.61 357.02 884.9 365.53 884.9"/>
          </g>
        </g>
      </g>
      <g>
        <g>
          <rect class="cls-23" x="366.02" y="842.55" width="43.68" height="42.35"/>
          <path class="cls-22" d="M393.3,876v2.15s-11.15-.04-11.15-.04v-2.11s2.56,0,2.56,0v-.42s.84,0,.84,0v-19.82h-4.27s-.44,0-.44,0v.44s-.44,0-.44,0v.44s-.43,0-.43,0v.84s-.43,0-.43,0v.88s-.44,0-.44,0v1.27s-.45,0-.45,0v.44s-1.75.04-1.71,0,0-7.33,0-7.33h2.17s0,.43,0,.43h.44s0,.44,0,.44h16.34v-.43s.43,0,.43,0v-.43s2.15,0,2.15,0l.02,7.32h-1.74s0-.43,0-.43h-.43s0-1.29,0-1.29h-.43s0-.86,0-.86h-.44s0-.86,0-.86h-.43s0-.43,0-.43h-.43s0-.43,0-.43h-4.75s0,19.8,0,19.8h.87s0,.43,0,.43h2.56Z"/>
        </g>
        <g>
          <rect class="cls-13" x="366.01" y="797.5" width="43.68" height="44.34"/>
          <g>
            <path class="cls-9" d="M400.53,818.03h0c0,.08,0,.16,0,.24-.13,7.21-6,13.02-13.24,13.02s-13.11-5.81-13.24-13.02c0-.08,0-.16,0-.24h0c0-7.32,5.93-13.26,13.24-13.26h0c7.31,0,13.24,5.94,13.24,13.26Z"/>
            <path class="cls-6" d="M387.29,804.96c0,7.22-5.84,13.07-13.05,13.07-.06,0-.12,0-.19,0,0-7.32,5.93-13.25,13.24-13.26,0,.06,0,.12,0,.19Z"/>
            <path class="cls-6" d="M400.53,818.03c-.06,0-.12,0-.19,0-7.21,0-13.05-5.85-13.05-13.07,0-.06,0-.12,0-.19,7.31,0,13.24,5.94,13.24,13.26Z"/>
            <path class="cls-6" d="M387.29,831.29c-7.23,0-13.11-5.81-13.24-13.02.06,0,.12,0,.18,0,7.19,0,13.03,5.83,13.05,13.03Z"/>
            <path class="cls-6" d="M400.53,818.27c-.13,7.21-6,13.02-13.24,13.02.03-7.2,5.86-13.03,13.05-13.03.06,0,.12,0,.18,0Z"/>
          </g>
        </g>
      </g>
      <g>
        <rect class="cls-3" x=".96" y="841.68" width="44.32" height="43.04"/>
        <g>
          <ellipse class="cls-17" cx="23.12" cy="864.89" rx="13.15" ry="13.1"/>
          <path class="cls-5" d="M14.8,867.12s1.48,5.76,8.18,5.9c3.98.09,8.15-2.64,8.46-6.55"/>
          <path class="cls-5" d="M32.64,866.06s-1.07.87-2.18-.36"/>
          <path d="M21.62,861.38c.04,1.5-.63,2.73-1.49,2.76-.86.03-1.58-1.16-1.62-2.66-.04-1.5.63-2.73,1.49-2.76.86-.03,1.58,1.16,1.62,2.66Z"/>
          <path d="M24.84,861.5c.04,1.5.76,2.69,1.62,2.66.86-.03,1.52-1.27,1.49-2.76-.04-1.5-.76-2.69-1.62-2.66-.86.03-1.52,1.27-1.49,2.76Z"/>
          <path class="cls-5" d="M15.48,866.04s-.35,1.57-2.07,1.2"/>
        </g>
      </g>
      <g>
        <rect class="cls-8" x=".97" y="797.4" width="44.34" height="44.6"/>
        <g>
          <path class="cls-34" d="M20.67,807.07c2.62,0,5.23-.03,7.85-.04.26,0,2.4-.22,2.43.17.1,1.24.11,2.48.12,3.73.02,2.05.26,4.09.28,6.15,0,.12-.18.21-.34.23.16-.02.35-.11.35-.23-.02-2.05-.26-4.09-.28-6.15-.01-1.24-.03-2.49-.12-3.73-.03-.4-2.17-.17-2.43-.17-2.62.01-5.23.04-7.85.04-1.31,0-2.64-.06-3.95.02,1.31-.07,2.63-.01,3.94-.01Z"/>
          <path class="cls-34" d="M29.09,817.29s.05,0,.08,0c-.03,0-.05,0-.08,0Z"/>
          <path class="cls-34" d="M16.29,817.57s.07,0,.11-.02c0,0,0,0-.01,0-.03,0-.07.01-.1.02Z"/>
          <path class="cls-34" d="M20.5,823.19c-.07,0-.14.01-.2.02.07,0,.14-.01.2-.02Z"/>
          <path class="cls-34" d="M16.46,821.85c.12-.01.25-.02.37-.03-.12,0-.25.02-.37.03Z"/>
          <path class="cls-34" d="M16.92,821.81c.11,0,.23-.01.34-.01-.11,0-.23,0-.34.01Z"/>
          <path class="cls-34" d="M14.48,805.24c.68-.03,1.35-.05,2.03-.07-.68.02-1.35.04-2.03.07Z"/>
          <path class="cls-34" d="M20.26,823.2c-.27.02-.54.03-.82.04.27-.02.54-.03.82-.04Z"/>
          <path class="cls-34" d="M31,817.31s-.02,0-.03,0c.01,0,.02,0,.03,0Z"/>
          <path class="cls-34" d="M16.67,805.16c.71-.02,1.42-.04,2.13-.05-.71.02-1.42.03-2.13.05Z"/>
          <path class="cls-34" d="M18.85,805.11c1.49-.03,2.98-.05,4.48-.06-1.49.01-2.99.03-4.48.06Z"/>
          <path class="cls-34" d="M14.66,830.61c-.4-8.45-.39-16.91-.39-25.37,0,0,0,0-.01,0,0,8.46,0,16.92.39,25.37,4.27.22,8.56.24,12.84.05.09,0,.18,0,.27-.02-.09,0-.17.01-.26.02-4.27.19-8.56.17-12.84-.05Z"/>
          <path class="cls-34" d="M23.56,805.04c.68,0,1.35,0,2.03-.01-.68,0-1.35,0-2.03.01Z"/>
          <path class="cls-34" d="M24.79,828.8c.14-.01.28-.02.42-.02-.14,0-.28.01-.42.02Z"/>
          <path class="cls-34" d="M22.76,828.78c-.35-.02-.71-.02-1.07-.01.35-.01.71,0,1.05.01.2.01.46,0,.52.23.04.19-.2.28-.32.32-.1.03-.22.05-.33.05.12,0,.24-.02.35-.05.13-.04.37-.13.32-.32-.05-.24-.32-.22-.52-.23Z"/>
          <path class="cls-34" d="M26.37,828.78c-.35-.02-.71-.02-1.07-.01.35-.01.71,0,1.05.01.2.01.46,0,.52.23.04.19-.2.28-.32.32-.1.03-.22.05-.33.05.12,0,.24-.02.35-.05.13-.04.37-.13.32-.32-.06-.24-.32-.22-.52-.23Z"/>
          <path class="cls-34" d="M21.18,828.8c.14-.01.29-.02.43-.03-.14,0-.29.01-.43.03Z"/>
          <path class="cls-34" d="M17.71,821.79h0c-.14,0-.28,0-.42,0,.14,0,.28,0,.42,0Z"/>
          <path class="cls-34" d="M19.43,823.25c0,.54.01,1.08.06,1.62.01.14-.22.21-.32.22-.21.02-.42.04-.63.06.21-.01.43-.03.64-.06.11-.01.33-.08.32-.22-.04-.54-.05-1.08-.06-1.62,0,0,0,0-.01,0Z"/>
          <path class="cls-34" d="M21.04,821.73s.16,0,.17.08c.05.38.04.76.01,1.13,0,.09-.18.16-.25.17-.15.03-.3.05-.46.07.16-.02.32-.04.47-.07.07-.01.24-.08.25-.17.03-.38.03-.76-.01-1.13,0-.07-.12-.07-.17-.08-.39-.03-.78-.03-1.17-.02-.02,0-.04,0-.06,0,.01,0,.03,0,.04,0,.39-.02.78-.02,1.17.02Z"/>
          <path class="cls-34" d="M19.23,819.93s.16.01.17.08c.06.52.05,1.05.05,1.58,0,.15.03.18.1.17-.06,0-.09-.03-.09-.18,0-.53.01-1.06-.05-1.58,0-.07-.12-.08-.17-.08-.39,0-.79,0-1.18,0,0,0,0,0-.01,0,.39-.02.79-.02,1.18,0Z"/>
          <path class="cls-43" d="M33.89,816.73c-.12-4.03-.41-8.05-.42-12.07,0-.04,0-.08-.02-.11,0-.1-.07-.17-.27-.19-.08-.01-.16-.02-.25,0-6.38-.06-12.79-.05-19.17.2-.19,0-.61.16-.61.41,0,8.72-.01,17.43.4,26.14,0,.14.24.21.35.21,4.56.25,9.13.26,13.69.05,3-.13,5.07-1.98,5.84-4.82.85-3.11.55-6.63.45-9.82ZM32.63,825.31c-.19,1.31-.55,2.66-1.38,3.72-.86,1.11-2.15,1.52-3.5,1.62-.09,0-.18.01-.27.02-4.27.19-8.56.17-12.84-.05-.4-8.45-.39-16.91-.39-25.37,0,0,0,0,.01,0h0c.07,0,.14,0,.21,0,.68-.03,1.35-.05,2.03-.07.05,0,.1,0,.16,0,.71-.02,1.42-.04,2.13-.05.02,0,.04,0,.06,0,1.49-.03,2.98-.05,4.48-.06.08,0,.15,0,.23,0,.68,0,1.35,0,2.03-.01,2.27,0,4.54,0,6.81.03.02,3.6.25,7.19.38,10.79.12,3.12.3,6.36-.14,9.46Z"/>
          <path class="cls-24" d="M16.42,807.41c.14,3.29.15,6.57.24,9.86,4.7-.08,9.4-.29,14.1-.26-.03-1.86-.25-3.72-.27-5.59-.01-1.24,0-2.49-.1-3.73-.04-.5-.33-.36-.74-.36-.23,0-.46,0-.68,0-.57,0-1.14,0-1.71,0-2.39.01-4.78.04-7.16.04-1.21,0-2.46-.06-3.68.02ZM17.51,812.62c0-1.35-.03-2.71-.06-4.06,0-.12.27-.16.27-.02.03,1.35.06,2.71.06,4.06,0,.12-.27.16-.27.02ZM27.28,815.87h2.18c.15-.7-.05-1.4-.02-2.11,0-.08.27-.13.26-.04-.04.74.18,1.47,0,2.2-.02.06-.13.09-.19.09h-2.35c-.18,0,.02-.13.11-.13Z"/>
          <path class="cls-43" d="M31.34,817.08c-.02-2.05-.26-4.09-.28-6.15-.01-1.24-.03-2.49-.12-3.73-.03-.4-2.17-.17-2.43-.17-2.62.01-5.23.04-7.85.04-1.3,0-2.63-.06-3.94.01-.18.01-.37.02-.55.04-.11.01-.34.08-.33.23.14,3.38.16,6.76.25,10.13,0,.06.08.09.19.08.03,0,.07,0,.1-.02,0,0,0,0,.01,0,0,0,0,0,0,0,4.23-.07,8.46-.25,12.69-.26.03,0,.05,0,.08,0,.55,0,1.11,0,1.66,0,.03.01.08.02.13.01.01,0,.02,0,.03,0,0,0,0,0,0,0,.16-.02.34-.11.34-.23ZM27.26,807.35c.57,0,1.14,0,1.71,0,.23,0,.46,0,.68,0,.4,0,.7-.14.74.36.1,1.24.09,2.49.1,3.73.02,1.87.24,3.72.27,5.59-4.7-.03-9.4.18-14.1.26-.09-3.29-.1-6.58-.24-9.86,1.22-.08,2.46-.02,3.68-.02,2.39,0,4.78-.03,7.16-.04Z"/>
          <path class="cls-45" d="M18.34,824.86c.19,0,.38-.02.57-.03-.04-.54-.04-1.08-.05-1.62,0-.14.21-.21.32-.22.49-.06,1-.03,1.49-.09.03-.3.09-.87-.15-.87-.49-.01-.97.02-1.46.03-.04,0-.17-.01-.17-.08,0-.5.01-1.01-.02-1.51-.01-.2.16-.21.01-.21-.11,0-.21,0-.32,0-.11,0-.22,0-.34,0,0,.55.05,1.09.06,1.64,0,.16-.3.25-.47.23-.38,0-.75,0-1.13.02,0,.31-.01.95-.02.95.19,0,.38,0,.58,0,.28,0,.56-.01.83-.02.04,0,.17.01.17.08.01.37.02.74.03,1.11,0,.07-.04.63.07.63Z"/>
          <path class="cls-43" d="M19.49,824.87c-.04-.54-.05-1.08-.06-1.62,0,0,0,0,.01,0h0c.27-.02.54-.03.82-.04.01,0,.02,0,.03,0,.07,0,.14-.01.2-.02,0,0,.01,0,.02,0,.15-.02.31-.04.46-.07.07-.01.24-.08.25-.17.03-.38.03-.76-.01-1.13,0-.07-.12-.07-.17-.08-.39-.03-.78-.03-1.17-.02-.02,0-.03,0-.04,0-.13.01-.21.04-.27.05-.07,0-.1-.02-.1-.17,0-.53.01-1.06-.05-1.58,0-.07-.12-.08-.17-.08-.39,0-.79,0-1.18,0-.1,0-.38.05-.38.19-.03.55.03,1.11.05,1.66,0,0,0,0-.01,0h0c-.14,0-.28,0-.42,0-.01,0-.02,0-.03,0-.11,0-.23,0-.34.01-.03,0-.05,0-.08,0-.12,0-.25.02-.37.03,0,0,0,0,0,0-.08,0-.32.07-.32.19-.02.42-.01.84,0,1.26,0,.07.13.08.17.08.31.01.61,0,.92,0,.12,0,.24,0,.37-.01.04,0,.07,0,.09,0,.02.58.03,1.15.03,1.73,0,.07.13.08.17.08.21,0,.43,0,.64,0,.21-.01.42-.03.63-.06.11-.01.33-.08.32-.22ZM18.25,823.12c0-.07-.13-.08-.17-.08-.28.01-.56.02-.83.02-.19,0-.38,0-.58,0,.01,0,.02-.64.02-.95.38-.02.75-.02,1.13-.02.16.03.47-.07.47-.23-.01-.55-.07-1.09-.06-1.64.11,0,.22,0,.34,0,.11,0,.21,0,.32,0,.15,0-.03.01-.01.21.04.5.03,1.01.02,1.51,0,.07.13.08.17.08.49,0,.97-.04,1.46-.03.25,0,.18.58.15.87-.49.07-.99.04-1.49.09-.12.01-.32.08-.32.22,0,.54.01,1.08.05,1.62-.19.02-.38.03-.57.03-.11,0-.07-.56-.07-.63,0-.37-.02-.74-.03-1.11Z"/>
          <path class="cls-38" d="M31.05,820.74c-.2-.54-.52-.74-1.13-.71-.52.05-.86.55-.88,1.18-.02.56.59,1.13,1.28.97.78-.18.93-.95.74-1.44Z"/>
          <path class="cls-40" d="M29.24,823.6c-.2-.54-.52-.74-1.13-.71-.52.05-.86.55-.88,1.18-.02.56.59,1.13,1.28.97.78-.18.93-.95.74-1.44Z"/>
          <path class="cls-43" d="M26.87,829.01c-.05-.24-.32-.22-.52-.23-.35-.02-.7-.03-1.05-.01-.03,0-.06,0-.09,0-.14,0-.28.01-.42.02-.17.01-.35.03-.52.05-.02,0-.04,0-.07.01-.18.05-.31.11-.33.31-.03.27.42.22.56.22.39,0,.79,0,1.18-.01.18,0,.4.01.6,0,.12,0,.23-.02.33-.05.13-.04.37-.13.32-.32Z"/>
          <path class="cls-43" d="M23.26,829.01c-.05-.24-.32-.22-.52-.23-.35-.02-.7-.03-1.05-.01-.03,0-.05,0-.08,0-.14,0-.29.01-.43.03-.17.01-.35.03-.52.05-.02,0-.04,0-.07.01-.17.05-.31.11-.33.31-.03.27.42.22.56.22.39,0,.79,0,1.18-.01.18,0,.4.01.6,0,.12,0,.23-.02.33-.05.13-.04.37-.13.32-.32Z"/>
          <path class="cls-43" d="M29.53,816c.05,0,.17-.02.19-.09.18-.73-.04-1.46,0-2.2,0-.1-.26-.04-.26.04-.04.71.16,1.41.02,2.11h-2.18c-.09,0-.29.13-.11.13h2.35Z"/>
          <path class="cls-43" d="M17.45,808.56c.03,1.35.06,2.71.06,4.06,0,.14.27.1.27-.02,0-1.35-.03-2.71-.06-4.06,0-.14-.27-.1-.27.02Z"/>
          <path class="cls-20" d="M32.39,805.06c-2.27-.02-4.54-.03-6.81-.03-.68,0-1.35,0-2.03.01-.08,0-.15,0-.23,0-1.49.01-2.99.03-4.48.06-.02,0-.04,0-.06,0-.71.02-1.42.03-2.13.05-.05,0-.1,0-.16,0-.68.02-1.35.04-2.03.07-.07,0-.14,0-.21,0h0c0,8.46,0,16.92.39,25.37,4.27.22,8.56.24,12.84.05.09,0,.17,0,.26-.02,1.34-.1,2.63-.51,3.5-1.62.83-1.06,1.19-2.41,1.38-3.72.44-3.11.26-6.34.14-9.46-.14-3.59-.36-7.19-.38-10.79ZM29.03,821.21c.03-.63.37-1.13.88-1.18.61-.03.93.17,1.13.71.2.49.05,1.26-.74,1.44-.69.16-1.3-.41-1.28-.97ZM27.23,824.07c.03-.63.37-1.13.88-1.18.61-.03.93.17,1.13.71.2.49.05,1.26-.74,1.44-.69.16-1.3-.41-1.28-.97ZM20.68,807.07c2.62,0,5.23-.03,7.85-.04.26,0,2.4-.22,2.43.17.1,1.24.11,2.48.12,3.73.02,2.05.26,4.09.28,6.15,0,.12-.19.21-.35.23,0,0,0,0,0,0-.01,0-.02,0-.03,0-.05,0-.1,0-.13-.01-.55,0-1.11,0-1.66,0-.03,0-.05,0-.08,0-4.23.02-8.46.19-12.69.26,0,0,0,0,0,0-.04,0-.07.01-.11.02-.1,0-.18-.02-.19-.08-.09-3.38-.1-6.76-.25-10.13,0-.14.22-.22.33-.23.18-.02.37-.03.55-.04,1.31-.07,2.64-.01,3.95-.02ZM19.18,825.09c-.21.03-.43.05-.64.06-.21.01-.42.02-.64,0-.04,0-.17-.01-.17-.08,0-.58-.02-1.15-.03-1.73-.02,0-.05,0-.09,0-.12,0-.24,0-.37.01-.31,0-.61.01-.92,0-.04,0-.17,0-.17-.08-.02-.42-.03-.84,0-1.26,0-.11.24-.18.32-.19,0,0,0,0,0,0,.12-.01.25-.02.37-.03.03,0,.05,0,.08,0,.11,0,.23-.01.34-.01.01,0,.02,0,.03,0,.14,0,.28,0,.42,0,0,0,0,0,.01,0-.02-.55-.08-1.11-.05-1.66,0-.14.28-.18.38-.19,0,0,0,0,.01,0,.39-.02.79-.02,1.18,0,.05,0,.16.01.17.08.06.52.05,1.05.05,1.58,0,.14.02.18.09.18.06,0,.14-.03.27-.05.02,0,.04,0,.06,0,.39-.01.78-.02,1.17.02.05,0,.16,0,.17.08.05.38.04.76.01,1.13,0,.09-.18.16-.25.17-.16.03-.31.05-.47.07,0,0-.01,0-.02,0-.07,0-.14.01-.2.02-.01,0-.02,0-.03,0-.27.02-.54.03-.82.04h0c0,.54.01,1.08.06,1.62.01.14-.22.21-.32.22ZM22.95,829.33c-.11.03-.23.05-.35.05-.2,0-.42,0-.6,0-.39,0-.79.01-1.18.01-.14,0-.59.06-.56-.22.02-.2.16-.25.33-.31.03,0,.05-.01.07-.01.17-.02.34-.04.52-.05.14-.01.29-.02.43-.03.03,0,.05,0,.08,0,.36-.01.72-.01,1.07.01.2.01.46,0,.52.23.04.19-.2.28-.32.32ZM26.56,829.33c-.11.03-.23.05-.35.05-.2,0-.42,0-.6,0-.39,0-.79.01-1.18.01-.14,0-.59.06-.56-.22.02-.2.16-.25.33-.31.03,0,.05-.01.07-.01.17-.02.34-.04.52-.05.14-.01.28-.02.42-.02.03,0,.06,0,.09,0,.36-.01.72-.01,1.07.01.2.01.46,0,.52.23.04.19-.2.28-.32.32Z"/>
        </g>
      </g>
    </g>
  </g>
</svg>