<?xml version="1.0" encoding="UTF-8"?>
<svg id="Capa_2" data-name="Capa 2" xmlns="http://www.w3.org/2000/svg" viewBox="0 0 37.77 51.38">
  <defs>
    <style>
      .cls-1 {
        fill: #093368;
      }

      .cls-2 {
        fill: #d2a969;
      }

      .cls-3 {
        fill: #fff;
      }

      .cls-4 {
        fill: #e7cea1;
      }

      .cls-5 {
        fill: #2a291d;
      }

      .cls-6 {
        fill: #db1c53;
      }

      .cls-7 {
        fill: #f277b0;
        stroke: #1d1d1b;
        stroke-width: .53px;
      }

      .cls-7, .cls-8 {
        stroke-miterlimit: 10;
      }

      .cls-9 {
        fill: #396;
      }

      .cls-10 {
        fill: #39c;
      }

      .cls-11 {
        font-family: Degular-Black, Degular;
        font-size: 15.38px;
        font-weight: 800;
      }

      .cls-12 {
        fill: #daa22a;
      }

      .cls-8 {
        fill: none;
        stroke: #150f08;
        stroke-width: .79px;
      }

      .cls-13 {
        fill: #301d12;
      }

      .cls-14 {
        fill: #f93;
      }

      .cls-15 {
        fill: #150f08;
      }

      .cls-16 {
        fill: #835d2f;
      }
    </style>
  </defs>
  <g id="Capa_2-2" data-name="Capa 2">
    <g>
      <g>
        <g>
          <rect class="cls-8" x=".4" y=".4" width="36.74" height="36.78"/>
          <rect class="cls-9" x=".44" y="12.01" width="14.43" height="16.31"/>
          <rect class="cls-10" x=".44" y=".44" width="23.68" height="14"/>
          <rect class="cls-9" x="24.12" y=".44" width="12.98" height="13.44"/>
          <rect class="cls-3" x=".44" y="28.18" width="36.64" height="8.96"/>
          <rect class="cls-10" x="27.58" y="8.44" width="9.52" height="22.12"/>
          <path class="cls-7" d="M37.08,14.43c-.04-.46-.27-1.81-.44-2.21-.23-.55-2.6-3.22-3.18-3.91-.53-.63-1.22-1.11-1.35-2.03-.08-.53.3-1.32-.02-1.77-.19-.27-.9-.45-1.2-.64-.71-.45-.82-1.22-1.33-1.6-.44-.33-3.77-1.75-4.32-1.83-1.16-.16-1.92,1.13-2.63,1.78-.47.44-1.46,1.11-1.78,1.56-.76,1.08-1.21,3.17-1.94,4.37-.55.4-1.17.58-1.46,1.22-.13.28-.13.75-.31.98-.45.56-1.5.45-2.2.57-1.78.29-2.12.51-3.63,1.18-.63.28-1.33.29-1.98.49-.81.24-1.23.47-2.22.45-.78-.02-1.84-.62-2.64-.36-.6.2-.61,1.05-1.34,1.08-.44.02-.4-.33-.77-.57-1.51-.99-1.51-2.38-1.9-1.1l.95,2.79c1.18,1.17-1.15,1.55.16,2.58.71.56,2.38,1.84,2.01,2.76-.11.28-1.62.53-.96,1.23.13.14,1.99.77,2.29.84.92.22,2.4-.02,2.86.88.34.67.14,1.04.96,1.57,1.14.73,2.33.91,3.2,2.1.29.4.35.65.35.87h19c-.46-.62-.85-1.25-.98-1.91.33-1.11,1.52-2.11,1.96-3.1.37-.83.43-1.94.86-2.91.63-1.41,1.27-1.98,2.65-2.85.35-.22.82-.4,1.19-.61.1-.63.18-1.26.12-1.9Z"/>
        </g>
        <path class="cls-5" d="M37.14,29.62c.04-.49-.43-1.01-.61-1.46-.34-.82-1.12-1.71-1.85-2.27-.46-.36-1-.66-1.49-.97-1.05-.68-2.25-1.28-3.12-2.16-.36-.37-.28-.97-.28-1.44,0-.27-.01-.53-.04-.8-.06-.27-.14-.54-.21-.82,0-.02,0-.03,0-.05-.01-.03-.03-.05-.04-.08-.19-.53-.4-1.35-.93-1.69-.06-.04-.11-.09-.16-.13-.07-.04-.13-.1-.18-.16-.04-.03-.09-.05-.13-.08-.61-.39-1.09-.93-1.38-1.55-.49-1.04-.96-1.96-.97-3.11,0-.69-.02-1.38.02-2.07.03-.45-.06-1.47.32-1.81.26-.23.74-.23,1.07-.22.23,0,.46.01.69.03.24.02.53.12.64-.16.03-.08.03-.16.02-.24,0-.15-.02-.3-.09-.43-.06-.1-.15-.18-.24-.25-.2-.17-.39-.34-.61-.48-.83-.56-1.65-1.12-2.48-1.68,0,0,2.02-.95,1.32-2.06-.49-.77-1.6-1.89-2.71-2.53-.51-.21-1.01-.33-1.56-.42-.53-.08-.99-.08-1.53-.06-.48.02-.96.03-1.44.06-1.7.08-3.4.17-5.09.27-.55.1-1.09.25-1.53.6-.1.08-.21.13-.33.15-2.07,1.28-6.15,4.01-6.15,5.57,0,2.09.7,2.94.7,2.94l1.08.49-.84,2s0,.76.98.55c.98-.21,1.87-.73,1.87-.73,0,0-.23,2.47-1.69,3.43-1.45.96-1.41,3.13-1.41,3.13,0,0,.62,2.03-.23,2.49-.85.46-2.7,2.09-2.7,2.09,0,0-.35.71-.4,1.25-.02.24-.26.49-.41.67-.28.35-.58.69-.89,1.02-.3.32-1.7,1.47-1.71,1.71v9.36h35.76v-.03h.93s0-.06,0-.09c-.1-2.44.01-4.92.01-7.36v-.4Z"/>
        <g>
          <path class="cls-15" d="M20.67,6.48h.04s-.01,0-.04,0Z"/>
          <path class="cls-1" d="M16.94,36.6c-.72-.73-1.11-.86-2.01-1.34-.92-.49-1.16-1.01-1.84-1.63-.68-.62-1.39-.88-1.59-1.84-.2-.94.32-1.74-.22-2.65-.31-.51-.82-.91-1.07-1.45-.26-.56-.21-1.01-.33-1.56-.06-.29-.25-.33-.32-.6l-.07.06s0-.08-.03-.11c-.13-.16-.95-.68-1.16-.79-.85-.41-1.46-.41-2.39-.2-1.18.26-2.71,1.14-3.54,1.92-.03.02-.14.15-.11.17.23-.01.47-.01.7,0,1.34.07,2.32.35,3.24,1.26,1.65,1.64,1.39,3.96,1.39,6.02,0,1.04-.09,2.19-.03,3.23,0,.05.02.3.04.39h10.94c-.6-.2-1.18-.48-1.59-.9Z"/>
          <path class="cls-1" d="M.76,37.39v.11h6.33l-.02-1.51c.01-.53.04-1.1.04-1.64,0-.18-.06-1.22-.01-1.28.01-.02.07,0,.06-.02-.11-.02-.04-.06-.05-.15-.02-.25-.04-.32.01-.56,0-.02-.07-.01-.07-.03,0-.05.06-.16.06-.23,0-1.67-.26-3.16-1.72-4.29-.18-.14-.61-.43-.87-.52-.36-.13-1.16-.24-1.57-.25-.37,0-1.06.03-1.37.2-.09.05-.26.21-.32.29-.14.17-.22.37-.33.57-.01.03-.12.03-.07.15l-.1-.03v.1c.01.17,0,.34.01.52,0,.03,0,.06-.01.09v.08s.12.01,0,.05h0s.08.07.06.08c0,0-.04,0-.06,0v.03h.06c-.03.05-.05.1-.06.15v.45s.01.04.01.06c0,.39.03.99-.01,1.37v.21c.04.08.02.19,0,.29v.2s.02.07.02.1c0,.04,0,.1-.02.16v.25s.03.06.06.07c0,.03-.05,0-.06.02v.52c0,.11.02.21.02.26,0,.48,0,.96,0,1.44,0,.12,0,.25-.01.38v1.24s.11.02,0,.07v.1s0,.1,0,.15v.62s.1,0,.1.02c-.05.02-.08.05-.1.09Z"/>
          <path class="cls-1" d="M.86,28.33s-.06-.02-.04-.06c.01-.02.06.02.04.06Z"/>
          <path class="cls-13" d="M7.04,33.16v.03s.02-.02,0-.03Z"/>
          <path class="cls-1" d="M36.5,37.47c.01-1.2.07-7.62.07-7.62-.08-.39-.25-.78-.4-1.14-.6-1.34-1.61-2.57-2.94-3.4-.31-.19-.65-.41-1.01-.52-.34-.11-.31-.08-.22.2.24.76.05,1.58-.11,2.35-.03.14-.07.29-.13.42-.06.11-.14.22-.21.32-.32.45-.56.97-.52,1.5.05.58.42,1.11.49,1.69.04.38-.05.76-.14,1.13-.05.22-.11.45-.23.65-.21.34-.6.57-.98.76-.84.41-1.74.72-2.52,1.22-.72.47-1.36,1.09-2.09,1.53-.29.18-.41.23-.59.52-.1.16-.21.37-.43.42l11.96-.03Z"/>
          <path class="cls-14" d="M7.56,17.23c.71-1.28,1.95-1.6,2.36-3.22.1-.41.09-1.02.42-1.35.44-.43,1.6-1.04,2.18-1.41.23-.15.71-.53.92-.62.05-.02.09-.02.14-.02,0,.19-.03.38-.04.58-.06.03-.04.12-.04.18-.01,1.01.05,2.06,0,3.06-.09,1.76-1.77,3.08-2.29,4.83-.11-.06-.06-.01-.07.05-.04.15-.13.38-.07.53-.07.49-.06,1.07,0,1.57-.08.17.02.44.11.61.11.84-.21,1.2-.57,1.89l-.13.15c-.16.3-.31.58-.37.9-.02.08-.05.15-.04.24,0,.03-.06.02-.08.01-.05-.02-.4-.32-.49-.39-.66-.46-1.37-.86-2.22-.95-.03-.07-.09-.06-.16-.07-.38-.02-.68.03-1.04.07-.12.01-.23-.09-.2.06-.23.05-.55.17-.77.26-.43.18-.81.45-1.24.64v-.53c0-1.02,1.79-1.54,2.51-2.08.63-.48.76-.87.9-1.58.04-.2.04-.22,0-.42-.14-.78-.23-1.55,0-2.34.12.01.1-.15.13-.22.04-.09.1-.2.14-.29.02-.03.09-.11.02-.13Z"/>
          <path class="cls-6" d="M18.3,8.88s0,.04.08.03c1.01-.08,2.02-.12,3.03-.09.02.79-.03,1.59,0,2.38,0,.06-.04.13.07.11.01.31.04.62.07.93l.07,1.07c.04.63.24,1.34.25,1.95,0,.08,0,.26-.04.33,0,0-.15-.05-.07.07-.18.03-.51,0-.72,0-.04-.05-.14-.03-.2-.03-.65,0-1.15.05-1.74.32-.41.19-.85.51-1.22.77-.08.06-.19.09-.21.19-.01.01-.02.02-.04.03l-.07.06c-.06.06-.12.22-.22.21-.14-.01-.61-.19-.75-.26-.21-.09-.36-.22-.54-.34-.07-.05-.18-.14-.25-.19,0,0-.03,0-.04,0-.09-.14-.21-.24-.36-.32-.01-.01-.02-.02-.04-.03,0-.09-.09-.11-.14-.16-.28-.24-.49-.52-.64-.83-.13-.25-.21-.55-.36-.8,0-.01,0-.02,0-.03-.04-.15-.06-.32-.1-.47-.02-.07.03-.1-.08-.04,0-.05,0-.11-.04-.16l.04-3.39c.1-.12.62-.4.79-.48.54-.26,1.18-.45,1.78-.57.09-.02.11.08.15-.07.15-.02.28-.05.39-.06.03.06.13.03.18.02.25-.04.5-.09.75-.11.06,0,.12-.03.18-.03Z"/>
          <path class="cls-5" d="M28.16,8.13s.03-.06.04-.09c-.07-.06-.16-.14-.17-.15-1.42-.89-2.53-1.43-4.23-1.82-.64-.15-1.39-.3-2.05-.34-.09,0-.25-.04-.23.06h-.03s0-.05-.03-.06c-.15-.06-.77-.06-.98-.07,0,0-.01,0-.04,0-.31-.01-.63-.03-.95-.03-.19,0-.17-.03-.18-.03-.13,0-.57.01-.69.03-.07,0-.05.06-.07.06-.05,0-.09-.04-.18-.03-.97.08-2.37.23-3.12.64-.11.06-.38.09-.52.14-1.24.46-2.35,1.21-3.36,2-.94.73-1.89,1.57-2.71,2.33-.46.42-.9.89-1.36,1.32-.02.01-.11.02-.06.08.01.01.09-.03.07.03l-.14.03c-.01.06.06.02.07.03.01.01-.05.08-.03.09l.54-.03-.04-.06c.13.05.18-.05.2-.06.5-.16.7-.27,1.14-.51.06-.03.23-.04.31-.09.15-.1.02-.06.23-.12.32-.09.71-.46.96-.64.11-.08.28-.14.4-.22.06-.04.04-.12.13-.06v-.1c.13.08.12-.04.15-.05.78-.36,1.48-1.05,2.23-1.45.07-.04.14-.02.16-.03,0,0-.03-.1,0-.13,0,0,.05.03.1.02.14-.04.41-.26.56-.34.26-.13.54-.26.81-.33.84-.23,1.67-.44,2.49-.49.46-.03.9-.1,1.36-.13.09,0,.04-.05.05-.1l.06.1c.16-.01.33,0,.49-.01.06,0,.13-.04.19-.04.15,0,.41.06.56.02.04,0,0-.07.04-.07.03.11.26.06.39.06,1.01.04,1.97.08,3.01.2.11.01.24.1.25,0,.29.18.84.1,1.08.22.1.05.14,0,.21.02.26.04.89.2,1.11.2.47-.02,1,.08,1.51.06.2,0,.12-.01.21-.04,0,0,.02,0,.03,0Z"/>
          <path class="cls-13" d="M11.62,9.29v.03s.02-.02,0-.03Z"/>
          <path class="cls-14" d="M20.95,16.14s-.11-.01-.05.03c.23,0,.45,0,.68,0,.03,0,.19.01.09-.03.24,0,.29-.04.57.02,1,.21,2.1.97,2.4,1.87.08.23.1.48.21.7,0,.01,0,.02,0,.03.14.78.17,1.21.51,1.96,0,.02.03.13.07.05.08.15.2.3.29.45,0,.01-.01.05,0,.07s.21.13.11.18c-.45-.29-.8-.5-1.13-.93-.46-.6-.52-1.31-.97-1.91s-.96-.95-1.81-1.06c-.3-.04-.6-.04-.91-.03-.06,0-.16-.02-.2.03-.01,0-.02,0-.04,0-.07-.05-.33-.07-.29.03-.11.01-.21,0-.32.03-.04-.07-.11-.01-.16,0-.15.05-.22.07-.35.16-1.06.67-1.11,1.24-1.62,2.22-.42.81-1.08,1.56-1.14,2.48-.16.2,0,.45-.04.67.06,0,.03-.06.04-.1.05.21.1.41.19.62.23.53.55.84.6,1.46-.06.13-.04.3-.05.45,0,.05-.05.13.02.16,0,.05-.02.11-.04.16l-.04.03s0,.02,0,.03l-.21.53c-.03.07-.03.14-.04.21,0,.01,0,.02,0,.03-.1.06-.07.17-.07.26,0,.01,0,.02,0,.03-.1.37,0,.9.19,1.24.01.02.07.06.09.11.32.54.57.85.72,1.47,0,.28.06.56.04.83,0,.03,0,.06,0,.1-.08.02-.06.09-.08.14-.21.68-.6,1.43-.32,2.13.2.49.56.92.75,1.41-.07.09.05.29.11.38,0,.01,0,.02,0,.03.03.18.04.41.04.59,0,.15-.1.33,0,.46,0,.2-.02.4,0,.61,0,.11-.02.26.11.32,0,.01,0,.02,0,.03,0,.03.05.08.04.13-.03.03-.52-.13-.57-.18-.02-.01-.2-.31-.21-.33-.03-.12.03-.24-.12-.33-.01-.13-.05-.25-.04-.4s.06-.33.06-.48c-.02-.68-.36-1.13-.67-1.71-.13-.24-.28-.49-.35-.76-.04-.14-.06-.28-.05-.42-.06,0-.04.12-.04.16-.06-.08-.04-.25-.04-.35.12.02.06-.05.07-.11.01-.09.02-.17.04-.25.01-.06.08-.09-.04-.08,0-.02,0-.03,0-.05,0-.02.02-.02.04-.02,0,0,.02.03.04.03.06-.28.19-.55.24-.82,0-.05.04-.14-.03-.17.03-.21.05-.4.04-.61.06-.04.04-.15.04-.21-.08-1.02-1.23-1.94-.96-3.03l.25-.73s.14-.28.18-.29c0,0,.02.03.04.03.12-.36.23-.67.23-1.06,0-.05.02-.22-.09-.19-.1-.71-.61-1.16-.81-1.82-.11-.38-.14-.78-.09-1.15.12.02.06-.05.07-.11.03-.17.09-.39.14-.56,0,0,0-.02,0-.03.13-.1.15-.25.21-.38.05-.1.04-.08.11-.16.01-.01.06-.03.09-.07.08-.11.17-.42.23-.49.03-.03.07-.02.11-.02v-.03s-.07-.02-.07-.02c.07-.29.15-.59.18-.89,0-.05.02-.14-.04-.18.03-.13.09-.35.14-.48.17-.21.26-.48.43-.7.45-.61,1.64-1.41,2.47-1.44.12,0,.35.04.52.03.07,0,.14.03.12-.06.04,0,.09,0,.11.03Z"/>
          <path class="cls-6" d="M25.39,10.54l-.07.05c0-.29-.04-.6-.11-.88,0-.01,0-.02,0-.03l-.04-.06s0-.02,0-.03l-.11-.11.03-.02c-.11-.16-.19-.2-.36-.29-.08-.03-.21,0-.18-.1-.02,0-.05,0-.07,0,0,0-.11.04-.18,0-.01-.05.02-.03.07-.03-.16-.04-.27-.04-.43-.06-.42-.04-.89-.02-1.29-.13-.21,0-.12-.02-.16-.03h-.35s-.13.04-.14.05c0,.42.01.83,0,1.25,0,.06-.04.1-.04.11-.02,1.2.15,2.29.29,3.47.02.15.02.29.04.41.06.54.17,1.08.15,1.63.02.05.31.12.4.15.47.19,1.11.5,1.47.83.09.08.21.16.23.29.05,0,.05-.06.06-.09.18-.57.33-1.3.47-1.89.32-1.44.39-3.01.3-4.48Z"/>
          <path class="cls-14" d="M23.53,37.19c-.07-.06.49-.86.55-.99.54-1.18-.23-2.03,0-3.14.15-.72.73-1.37.81-2.09.14-1.41-1.02-2.03-1.1-3.3-.07-1.1.84-1.97.78-3.06-.07-1.37-1.4-2.13-1.47-3.52-.02-.47.11-.95.05-1.43-.02-.21-.21-.67-.2-.81,0-.05.14-.11.17-.18.27.28.52.69.61,1.05.16.63-.03,1.25.24,1.86.41.94,1.31,1.63,1.49,2.7.22,1.3-.86,2.28-.74,3.54.09.97.97,1.65,1.17,2.61.31,1.51-1.06,2.3-1.02,3.67.01.39.14.74.11,1.15-.03.47-.37,1.4-.77,1.71-.07.05-.63.26-.66.22Z"/>
          <path class="cls-14" d="M20.27,18.92c.06,0,.12,0,.18,0-.01.2-.16.36-.24.54-.18.41-.32.78-.51,1.19-.14.3-.25.5-.36.83-.04.14-.12.33-.14.45l-.07.21.04.5s0,.02,0,.03c0,.11-.01.29.11.35,0,.01,0,.02,0,.03.14.49.48.89.64,1.4.02.06.03.1.04.13.02.06-.05.16.07.14.18.97-.61,1.78-.6,2.74,0,.8.5,1.29.82,1.98.46.98.29,1.56-.08,2.52-.14.35-.23.64-.21,1.02,0,.01,0,.02,0,.03.02.21.1.39.18.58.04.09.07.16.11.26,0,.03,0,.08.02.13.02.06.12.16.16.22,0,0,0,.02,0,.03.07.18.15.36.21.54.14.42.12.56.04.99-.04.18-.09.35-.11.54,0,.01,0,.02,0,.03l-.04.02.04.02c0,.09,0,.17,0,.26-.06.02-.06.05-.06.1,0,.2.06.41.06.61l-.47-.03s0-.02,0-.03c-.03-.06-.02-.21-.14-.19-.02-.06-.03-.13-.04-.19-.12-.7.19-1.32.02-2.02-.01-.05-.04-.21-.13-.19-.24-.76-.77-1.34-.72-2.18.12.02.06-.05.07-.11.02-.13.05-.25.08-.38.01-.04.06-.12,0-.15.03-.09.08-.16.11-.22.05-.12.18-.3.11-.42.34-1.29-.12-1.62-.61-2.69-.79-1.72.34-2.08.29-3.47,0-.06.04-.13-.07-.11-.02-.2-.08-.39-.14-.58.06-.02,0-.1,0-.14-.08-.22-.17-.43-.3-.66-.01-.02-.05-.03-.05-.03,0,0-.03-.02-.04-.03l-.18-.69c-.05-.44.12-.96.28-1.36s.41-.83.61-1.25c.09.02.07-.04.1-.09.06-.11.08-.22.12-.33.1-.26.2-.58.43-.77.2-.17.14-.07.34-.07.03,0,.05-.03.05-.03Z"/>
          <path class="cls-14" d="M22.46,19.18s.03-.12,0-.19c.12.04.33-.09.39.03,0,.01,0,.02,0,.03.14.62.1.97.07,1.58,0,.14-.02.34.04.47,0,.01,0,.02,0,.03,0,0-.04.02-.03.11,0,.11.06.3.11.41,0,.01,0,.02,0,.03l.04.13c.28.88,1.15,1.46,1.29,2.5.07.54-.04,1.02-.21,1.54-.1.28-.23.55-.32.83-.1-.02-.07.04-.09.1-.11.33-.15.65-.13.99.04,0,.03-.03.04-.03.04,0,.14.59.18.69.25.67.81,1.2.93,1.93l-.07.96c-.04.16-.12.27-.18.42-.03.06-.07.15-.11.22,0,0,0,.02,0,.03l-.04.03s0,.02,0,.03c-.06.02-.08.07-.1.12-.32.59-.47,1.13-.36,1.79.01.06-.05.13.07.11.14.72.31.96.11,1.73-.04-.08-.05.04-.06.06-.03.11-.06.22-.1.32l-.23.45c-.1.16-.2.31-.29.48-.12.18-.38.14-.57.19-.08-.12.26-.79.32-.8,0,0,.02.03.04.03.01-.17.21-.34.14-.51.05-.15.11-.33.14-.48.07-.29.03-.59,0-.9-.04,0-.03.03-.04.03-.09,0-.37-1.35-.32-1.52.03-.09.02-.07.04-.19.12-.75.58-1.38.68-2.23.02-.21.05-.28,0-.5-.01-.06.03-.12-.08-.11-.03-.15-.09-.34-.14-.48-.05-.13-.12-.22-.14-.35-.02,0-.03.03-.04.03-.06,0-.32-.5-.36-.58-.15-.3-.29-.61-.32-.94l-.04.02c-.08-.56.02-.8.21-1.31l.21-.38c.04-.08.05-.18.08-.26,0,0,0-.02,0-.03.06-.06.11-.16.14-.24.02-.06.1-.22.04-.27.18-.68.08-1.24-.27-1.86-.31-.53-.75-.98-.88-1.6.06-.12.02-.29.01-.42,0-.05.05-.09-.05-.12,0-.01,0-.02,0-.03.12.02.06-.05.07-.11.04-.21.08-.41.11-.62.06-.48.05-.9.07-1.38Z"/>
          <path class="cls-14" d="M20.16,19.98c.1-.22.2-.49.3-.7.13-.26.16-.27.47-.26.07,0,.14-.03.12.06,0,0,0,.02,0,.03-.25.43-.35.96-.5,1.44,0,0,0,.02,0,.03-.06.02-.07.08-.09.13-.17.37-.38,1-.34,1.38.12,1.04.92,1.69,1,2.59-.13-.01-.04.03-.04.08.04.83-.46,1.34-.57,2.09-.13.88.02,1.24.39,2.02.1.22.24.42.34.64.04.09.26.67.23.7-.01.01-.08-.02-.07.03.03,0,.06,0,.07.02.05.08-.04.18.07.17.04.59-.18,1.13-.36,1.7-.1-.02-.07.04-.09.09-.08.22-.11.39-.13.62,0,.06-.09.09.04.08,0,.02,0,.04,0,.06-.12.13-.01.37.04.51.09.25.23.49.32.74-.05.07.03.21.06.29,0,.03.01.15.05.06,0,.02.03.05.04.1l.04.9c-.02.35-.16.69-.25,1.02-.06.21-.07.31-.07.53,0,.02-.02.17.04.08,0,.02.09.12.01.16-.52.11-.59.01-.62-.42.06-.11.06-.33,0-.45.07-.76.34-1.1.07-1.92.04-.06-.03-.23-.05-.29-.06-.14-.13-.29-.19-.43-.02-.05-.05-.09-.11-.11,0,0,0-.02,0-.03-.06-.16-.13-.35-.18-.51-.25-.82.37-1.61.43-2.45s-.16-1.15-.5-1.84c-.11-.23-.29-.5-.39-.76-.21-.59-.16-1.07.06-1.65.02-.04.07-.12,0-.15.02-.04.07-.19.11-.19,0,0,0,.04.04.03.06-.18.11-.37.14-.54,0-.01,0-.02,0-.03.14-.12.1-.3.11-.45,0-.09,0-.2,0-.29-.01-.33-.08-.52-.2-.83,0-.01-.05-.17-.08-.1-.21-.45-.56-.87-.61-1.38.08-.14.02-.35.04-.51.01-.08.02-.12.04-.19l.43-1.12c.1-.24.21-.47.32-.7l.04.03v-.1s0-.02,0-.03Z"/>
          <path class="cls-14" d="M18.09,20.84c.14-.22.35-.46.46-.69.16-.31.24-.69.41-1.01.13-.24.32-.45.49-.67l.2.19s.21.13.2.17c-.04.05-.1.1-.14.15-.23.26-.33.48-.46.79-.01.04-.07.11,0,.14-.1.22-.21.43-.32.64l-.07.13s0,.02,0,.03c-.12.13-.18.29-.25.45,0,0,0,.02,0,.03-.13.11-.16.27-.21.42-.08.21-.15.43-.21.64-.1.29-.04.61.07.9.12.31.3.62.43.93-.05.03.01.14.03.18.03.1.06.26.15.33,0,.01,0,.02,0,.03.21,1.2-.56,1.82-.51,2.93,0,.05-.03.09.05.11.08,1.12,1.33,1.82,1,3.17-.07.28-.18.56-.27.83-.02.05-.07.18-.02.22,0,.01,0,.03,0,.05,0,.02-.02.02-.04.02,0,0-.02-.03-.04-.03-.14.51-.16.92.04,1.41,0,.01.02.04.04.06-.07.05.03.2.06.25.23.48.56.95.59,1.49l.07-.05c.07.62-.22,1.2-.05,1.82.04.13.11.26.16.38-.48-.05-.72-.08-.9-.51l-.06-.57c.02-.09.02-.18.02-.27,0-.1-.04-.08,0-.22.05-.23.06-.48,0-.7,0,0-.03-.03-.04-.06.07-.03.02-.11.01-.15-.05-.2-.13-.34-.23-.52-.22-.4-.52-.78-.64-1.22l-.03-.68c.12-.76.52-1.4.46-2.21s-.54-1.34-.9-2c-.09-.16-.14-.26-.18-.45.07-.12,0-.29,0-.43,0-.11.1-.24,0-.34,0-.01.03-.02.04-.03.03-.1.17-.28.11-.38.02-.05.15-.28.18-.29,0,0,.02.03.04.03.24-.54.33-.87.25-1.44,0-.03-.03-.11-.04-.16l.04-.02-.04-.02s0-.02,0-.03c-.07-.29-.19-.52-.29-.8-.04,0-.03.03-.04.03-.1-.01-.2-.51-.21-.61-.06-.39-.04-.95.04-1.31,0-.01,0-.02,0-.03l.57-1.06Z"/>
          <path class="cls-14" d="M21.6,19.63c-.04.39-.12.63-.21.99-.12.17-.2.44-.24.63-.03.14-.1.33-.01.45,0,.02,0,.04,0,.06-.1.07-.01.19,0,.26.01.07.02.13.04.19-.06.02-.02.11,0,.15.09.28.17.38.33.62.26.4.56.79.68,1.25l.03.72c-.15.97-.88,1.8-.75,2.82l.04-.02c.11.95,1.05,1.7,1.15,2.74.09.92-.61,1.76-.61,2.67-.08.12-.03.28,0,.41.01.06-.03.12.08.11.09.42.32.84.36,1.25-.06.15-.06.4,0,.54,0,.04-.03.13-.04.19-.06.03-.06.09-.07.14-.1.36-.25.67-.33,1.01-.01.05-.06.12.01.15-.02.15-.06.25,0,.42-.11,0-.53.09-.59,0-.08-.1-.03-.52-.01-.65.04-.23.14-.45.21-.66.19-.6.17-.89.05-1.5,0-.03,0-.13-.05-.06-.05-.16-.16-.34-.21-.51-.07-.21-.18-.48-.2-.7-.02-.17.03-.36-.05-.52.02-.17.06-.29.11-.45.1-.12.14-.3.18-.45,0-.01,0-.02,0-.03.05-.07.15-.23.07-.29.02-.07.05-.13.07-.19.27-.81.18-1.35-.25-2.08-.21-.35-.45-.67-.57-1.06-.15-.47-.16-.93-.07-1.41,0-.01,0-.02,0-.03l.53-1.27c.1-.39.1-.75.03-1.14,0-.02-.03-.14-.06-.06-.15-.55-.65-1.09-.82-1.63.06-.1-.03-.22-.04-.33-.06-.69.2-1.11.39-1.73.01-.04.06-.12,0-.14.11-.29.22-.58.29-.88,0-.02.02-.02.04-.02,0,0,.02.03.04.03.03-.09.02-.2.05-.29.03-.09.1-.33.2-.32.01,0,.02,0,.04,0,.04,0,.16.1.21-.03.01,0,.03,0,.04,0,0,.21-.02.43-.04.64Z"/>
          <path class="cls-14" d="M22.31,19.21c-.08.31-.01.65-.04.96-.07.51-.22,1.04-.18,1.55.07.78.73,1.33,1,2.03.07.18.14.4.18.59.01.06-.05.13.07.11,0,.01,0,.02,0,.03-.13-.01-.04.03-.04.08,0,.16-.01.37-.03.53-.02.13-.04.19-.07.32-.04-.08-.05.04-.06.06-.06.22-.16.38-.24.58-.01.03-.07.14-.02.16-.01.03-.03.05-.04.06l-.04.06c-.05.12-.09.26-.14.38-.15.38-.23.65-.14,1.06.15.72.54,1.13.86,1.76-.05.01,0,.11.01.13.1.23.21.46.2.71l.03-.02s.03.03.04.1c-.09.02-.04.06-.04.11,0,.42-.12.83-.24,1.23,0,0,0,.02,0,.03-.08.09-.19.28-.14.38-.17.52-.31.81-.25,1.39.04.42.29.85.32,1.26-.13-.01-.04.03-.04.08,0,.16-.03.35.04.49,0,.12-.04.27-.07.38-.1-.02-.16.28-.14.35-.01.03-.03.05-.04.06l-.04.06c-.15.33-.37.66-.36,1.02l-.54.03c-.02-.22,0-.34.07-.54.24-.63.48-1.12.43-1.81-.04-.52-.3-.94-.39-1.44-.01-.06.04-.13-.07-.11,0-.01,0-.02,0-.03.06-.16.06-.42,0-.58,0-.01.03-.02.04-.03.03-.11.05-.23.07-.32,0-.01,0-.02,0-.03.09-.14.15-.31.21-.47.02-.06.11-.19.04-.24.03-.09.07-.17.11-.26.02-.04.07-.08.09-.16.04-.14.09-.41.02-.55,0-.02,0-.04,0-.06.12.01.05-.03.05-.09,0-.22-.01-.4-.05-.62-.02,0-.03.03-.04.03-.02,0-.03,0-.04-.02-.09-.53-.47-.96-.72-1.42l-.25-.79c-.05-.22-.03-.43,0-.65,0-.05.04-.13-.03-.17.02-.1.07-.19.07-.29.09.02.08-.04.1-.09.18-.46.41-.91.51-1.38.01-.05.03-.14.04-.19.04-.32.05-.53-.03-.85-.01-.05,0-.12-.08-.14,0-.01,0-.02,0-.03l-.04-.1c-.15-.39-.52-.8-.72-1.18l-.21-.69v-.68c.05-.31.17-.58.25-.86.05.07.05-.03.05-.06.1-.42.24-.84.22-1.27,0-.06.06-.12-.06-.1,0-.02,0-.06,0-.06.02-.02.12.04.04-.06.31.02.45-.11.5.22Z"/>
          <path class="cls-14" d="M17.08,17.67c-.05.1-.12.19-.18.29,0,0-.05.01-.07.05-.01.04,0,.08,0,.11,0,.01,0,.02,0,.03-.14.17-.17.44-.22.66-.03.17-.1.43-.03.59-.01.06-.13.51-.18.51,0,0,0-.04-.04-.03-.13.35-.4.71-.54,1.09-.09.25-.15.51-.21.77,0-.04.02-.1-.04-.1.02.2-.02.43,0,.63,0,.06.04.1.04.11,0,0,.03.02.04.03-.09.16,0,.38.05.55,0,.02.02.14.06.06.06.21.19.43.21.67-.06.16-.06.42,0,.58,0,.06-.02.16-.04.22-.12-.02-.06.05-.07.11-.07.33-.22.65-.32.98-.13.39-.32.81-.36,1.22l-.04-.02c.02.19-.05.42.04.59,0,.01,0,.02,0,.03,0,.15.02.28.07.43l.14.27c.25.63.59.98.68,1.7.06.52-.1,1-.18,1.5,0,.01,0,.02,0,.03l-.04.1s0,.02,0,.03c-.08.14-.14.42-.07.58-.05.94.36,1.24.75,2.02.08.17.14.36.25.51,0,.01,0,.02,0,.03.04.14.08.3.11.45.02.1.03.15.04.26l-.04.38-.14-.06c-.07-.03-.47-.23-.49-.26-.03-.05.01-.08.01-.11,0-.01-.05-.12-.07-.22-.1-.43-.22-.66-.43-1.04.06,0-.02-.1-.03-.12-.05-.08-.1-.16-.16-.25-.03-.04-.01-.1-.1-.08,0,0,0-.02,0-.03-.64-1.19-.47-1.38-.29-2.62.01-.1.07-.31.07-.37v-.8c0-.08-.08-.28-.11-.37.07-.03.02-.11.01-.15-.08-.3-.26-.61-.39-.9-.02-.05.01-.11-.09-.1,0-.01,0-.02,0-.03,0-.06.06,0-.04-.13-.02-.03-.02-.04-.04-.06l-.14-.85c-.05-.25.11-.51,0-.75.03-.19.1-.37.18-.54,0,0,.04-.03.05-.06.07-.13-.02-.23.23-.19,0-.07-.12-.01-.14-.03-.02-.01.13-.36.14-.42.07-.23.13-.46.18-.69,0-.02.02-.02.04-.02,0,0,.02.03.04.03.06-.34.13-.66.07-.99-.02-.13-.05-.28-.07-.42.07-.03.03-.11.03-.17-.03-.21-.07-.41-.1-.62-.01-.11.04-.25-.07-.34,0-.13,0-.26,0-.38.09-.02.07-.08.07-.14.01-.12,0-.32,0-.4,0-.01,0-.02,0-.03.11.02.06-.05.08-.11.09-.37.24-.73.39-1.08,0,0,0-.02,0-.03.1-.09.16-.25.22-.36.01-.03.09-.13.03-.15.08-.15.17-.3.25-.45.01-.02.06-.06.09-.1.2-.37.36-.75.49-1.15l.39.13Z"/>
          <path class="cls-14" d="M25.01,21.5c.31.23.68.4.99.64,1.22.93,1.7,2.47,1.31,3.86-.32,1.13-.84,1.62-.25,2.85.51,1.07.99,1.59.88,2.86-.1,1.16-1.11,1.8-1.41,2.83-.05.18-.06.35-.12.54-.13.41-.41.71-.71,1.03-.05-.02,0-.09,0-.12.26-.7.18-1.01.23-1.72.08-1.19,1.17-1.96,1.17-3.28,0-1.63-1.67-2.29-1.11-4.16.27-.9.67-1.28.59-2.32-.09-1.18-.98-2.04-1.61-3.01,0-.11.03,0,.04,0Z"/>
          <path class="cls-14" d="M16.37,17.96c-.08-.02-.11.1-.13.15-.05.1-.08.2-.12.29,0,0,0,.02,0,.03-.14.11-.18.33-.25.48-.1.22-.21.43-.32.64l-.04-.03-.04.16s-.03.04-.04.06c-.08.15-.14.29-.21.44-.01.04-.07.11,0,.14-.03.08-.07.15-.07.24,0,.02-.02.02-.04.02,0,0-.02-.03-.04-.03.01.19-.18.4-.07.58-.02.09-.05.2-.07.29-.04.19-.05.39-.04.59l.21,1.33s0,.02,0,.03l.04.06c0,.11,0,.24,0,.35-.11,0-.08.02-.08.09,0,.76-.43,1.38-.6,2.09,0,.01,0,.02,0,.03-.08.09-.12.29-.13.41,0,.02.02.04.02.04,0,.09-.03.22-.04.29l-.04-.02c.02.17-.05.37.04.53,0,.01,0,.02,0,.03.01.32.08.47.18.78.02.06-.04.11.07.05.02.07.05.13.07.19l-.04.02.04.02s0,.02,0,.03c.05.13.08.2.14.32.08.17.12.22.18.42.04.14.07.29.1.44.01.05,0,.12.08.14,0,.04,0,.09,0,.13,0,.13,0,.33,0,.47,0,.11-.09.24,0,.33-.05.32-.17.64-.25.96-.17.65-.06,1.15.29,1.73.21.35.45.68.64,1.06.06.12.28.83.21.9l-.32-.1s-.08-.02-.14-.06l.04-.03c-.15,0-.11-.14-.21-.19,0-.01,0-.02,0-.03-.01-.06,0-.12-.07-.16,0-.01,0-.02,0-.03-.06-.21-.13-.35-.25-.54-.19-.32-.41-.58-.57-.93-.05-.11-.08-.25-.18-.35,0,0,0-.02,0-.03-.37-1.21.24-1.9.14-3.02-.06-.64-.42-1.22-.64-1.81,0,0-.03-.02-.04-.03.07-.04.04-.14-.04-.16,0-.01,0-.02,0-.03-.02-.1-.01-.23-.07-.32,0-.01,0-.02,0-.03,0-.1.05-.29-.07-.26,0-.02,0-.04,0-.06.09.05.07.05.06-.04-.07-.56.11-1.18.3-1.72s.44-1.06.54-1.63c.07-.42.03-.83-.05-1.25,0-.05-.02-.12-.06-.15,0-.01,0-.02,0-.03l-.04-.1c-.01-.13-.03-.26-.04-.38.07-.21.04-.47.08-.68.05-.33.14-.69.25-1.01.06-.18.11-.26.18-.42l.18-.27c.09-.22.21-.42.32-.63.26-.5.57-.99.68-1.54l.53.24s-.15.46-.18.52Z"/>
          <path class="cls-14" d="M15.76,17.55c-.06.13-.12.26-.18.38-.03.07-.07.15-.11.22l-.2.29c-.04.06-.06.13-.09.19-.28.53-.56,1.07-.79,1.63s-.3,1.38-.18,2c.01.06-.02.12.07.14,0,.06,0,.13,0,.19,0,.09.04.22.04.27v.8c0,.22-.17.65-.24.87-.01.04-.08.11,0,.14-.07.19-.17.36-.25.54-.19.44-.3.67-.32,1.15,0,.04,0,.09,0,.13-.05,0-.05.09,0,.1,0,.15,0,.3,0,.45l-.07-.02.07.27s0,.04,0,.06c0,.12.01.3.11.38,0,.01,0,.02,0,.03.04.19.14.6.23.76,0,0,.09.04.1.07.07.18.19.38.25.58l-.03.31c.19.32.09.92.03,1.36,0,.01,0,.02,0,.03-.26.67-.32,1.32,0,1.98.09.18.19.37.29.54.1.19.2.39.36.54.17.28.36.58.39.9-.06,0-.12,0-.18-.02-.42-.14-.76-.88-.97-1.23l.11-.1s-.12,0-.16-.03c-.04-.03.02-.12-.09-.1,0,0,0-.02,0-.03-.29-.52-.47-.84-.57-1.44-.02-.15-.05-.26-.04-.42.12.02.06-.05.07-.11.02-.13.02-.25.04-.37.03-.19.06-.3.11-.48.19-.77.12-1.1-.18-1.82-.06-.14-.15-.3-.21-.45l-.25-.89-.08-.11c0-.05,0-.11,0-.16-.03-.52.03-1.05.18-1.55.01-.04.07-.11,0-.14.04-.09.08-.15.11-.22.37-.84.72-1.4.68-2.35,0-.06.04-.13-.07-.11,0-.18-.05-.3-.07-.48l.03-.17-.1-1.02c.02-.26.06-.43.14-.67.04-.12.16-.32.11-.45.02-.06.06-.1.07-.13.12-.28.26-.56.39-.83.23-.46.52-.9.76-1.35.14-.27.24-.56.39-.82.09.05.48.27.49.34-.02.14-.11.27-.17.4ZM13.47,26.98c0-.08,0-.16,0-.24,0-.04.03-.12-.04-.11,0,.08,0,.16,0,.24,0,.04-.03.12.04.11Z"/>
          <path class="cls-14" d="M25.59,18.49c.53.78,1.21,1.47,1.68,2.33.59,1.07.47,2.2,1.16,3.22.72,1.06,1.45,1.49,1.45,2.9,0,1.17-.96,1.84-.86,3.01.08.91.85,1.48.6,2.52-.11.45-.84,1.59-1.3,1.78-.13.05-.29.08-.43.1-.06,0-.08-.03-.05-.06,0,0,.05,0,.07-.02.38-.59.93-1.34,1-2.01.09-.85-.48-1.48-.53-2.27-.11-1.5,1.18-2.33.49-4.05-.19-.46-.8-1.1-.91-1.46-.11-.33-.18-.68-.29-.99-.32-.84-.52-1.76-.99-2.53-.3-.49-.65-.9-.92-1.42s-.52-1.18-.66-1.71c-.04-.15-.06-.3-.05-.45l.23.58c.12.18.2.39.32.56Z"/>
          <path class="cls-14" d="M14.93,16.33c.07.09.3.28.32.37.03.17-.22.43-.22.62-.32.63-.68,1.24-1.04,1.86-.08.14-.17.26-.23.42-.03.07-.1.22-.06.29,0,.01-.03.02-.04.03-.05.11-.18.31-.11.42-.2.78-.08,1.34,0,2.11-.06.04-.04.15-.04.21.01.2.03.38.04.59,0,.01,0,.02,0,.03-.08.3-.12.61-.22.91-.17.49-.45.91-.57,1.43,0,.01,0,.02,0,.03-.28.7-.17,1.46,0,2.18.02,0,.03-.03.04-.03.02,0,.03,0,.04.02.17.63.59,1.3.64,1.95.04.56-.24,1.15-.29,1.71l-.07-.03v.11s.07-.02.07-.02c0,.1,0,.19,0,.29,0,0-.04-.19-.07-.14,0,.06,0,.13,0,.19s-.04.13.07.11c.07.47.23.9.48,1.31.18.3.55.68.66,1.01,0,.02,0,.05-.02.05-.32-.27-.56-.62-.84-.93,0,0,0-.03,0-.06l-.35-.26c-.32-.36-.37-.58-.47-1.01,0-.02-.06-.01-.06-.04-.04-.2-.05-.51-.04-.71.12.02.06-.05.07-.11.02-.12.02-.25.04-.37s.02-.24.04-.35c.1.03.09-.16.1-.21.12-.75-.06-1.17-.35-1.83-.18-.41-.38-.81-.47-1.25.09-.17-.01-.38-.02-.56-.03-1.18.46-1.7.85-2.71.46-1.18,0-2.06.06-3.24,0-.14.09-.32.04-.46.01-.03.03-.06.04-.06.13-.44.31-.86.5-1.28.05-.12.06-.16.14-.29.28-.42.56-.86.79-1.31.17-.34.35-.69.47-1.06.05,0,.05.06.07.1Z"/>
          <path class="cls-14" d="M16.19,26.85c-.05-.09-.04.06-.04.08,0,.19,0,.31.04.5,0,0,.03.05.04.1l-.07.02.11.21s0,.02,0,.03c0,.04,0,.09,0,.13.04,0,.03-.03.04-.03.04,0,.09.21.11.26l.06.22.16.2s0,.02,0,.03c.07.15.14.25.21.38.01.02.02.04.04.06.03.11.04.24.14.32,0,0,0,.02,0,.03.13.44.17.82.14,1.28,0,.15-.03.18-.07.32-.09.28-.21.54-.25.83,0,.02,0,.04,0,.06-.11.15-.07.38-.07.56,0,.05-.02.14.04.18,0,.01,0,.02,0,.03,0,.05-.02.13.04.16,0,.01,0,.02,0,.03.05.26.17.4.25.64.02,0,.03-.03.04-.03.22.03.77,1.46.79,1.7-.06.12-.06.35,0,.48,0,.01,0,.02,0,.03-.11-.02-.07.05-.07.11-.02.32.05.62.18.91l-.18-.03c-.25-.13-.79-.47-.79-.75,0-.03.03-.05.03-.05.06-.15.06-.4,0-.54,0-.12.03-.21.03-.31,0-.01-.06-.01-.06-.04-.18-.8-.57-1.11-.86-1.8-.08-.18-.16-.39-.21-.58-.12-.37-.05-.74.04-1.12.09.02.11-.17.13-.22.03-.11.04-.18.05-.29,0-.01,0-.02,0-.03.14-.33.15-.78.1-1.13-.06-.45-.25-.75-.46-1.14,0,0-.03-.02-.04-.03.06-.01,0-.1-.02-.13-.07-.15-.16-.3-.23-.45-.1-.22-.14-.34-.18-.58.03-.2-.02-.42,0-.62.01-.15.07-.37.11-.53,0-.01,0-.02,0-.03l.36-.93s0-.02,0-.03l.07-.08-.03-.02c.05-.16.1-.32.14-.48,0,0,.04-.02.05-.06.07-.25.06-.51.13-.77.44.65.56.99.38,1.76-.09.39-.34.81-.38,1.18Z"/>
          <path class="cls-14" d="M14.72,16.11c-.06.34-.23.68-.44.97l-.14.34c-.27.49-.61.96-.85,1.46-.05.11-.28.71-.33.72,0,0-.02-.03-.04-.03,0,.2-.18.44-.11.64-.01.07-.02.13-.04.19-.12-.02-.06.05-.07.11-.06.35-.05.7-.04,1.06,0,.06-.04.13.07.11,0,.12.03.23.04.35.08,1.27-.04,1.47-.5,2.62,0,0,0,.02,0,.03-.07.04-.12.16-.15.23-.27.61-.4,1.24-.35,1.89,0,.07,0,.13.07.17,0,.03,0,.06,0,.1.06.56.23.91.47,1.41.13.28.25.55.32.86v.72c-.04.47-.31.95-.18,1.42,0,.03,0,.06,0,.1-.09.06-.05.27-.03.36.03.18.17.45.18.58,0,.15-.1-.02-.11-.03-.43-.4-.5-.82-.57-1.36,0-.02-.03-.06-.04-.1.12-.09.06-.24.08-.36.12-.82.28-1.12-.08-1.94-.03-.07-.07-.14-.11-.22-.07-.17-.14-.41-.22-.61-.04,0-.03.03-.04.03-.08-.01-.13-.32-.14-.38-.04-.14-.06-.29-.1-.44-.02-.07.03-.1-.08-.04,0-.03,0-.06,0-.1-.04-.46.01-.97.09-1.44,0-.05.05-.13-.02-.16.09-.33.23-.6.39-.9.21-.39.45-.71.54-1.15,0-.01,0-.02,0-.03.04-.06.11-.21.13-.27.09-.46-.06-1.01-.13-1.47,0-.06.05-.13-.07-.11,0-.08,0-.17,0-.26,0-.17.03-.38.04-.56,0-.07.02-.19-.04-.24.02-.17.07-.34.11-.51l.68-1.63c.49-.85,1.18-1.61,1.43-2.56.02-.02.33.37.36.42Z"/>
          <path class="cls-14" d="M12.07,18.35c.52-1.02,1.35-1.84,1.73-2.95.03-.09.08-.42.1-.44.06-.06.06.02.07.05.05.08.31.52.31.55.02.1-.19.51-.24.62-.08.16-.2.36-.29.52-.01.03-.09.11-.03.12-.43.72-.97,1.38-1.29,2.14l-.14.1c-.07.48-.27.86-.29,1.37s.04.93.07,1.41c.02.41.07.81.04,1.22,0,.01,0,.02,0,.03l-.04.13s0,.02,0,.03c-.1.21-.16.43-.25.64-.21.5-.48.98-.68,1.5-.05.13-.06.13-.07.29,0,.02,0,.04,0,.06-.06.01-.05.12,0,.13-.02.28-.04.54-.04.83l-.04.05.04.02s0,.04,0,.06c.05.77.48,1.33.68,2.05h-.04c-.65-.79-1.24-1.36-1.25-2.43,0-.31.04-.66.1-.98,0-.05.04-.13-.03-.17.22-.95,1-1.67,1.15-2.56.11.02.06-.05.07-.11.05-.25.04-.42,0-.67-.01-.06.05-.13-.07-.11-.02-.11-.05-.21-.07-.32.07-.03.03-.11.02-.16-.14-1.03-.03-1.94.47-2.88.02-.03.09-.11.02-.13Z"/>
          <path class="cls-2" d="M11.71,28.87s.06.03.02.03c-.01,0-.03-.02-.02-.03Z"/>
          <path class="cls-14" d="M28.26,30.09c-.1-.1-.12-.27-.18-.4-.07-.15-.42-.65-.42-.74-.01-.17.3-.8.37-1.01.14-.43.16-1,.05-1.48-.03-.14-.18-.41-.19-.52-.02-.2.08-.49.1-.7.01-.16,0-.33,0-.5.04,0,.06.04.08.07.8,1.2,1.16,1.93.64,3.33-.12.33-.43.89-.43,1.22v.72Z"/>
          <path class="cls-14" d="M26.77,17.12c.69.91,1.75,1.6,2.28,2.65.33.66.52,1.61.47,2.34-.01.16-.07.31-.11.46-.06-.03-.1-.17-.12-.23-.27-.81-.3-1.57-.7-2.38-.53-1.07-1.73-1.77-2.26-2.9-.14-.29-.26-.66-.28-.98.28.32.48.7.73,1.04Z"/>
          <path class="cls-6" d="M22.78,18.38s.16.09.14.14c-.02.06-.34.19-.43.21l-2.29-.02c-.46-.06-.84-.26-.21-.51.38-.15,1.96-.18,2.35-.05.1.03.36.17.45.23Z"/>
          <path class="cls-14" d="M28.47,30.79c.02.28.17.53.24.8.01.05-.02.09-.02.11s.06,0,.07.06c.12.86-.41,1.51-.87,2.21-.04.07-.07.12-.09.14-.21.31-.39.31-.77.39.28-.79,1.04-1.39,1.28-2.2.09-.3.12-.79.12-1.11,0-.11-.06-.22-.04-.35,0-.06-.01-.05.07-.05Z"/>
          <path class="cls-14" d="M27.54,28.74c-.13-.32-.28-.72-.25-1.07s.28-1.09.46-1.41c.02-.03.02-.08.07-.08.24.54.22,1.17.06,1.73-.05.18-.19.58-.27.75-.02.03-.02.07-.07.08Z"/>
          <path class="cls-14" d="M25.94,20.19s.05.02.06.03c.41.65.94,1.27,1.08,2.02-.06,0-.04-.08-.08-.12-.63-.62-1.21-1.41-1.46-2.23-.06-.2-.12-.41-.11-.62.06,0,.07.06.09.1.15.26.27.57.43.82Z"/>
          <path class="cls-6" d="M19.84,8.78s.1,0,.14,0c.01,0,.02,0,.04,0,.12,0,.24,0,.36,0,.01,0,.02,0,.04,0,.08,0,.17,0,.25,0,.05,0,.1,0,.14,0,.17,0,.34,0,.5,0,.05,0,.1,0,.14,0,0,.59,0,1.17,0,1.76,0,.09-.03.22.04.29,0,.1,0,.19,0,.29l-.04.02.04.02s0,.06,0,.1l-.04.02.04.02s0,.02,0,.03c-.11.02-.07-.05-.07-.11-.03-.79.02-1.59,0-2.38-1.02-.02-2.02.01-3.03.09-.08,0-.08-.03-.08-.03.51-.08,1.03-.08,1.54-.1Z"/>
          <path class="cls-14" d="M12,27.21c-.38-1.96,1.13-2.94,1-4.69-.06-.78-.33-1.48-.07-2.29.05.14-.03.32-.04.46-.07,1.18.4,2.06-.06,3.24-.39,1.01-.88,1.53-.85,2.71,0,.18.1.39.02.56Z"/>
          <path class="cls-6" d="M21.78,15.66c-.08-.12.07-.06.07-.07.03-.07.04-.25.04-.33-.01-.62-.21-1.33-.25-1.95l-.07-1.07c.07.71.17,1.44.25,2.16.03.3.13.67.14.96,0,.12-.02.28-.18.3Z"/>
          <path class="cls-6" d="M22.78,18.38c-.09-.06-.35-.19-.45-.23-.38-.13-1.97-.1-2.35.05-.63.25-.25.45.21.51l2.29.02c-.36.08-2.13.08-2.51-.02-.58-.15-.39-.44.06-.58s1.8-.17,2.24-.04c.17.05.37.16.49.28Z"/>
          <path class="cls-14" d="M11.89,31.05c-.06-.51.23-1.15.14-1.77-.03-.18-.1-.35-.14-.53.35.82.2,1.12.08,1.94-.02.12.04.28-.08.36Z"/>
          <path class="cls-14" d="M11.57,21.51c-.19-1.25-.09-2.02.5-3.17.07.02,0,.1-.02.13-.49.94-.61,1.85-.47,2.88,0,.05.05.13-.02.16Z"/>
          <path class="cls-6" d="M14.04,13.58v-3.31s.02-.05.04-.08l-.04,3.39Z"/>
          <path class="cls-14" d="M13.5,14.41c.05-1-.01-2.05,0-3.06,0-.05-.02-.14.04-.18-.02,1.02.01,2.04,0,3.06,0,.05.02.14-.04.18Z"/>
          <path class="cls-14" d="M22.96,21.1c-.06-.13-.04-.33-.04-.47.03-.61.07-.96-.07-1.58.05.06.08.15.1.22.14.54.06,1.27.01,1.83Z"/>
          <path class="cls-14" d="M15.51,33.51c-.65-.8-.63-1.72-.29-2.62-.18,1.24-.35,1.43.29,2.62Z"/>
          <path class="cls-14" d="M12.14,21.45c.12-.02.06.05.07.11.07.47.21,1.01.13,1.47-.01.06-.09.21-.13.27.14-.77-.02-1.14-.07-1.86Z"/>
          <path class="cls-14" d="M14.29,22.41c-.09-.02-.06-.09-.07-.14-.12-.62-.05-1.42.18-2-.14.56-.21,1.11-.18,1.68,0,.14.06.32.07.46Z"/>
          <path class="cls-14" d="M12.28,24.65c.46-1.16.58-1.35.5-2.62.28.9-.01,1.84-.5,2.62Z"/>
          <path class="cls-14" d="M15.11,23.34l-.21-1.33c-.01-.2,0-.4.04-.59.04.25.01.5.04.75.04.4.11.76.14,1.17Z"/>
          <path class="cls-14" d="M19.81,34.66c.09-.02.12.15.13.19.17.7-.14,1.32-.02,2.02-.21-.5.05-1.07.04-1.58,0-.22-.08-.42-.14-.62Z"/>
          <path class="cls-14" d="M19.05,24.94c.11-.02.07.05.07.11.06,1.39-1.07,1.76-.29,3.47-.24-.35-.39-.82-.36-1.23.06-.7.58-1.37.61-2.06l-.04-.1c0-.06,0-.13,0-.19Z"/>
          <path class="cls-14" d="M14.18,30.85c.06-.44.16-1.03-.03-1.36l.03-.31c.15.53.22,1.14,0,1.66Z"/>
          <path class="cls-14" d="M16.19,30.92c.13-.84.07-1.5-.36-2.27.21.39.4.69.46,1.14.05.35.03.8-.1,1.13Z"/>
          <path class="cls-14" d="M13.72,22.73c.11-.02.07.05.07.11.04.95-.31,1.52-.68,2.35.11-.37.31-.71.43-1.07.16-.48.2-.89.18-1.39Z"/>
          <path class="cls-14" d="M12.82,27.78s-.02.03-.04.03c-.17-.71-.28-1.47,0-2.18-.16.73-.14,1.42.04,2.14Z"/>
          <path class="cls-14" d="M17.62,28.17c.36.66.84,1.22.9,2s-.34,1.45-.46,2.21l.03.68s-.07-.2-.07-.21v-.67c0-.25.3-.89.38-1.2.13-.56.11-1-.1-1.54-.17-.45-.5-.83-.67-1.27Z"/>
          <path class="cls-14" d="M11.21,26.98c-.11-.52-.06-1.09.07-1.6.07.03.03.11.02.16-.08.47-.13.98-.09,1.44Z"/>
          <path class="cls-14" d="M25.43,20.78c-.03.08-.06-.03-.07-.05-.34-.75-.37-1.18-.51-1.96.16.43.16.89.29,1.33.07.23.17.47.28.69Z"/>
          <path class="cls-14" d="M17.33,30.15c-.07-1.62-1.65-2.15-.68-3.97l-.25.73c-.27,1.09.88,2.01.96,3.03,0,.06.02.17-.04.21Z"/>
          <path class="cls-14" d="M13.54,30.53c.02-.25.07-.46.06-.71-.02-.39-.15-.74-.24-1.11.3.73.37,1.05.18,1.82Z"/>
          <path class="cls-14" d="M14.33,32.77c-.07-.02-.07-.08-.09-.13-.34-.95.25-1.82.2-2.77-.04-.68-.41-1.29-.61-1.94.23.59.59,1.17.64,1.81.1,1.13-.51,1.81-.14,3.02Z"/>
          <path class="cls-14" d="M12.82,27.11c-.06-.03-.04-.12-.04-.18,0-.54.01-1.01.22-1.52.07.03.01.1,0,.14-.15.5-.21,1.03-.18,1.55Z"/>
          <path class="cls-14" d="M18.52,23.5c-.34-.65-.28-1.42.11-2.05-.16.4-.34.92-.28,1.36l.18.69Z"/>
          <path class="cls-14" d="M21.63,36.07c.1-.53.15-1.04,0-1.57.05-.07.05.03.05.06.12.61.14.91-.05,1.5Z"/>
          <path class="cls-14" d="M17.16,18.76c.06.03.04.12.04.18-.03.3-.11.6-.18.89l.07.02v.03s-.08-.01-.11.02c-.06.07-.15.38-.23.49-.03.04-.07.05-.09.07.02-.13.13-.22.19-.33.21-.44.21-.91.32-1.37Z"/>
          <path class="cls-14" d="M20.38,22.7c-.26-.81.08-1.45.36-2.21.06.02,0,.1,0,.14-.19.62-.45,1.04-.39,1.73,0,.11.1.24.04.33Z"/>
          <path class="cls-14" d="M14.65,27.97c-.21-.42-.22-1.15-.14-1.6.11.24-.04.5,0,.75l.14.85Z"/>
          <path class="cls-14" d="M21.6,31.37c.11-.47.14-.93.02-1.41-.06-.23-.21-.44-.27-.67.43.73.52,1.27.25,2.08Z"/>
          <path class="cls-14" d="M21.49,27.75l-.04.02c-.13-1.02.6-1.85.75-2.82l-.03-.72c.36,1.35-.83,2.23-.68,3.52Z"/>
          <path class="cls-14" d="M14.33,21.74c-.02-.47.05-.93.19-1.38.03-.1.06-.24.13-.31-.1.32-.2.68-.25,1.01-.03.22,0,.47-.08.68Z"/>
          <path class="cls-14" d="M14.07,24.68c-.07-.02,0-.1,0-.14.07-.23.24-.66.24-.87v-.8s-.03-.19-.04-.27c.22.7.05,1.41-.21,2.08Z"/>
          <path class="cls-14" d="M17.91,33.06c-.28-.7.1-1.45.32-2.13.02-.05,0-.12.08-.14-.05.41-.31.83-.38,1.24-.06.35-.06.68,0,1.03Z"/>
          <path class="cls-14" d="M14.18,32.87c-.32-.66-.26-1.31,0-1.98-.07.52-.24.94-.14,1.48.03.17.11.33.14.5Z"/>
          <path class="cls-14" d="M21.78,19.11c.12-.02.06.04.06.1.02.44-.12.86-.22,1.27,0,.03,0,.13-.05.06.14-.52.18-.91.21-1.44Z"/>
          <path class="cls-14" d="M23.96,34.05c-.12.02-.06-.05-.07-.11-.11-.66.04-1.2.36-1.79.02-.05.04-.09.1-.12-.34.76-.56,1.16-.39,2.02Z"/>
          <path class="cls-14" d="M19.81,26.38c.07.03.02.1,0,.15-.22.58-.28,1.06-.06,1.65.1.26.27.53.39.76-.12-.13-.23-.32-.3-.48-.37-.76-.34-1.31-.02-2.08Z"/>
          <path class="cls-14" d="M19.05,31.94c-.11.47-.14.9,0,1.38-.2-.49-.17-.9-.04-1.41.02,0,.03.03.04.03Z"/>
          <path class="cls-14" d="M12.1,23.05c.04-.41-.01-.81-.04-1.22.13.38.16.84.04,1.22Z"/>
          <path class="cls-2" d="M7.27,23.85c-.44-.04-.96-.03-1.4.06-.03-.16.07-.05.2-.06.36-.04.66-.09,1.04-.07.07,0,.13,0,.16.07Z"/>
          <path class="cls-14" d="M17.48,23.24c-.05-.04-.07-.11-.07-.18-.04-.36-.01-.79.11-1.14-.08.37-.09.93-.04,1.31Z"/>
          <path class="cls-14" d="M14.5,23.66c.03-.47-.06-.94-.11-1.41.04.04.05.1.06.15.08.42.12.84.05,1.25Z"/>
          <path class="cls-14" d="M18.37,27.65c-.08-.02-.05-.06-.05-.11-.04-1.1.72-1.73.51-2.93.39.88-.4,1.73-.47,2.57-.01.14,0,.33,0,.47Z"/>
          <path class="cls-14" d="M21.53,22.79c-.28-.53-.32-.81-.21-1.38v.68s.21.69.21.69Z"/>
          <path class="cls-14" d="M10.42,26.44c-.06-.03-.04-.12-.04-.18,0-.33.03-.65.11-.98.06.03.04.12.03.17-.06.32-.1.67-.1.98Z"/>
          <path class="cls-14" d="M17.01,24.68c.1-.03.09.14.09.19,0,.39-.11.7-.23,1.06-.02,0-.03-.03-.04-.03.15-.42.24-.78.18-1.22Z"/>
          <path class="cls-14" d="M15.15,23.78c-.04.72-.38,1.36-.6,2.04-.02.05-.03.1-.08.13.16-.71.59-1.33.6-2.09,0-.07-.03-.08.08-.09Z"/>
          <path class="cls-14" d="M15.9,31.3c.08-.5.24-.98.18-1.5,0,0,.03.04.04.08.04.47-.03.99-.22,1.43Z"/>
          <path class="cls-14" d="M12.46,31.49c-.13-.47.14-.95.18-1.42v-.72c.17.78-.17,1.37-.18,2.14Z"/>
          <path class="cls-14" d="M20.56,36.61c0,.27,0,.5.07.77-.13-.03-.5,0-.54-.1l.47.03c0-.2-.06-.41-.06-.61,0-.05,0-.08.06-.1Z"/>
          <path class="cls-14" d="M11.85,26.98c-.07-.04-.07-.11-.07-.17-.04-.66.08-1.29.35-1.89.03-.07.08-.19.15-.23-.36.91-.51,1.31-.43,2.3Z"/>
          <path class="cls-14" d="M24.14,25.83c.18-.52.29-.99.21-1.54.05.04.07.11.07.18.04.45-.06.96-.29,1.36Z"/>
          <path class="cls-14" d="M22.17,33.48c.11-.02.06.05.07.11.1.5.36.92.39,1.44.05.69-.2,1.18-.43,1.81.02-.28.2-.55.28-.83.32-1.19-.16-1.51-.31-2.53Z"/>
          <path class="cls-14" d="M12.79,20.39c-.08.49-.07.8-.04,1.28-.11.02-.07-.05-.07-.11-.01-.35-.02-.71.04-1.06.01-.06-.05-.13.07-.11Z"/>
          <path class="cls-14" d="M23.39,31.81c.12-.4.25-.81.24-1.23,0-.05-.05-.09.04-.11.03.45-.06.94-.29,1.34Z"/>
          <path class="cls-14" d="M15.22,23.05c-.06-.37-.13-.74-.14-1.12.12.08.06.22.07.34.03.21.07.41.1.62,0,.05.04.13-.03.17Z"/>
          <path class="cls-14" d="M15.36,27.46c-.06-.35-.07-.66.03-1.01.01-.05.02-.11.08-.14-.03.16-.09.38-.11.53-.02.21.03.42,0,.62Z"/>
          <path class="cls-6" d="M22.16,8.81h-.15s-.02,0-.02.02c-.07.4.05.97,0,1.39,0,0,.04-.05.04-.11,0-.42-.01-.83,0-1.25,0,0,.1-.04.14-.05Z"/>
          <path class="cls-14" d="M17.16,30.66c.03-.46-.02-.84-.14-1.28.19.38.28.88.14,1.28Z"/>
          <path class="cls-14" d="M11.64,21.83c.12-.02.06.05.07.11.04.25.05.42,0,.67-.01.06.04.13-.07.11.05-.31.05-.58,0-.9Z"/>
          <path class="cls-14" d="M20.77,28.23c-.2-.38-.22-.85-.14-1.26.01-.05.02-.11.07-.15-.09.48-.08.94.07,1.41Z"/>
          <path class="cls-14" d="M15.29,23.46c.06.33-.01.65-.07.99-.02,0-.03-.03-.04-.03.07-.28.04-.59.07-.86l.04-.03s0-.04,0-.06Z"/>
          <path class="cls-14" d="M21.96,28.65c-.3-.56-.4-.98-.29-1.6.07.03.03.11.03.17-.03.22-.05.43,0,.65l.25.79Z"/>
          <path class="cls-14" d="M12.46,28.45c.29.66.48,1.08.35,1.83,0,.05,0,.24-.1.21.03-.25.12-.49.11-.75-.02-.44-.22-.88-.36-1.3Z"/>
          <path class="cls-14" d="M22.38,25.1c-.05-.12,0-.26,0-.4,0-.16-.06-.43-.11-.59.08.02.06.08.08.14.08.33.07.53.03.85Z"/>
          <path class="cls-14" d="M13.65,22.25c-.05-.4-.1-.77-.07-1.18l.1,1.02-.03.17Z"/>
          <path class="cls-6" d="M21.06,15.66c-.34,0-.63,0-.97.04s-.64.16-.96.25c.59-.27,1.08-.33,1.74-.32.06,0,.16-.02.2.03Z"/>
          <path class="cls-14" d="M18.98,35.94c0,.09,0,.18-.02.27l.06.57c-.1-.24-.12-.47-.11-.72,0-.06-.04-.13.07-.11Z"/>
          <path class="cls-14" d="M22.28,20.17c.02-.31-.05-.65.04-.96.05.37.02.6-.04.96Z"/>
          <path class="cls-6" d="M25.39,10.54l-.07.05c0-.29-.04-.6-.11-.88.13.25.16.56.18.83Z"/>
          <path class="cls-14" d="M13.36,31.91c.1.59.28.92.57,1.44-.27-.33-.47-.71-.56-1.11-.02-.08-.06-.25,0-.33Z"/>
          <path class="cls-14" d="M20.56,20.55c.15-.48.25-1.01.5-1.44-.2.47-.26.99-.5,1.44Z"/>
          <path class="cls-14" d="M13.97,25.29c-.18.54-.36,1.16-.3,1.72.01.09.03.09-.06.04-.03-.59.09-1.22.36-1.76Z"/>
          <path class="cls-14" d="M17.3,30.76c.06.03.04.12.03.17-.05.28-.18.55-.24.82-.02,0-.03-.03-.04-.03.06-.32.2-.63.25-.96Z"/>
          <path class="cls-14" d="M18.05,24.84c.08.57-.01.9-.25,1.44-.02,0-.03-.03-.04-.03.19-.46.33-.91.29-1.41Z"/>
          <path class="cls-14" d="M18.8,35.94c-.1-.14,0-.31,0-.46,0-.18-.01-.41-.04-.59.15.32.04.72.04,1.06Z"/>
          <path class="cls-14" d="M20.16,31.94c-.1.32-.13.58-.14.91,0,.06.04.13-.07.11-.02-.39.08-.67.21-1.02Z"/>
          <path class="cls-14" d="M11.93,31.14c.08.54.14.96.57,1.36,0,0,.12.18.11.03,0-.13-.15-.4-.18-.58-.01-.1-.06-.3.03-.36,0,.18.02.34.05.51l.25.7c-.54-.42-.79-.86-.87-1.5,0-.05-.04-.13.03-.17Z"/>
          <path class="cls-14" d="M15.19,33.29c-.35-.58-.46-1.08-.29-1.73.04.09-.04.22-.04.27v.51c0,.08.09.4.13.5.05.15.17.29.2.45Z"/>
          <path class="cls-14" d="M21.42,33.99c-.22-.39-.31-.78-.25-1.22.07.16.02.35.05.52.03.22.13.48.2.7Z"/>
          <path class="cls-14" d="M13.5,26.38c.03-.49.14-.71.32-1.15l-.32,1.15Z"/>
          <path class="cls-14" d="M12.14,21.19c-.08-.25-.03-.55,0-.8.06.05.04.17.04.24,0,.18-.04.39-.04.56Z"/>
          <path class="cls-14" d="M16.19,23.91c-.06.26-.05.51-.13.77-.01.04-.05.06-.05.06.07-.32.11-.64.11-.96.07,0,.05.1.07.13Z"/>
          <path class="cls-14" d="M22.38,20.55c-.03.21-.07.41-.11.62-.01.06.04.13-.07.11.02-.23.08-.53.18-.74Z"/>
          <path class="cls-14" d="M18.23,23.14c-.11-.29-.17-.6-.07-.9-.03.3.03.6.07.9Z"/>
          <path class="cls-14" d="M12.79,25.61c.12-.51.4-.94.57-1.43.1-.3.14-.61.22-.91,0,.34-.06.57-.18.91l-.61,1.43Z"/>
          <path class="cls-14" d="M16.58,19.4c-.07-.16,0-.41.03-.59.04-.21.07-.49.22-.66-.12.44-.16.81-.25,1.25Z"/>
          <path class="cls-14" d="M20.7,26.79c.18-.92.8-1.4.5-2.46.03-.08.06.04.06.06.07.39.07.75-.03,1.14l-.53,1.27Z"/>
          <path class="cls-14" d="M23.82,26.66c-.11.35-.21.69-.18,1.06,0,0,0,.04-.04.03-.02-.34.02-.66.13-.99.02-.05,0-.11.09-.1Z"/>
          <path class="cls-14" d="M17.55,28.39s-.08-.09-.09-.11c-.2-.34-.29-.86-.19-1.24-.01.35.02.73.15,1.06.04.09.15.17.13.28Z"/>
          <path class="cls-14" d="M18.3,30.69c.02-.27-.03-.56-.04-.83.02.07.06.13.07.24.02.17.02.43-.04.59Z"/>
          <path class="cls-14" d="M20.13,22.09c-.04-.38.17-1.01.34-1.38.02-.05.03-.11.09-.13-.15.5-.39.98-.43,1.5Z"/>
          <path class="cls-14" d="M16.33,21.03c-.06.17-.12.39-.14.56,0,.06.05.13-.07.11.03-.22.07-.49.21-.67Z"/>
          <path class="cls-14" d="M21.13,21.7c-.09-.13-.02-.32.01-.45.04-.2.12-.47.24-.63-.1.38-.23.69-.25,1.09Z"/>
          <path class="cls-14" d="M24.68,31.3l.07-.96c.05.33.02.63-.07.96Z"/>
          <path class="cls-14" d="M17.44,27.72c-.04-.21-.07-.57,0-.77.09.09,0,.23,0,.34,0,.14.07.31,0,.43Z"/>
          <path class="cls-14" d="M21.92,17.58c-.37.01-.74-.02-1.11,0,.04-.05.14-.03.2-.03.31,0,.61,0,.91.03Z"/>
          <path class="cls-14" d="M22.46,19.18l-.07-.22c.19.05.22-.1.41-.07.04,0,.05.1.06.13-.07-.13-.27,0-.39-.03.03.07,0,.14,0,.19Z"/>
          <path class="cls-14" d="M11.03,26.82c.09.23.11.48.19.71.17.53.5,1.02.63,1.56-.11-.03-.12-.15-.18-.22h.04s0,.03.02.03c.04,0,0-.05-.02-.03-.2-.72-.63-1.28-.68-2.05Z"/>
          <path class="cls-14" d="M22.71,30.09s.02-.03.04-.03c.04.22.05.4.05.62,0,.05.07.1-.05.09,0-.23,0-.45-.04-.67Z"/>
          <path class="cls-14" d="M22.53,27.78c-.08-.41,0-.68.14-1.06-.08.35-.17.7-.14,1.06Z"/>
          <path class="cls-14" d="M23.46,35.52l-.04-.86s0-.04.04-.03c.04.3.07.6,0,.9Z"/>
          <path class="cls-14" d="M14.58,28.1c-.11.07-.05.01-.07-.05-.1-.31-.17-.46-.18-.78.06.28.16.55.25.83Z"/>
          <path class="cls-14" d="M22.64,31.53c.04-.24.09-.45.11-.7.07.14.02.4-.02.55-.02.08-.07.12-.09.16Z"/>
          <path class="cls-14" d="M13.57,23.24c0-.21-.02-.39-.04-.59,0-.06-.02-.17.04-.21.03.26.08.55,0,.8Z"/>
          <path class="cls-14" d="M16.9,23.08s.02.1-.04.1c.04-.22-.13-.47.04-.67-.01.19.01.39,0,.58Z"/>
          <path class="cls-14" d="M12.82,27.27l.08.11.25.89c-.11-.28-.29-.7-.32-.99Z"/>
          <path class="cls-14" d="M21.2,32.13c-.09.3-.17.48-.18.8-.13.01-.04-.03-.04-.08.02-.23.04-.4.13-.62.02-.05,0-.11.09-.09Z"/>
          <path class="cls-14" d="M15.15,30.6c-.09-.09,0-.23,0-.33,0-.13,0-.33,0-.47.07.25.04.55,0,.8Z"/>
          <path class="cls-14" d="M21.56,35.59l-.04-.9c.07.29.12.6.04.9Z"/>
          <path class="cls-14" d="M20.16,19.98c.11-.35.24-.69.45-.99l.52-.03c.04.08-.07.12-.07.13.02-.1-.05-.06-.12-.06-.31,0-.34,0-.47.26-.11.21-.2.48-.3.7Z"/>
          <path class="cls-14" d="M16.12,18.79l.54-1.31c.17.01.29.14.47.13,0,0-.03.05-.04.06l-.39-.13c-.12.39-.29.78-.49,1.15-.02.04-.07.07-.09.1Z"/>
          <path class="cls-14" d="M19.09,31.88s0-.17.02-.22c.09-.28.2-.55.27-.83,0,.35-.17.72-.29,1.06Z"/>
          <path class="cls-14" d="M16.8,32.61c-.06-.03-.04-.12-.04-.18,0-.18-.04-.41.07-.56-.03.24-.05.49-.04.74Z"/>
          <path class="cls-14" d="M23.75,30.12c.11-.02.07.05.08.11.04.22.02.3,0,.5,0-.2-.03-.41-.07-.61Z"/>
          <path class="cls-6" d="M14.25,14.25c-.09-.13-.15-.36-.18-.51.1-.06.06-.03.08.04.04.15.06.32.1.47Z"/>
          <path class="cls-14" d="M22.17,33.44c-.02-.19-.05-.38,0-.58.06.16.06.41,0,.58Z"/>
          <path class="cls-14" d="M12.25,19.88c.14-.58.38-1.11.68-1.63l-.68,1.63Z"/>
          <path class="cls-14" d="M15.08,21.54c0-.18.03-.36.07-.54,0,.08.02.28,0,.4,0,.06.01.12-.07.14Z"/>
          <path class="cls-14" d="M16.98,32.58s-.03-.16.04-.16c-.01.14.01.28.05.42.07.27.22.52.35.76-.23-.27-.42-.68-.43-1.02Z"/>
          <path class="cls-14" d="M20.84,16.11c.02.1-.05.06-.12.06-.17,0-.41-.04-.52-.03.22.03.43-.04.64-.03Z"/>
          <path class="cls-14" d="M13.93,28.61s-.09-.06-.1-.07c-.09-.16-.18-.57-.23-.76.13.27.21.56.32.83Z"/>
          <path class="cls-14" d="M19.2,21.93c-.05.21-.05.49-.04.7l-.04-.5.07-.21Z"/>
          <path class="cls-14" d="M12.96,20.17c.04-.4.24-.79.41-1.15.02-.05.03-.11.09-.13-.19.42-.37.84-.5,1.28Z"/>
          <path class="cls-14" d="M12.43,18.95c-.2.48-.32.97-.43,1.47.02-.51.23-.89.29-1.37l.14-.1Z"/>
          <path class="cls-14" d="M11.39,27.56c-.08-.1-.17-.36-.18-.48.1-.06.06-.03.08.04.04.14.07.29.1.44Z"/>
          <path class="cls-14" d="M21.6,19.63c.02-.21.04-.43.04-.64.06.02.04.33.04.4,0,.08-.02.18-.07.24Z"/>
          <path class="cls-14" d="M23.35,24.49c.02.19.03.44-.07.61.02-.16.04-.37.03-.53,0-.06-.09-.09.04-.08Z"/>
          <path class="cls-14" d="M15.11,20.58c-.02.18-.07.36-.11.54-.1-.18.09-.39.07-.58.02,0,.03.03.04.03Z"/>
          <path class="cls-14" d="M20.56,36.29c.02-.19.07-.36.11-.54,0,.18,0,.39-.11.54Z"/>
          <path class="cls-14" d="M15.62,21.74c.01.21,0,.43,0,.64,0-.01-.03-.05-.04-.11-.02-.2.02-.43,0-.63.06,0,.03.06.04.1Z"/>
          <path class="cls-14" d="M20.95,16.14c.24,0,.48,0,.72,0,.1.05-.06.03-.09.03-.23,0-.45,0-.68,0-.06-.04.03-.03.05-.03Z"/>
          <path class="cls-14" d="M22.24,21.86c-.04-.18-.05-.36-.04-.54.1.03.05.07.05.12,0,.13.04.3-.01.42Z"/>
          <path class="cls-14" d="M16.19,30.95c-.02.11-.02.18-.05.29-.01.05-.03.24-.13.22.03-.15.1-.37.18-.51Z"/>
          <path class="cls-14" d="M21.27,37.22c-.05.09-.04-.06-.04-.08,0-.22.02-.32.07-.53.01.21-.05.4-.04.61Z"/>
          <path class="cls-14" d="M18.84,24.58c-.09-.07-.12-.23-.15-.33-.01-.04-.07-.15-.03-.18.08.18.14.31.18.51Z"/>
          <path class="cls-14" d="M19.38,21.9c.09-.42.26-.73.43-1.12l-.43,1.12Z"/>
          <path class="cls-14" d="M18.98,35.72v-.7c.06.22.05.48,0,.7Z"/>
          <path class="cls-14" d="M11.67,24.49l.54-1.15c-.09.44-.33.76-.54,1.15Z"/>
          <path class="cls-14" d="M17.01,31.78c.12-.01.05.02.04.08-.02.09-.03.17-.04.25,0,.06.04.13-.07.11,0-.13.04-.32.07-.45Z"/>
          <path class="cls-6" d="M23.96,8.97c-.42-.04-.89-.02-1.29-.13.43,0,.87.08,1.29.13Z"/>
          <path class="cls-14" d="M15.4,28.1l-.14-.27c-.06-.15-.06-.28-.07-.43.09.23.12.47.21.7Z"/>
          <path class="cls-14" d="M16.94,35.3s.03.04.03.08c0,.12-.06.3-.03.43l-.18-.19.14.06.04-.38Z"/>
          <path class="cls-14" d="M21.56,30.44c-.11.02-.03-.09-.07-.17-.01-.02-.04-.03-.07-.02-.02-.05.05-.02.07-.03.03-.03-.19-.61-.23-.7-.1-.22-.23-.42-.34-.64.33.47.61,1,.64,1.57Z"/>
          <path class="cls-14" d="M12.68,30.85c-.01.12-.02.24-.04.37,0,.06.05.13-.07.11,0-.14.03-.37.11-.48Z"/>
          <path class="cls-14" d="M22.03,36.96c-.07-.03-.02-.11-.01-.15.08-.35.23-.65.33-1.01.01-.05,0-.11.07-.14-.07.48-.32.86-.39,1.31Z"/>
          <path class="cls-14" d="M11.17,21.99c-.09-.16-.19-.44-.11-.61.02.2.08.4.11.61Z"/>
          <path class="cls-6" d="M16.8,9.07c-.05.15-.06.05-.15.07-.6.11-1.24.31-1.78.57.09-.09.25-.15.37-.2.47-.19,1.06-.36,1.56-.44Z"/>
          <path class="cls-6" d="M18.12,8.91c-.25.03-.5.08-.75.11-.05,0-.15.04-.18-.02.21-.03.42-.06.63-.09.08-.01.23-.05.3,0Z"/>
          <path class="cls-14" d="M19.81,35.08l-.07.05c-.02-.54-.35-1.01-.59-1.49-.03-.05-.13-.2-.06-.25.21.51.66,1.18.72,1.7Z"/>
          <path class="cls-14" d="M12.32,28.49c-.24-.5-.41-.84-.47-1.41l.47,1.41Z"/>
          <path class="cls-14" d="M14.36,26.44s-.03-.02-.02-.04c.01-.11.05-.32.13-.41-.03.14-.03.32-.11.45Z"/>
          <path class="cls-14" d="M17.66,25.77c-.07-.03-.02-.11-.02-.16.02-.15,0-.31.05-.45.02.2,0,.41-.04.61Z"/>
          <path class="cls-14" d="M21.06,33.51c-.05-.14-.15-.38-.04-.51,0,.18.03.34.04.51Z"/>
          <path class="cls-14" d="M15.94,24.49c-.05.31-.19.66-.3.96-.02.05-.02.11-.09.13.11-.32.25-.64.32-.98.01-.06-.05-.13.07-.11Z"/>
          <path class="cls-14" d="M13.43,31.01c-.02.12-.01.24-.04.37-.01.06.05.13-.07.11,0-.14.05-.35.11-.48Z"/>
          <path class="cls-14" d="M22.35,25.29c-.1.47-.34.92-.51,1.38-.02.05,0,.1-.1.09l.61-1.47Z"/>
          <path class="cls-14" d="M16.83,31.81c.04-.29.16-.55.25-.83l-.05.32-.2.51Z"/>
          <path class="cls-14" d="M15.19,26.79c-.02.17,0,.4,0,.58-.08-.18-.01-.4-.04-.59l.04.02Z"/>
          <path class="cls-14" d="M22.1,33.67c-.11.02-.07-.05-.08-.11-.02-.12-.08-.29,0-.41,0,.21.03.32.07.51Z"/>
          <path class="cls-14" d="M17.91,35.65c0,.35-.04.53.1.89.03.09.11.14.12.23-.02.02-.24-.1-.29-.13l.18.03c-.13-.3-.19-.59-.18-.91,0-.06-.04-.13.07-.11Z"/>
          <path class="cls-14" d="M15.83,34.34s.06.06.08.11c.12.27.17.57.21.85-.04.04-.33-.13-.39-.16l.32.1c.07-.06-.16-.77-.21-.9Z"/>
          <path class="cls-14" d="M23.32,34.88c.01.17.01.41,0,.58-.07-.15-.03-.33-.04-.49,0-.06-.09-.09.04-.08Z"/>
          <path class="cls-14" d="M19.23,31.85c.07.03.01.1,0,.15-.03.13-.06.25-.08.38-.01.06.04.13-.07.11.01-.18.08-.46.14-.64Z"/>
          <path class="cls-14" d="M23.07,28.74c-.22-.28-.31-.6-.36-.93l.04-.02c.03.34.17.64.32.94Z"/>
          <path class="cls-14" d="M20.13,33.57c-.08-.19-.16-.37-.18-.58.15.14.1.4.18.58Z"/>
          <path class="cls-14" d="M16.19,26.85c-.02.18.01.39,0,.58-.03-.18-.04-.31-.04-.5,0-.02-.02-.17.04-.08Z"/>
          <path class="cls-14" d="M17.12,33.44s-.02.03-.04.03c-.09-.24-.2-.38-.25-.64l.29.61Z"/>
          <path class="cls-14" d="M15.97,24.26c-.06-.16-.06-.41,0-.58.02.16.01.42,0,.58Z"/>
          <path class="cls-14" d="M22.81,37.28c.19-.05.45-.02.57-.19-.02.03-.01.08-.04.11-.07.08-.34.09-.46.1-.03,0-.07.04-.07-.02Z"/>
          <path class="cls-14" d="M18.05,36.2c.15.09.08.21.12.33,0,.02.19.31.21.33.05.04.54.21.57.18.02-.05-.03-.09-.04-.13l.16.22c-.2-.08-.59-.14-.74-.27,0,0-.14-.18-.15-.19-.07-.13-.12-.33-.13-.47Z"/>
          <path class="cls-14" d="M14.33,26.73c0,.16,0,.35,0,.51-.08-.15-.01-.36-.04-.53l.04.02Z"/>
          <path class="cls-14" d="M15.62,19.79c-.15.35-.3.71-.39,1.08-.01.06.03.13-.08.11,0-.1.17-.56.21-.69.06-.16.15-.35.25-.5Z"/>
          <path class="cls-14" d="M25.82,21.48c.11-.05-.1-.16-.11-.18s0-.06,0-.07l.39.43c-.13,0-.22-.13-.29-.18Z"/>
          <path class="cls-14" d="M17.08,35.84c0-.18,0-.36,0-.54.06.15.06.39,0,.54Z"/>
          <path class="cls-14" d="M15.15,29.67c-.08-.02-.07-.08-.08-.14-.03-.15-.06-.3-.1-.44.09.18.16.38.18.58Z"/>
          <path class="cls-14" d="M22.46,35.46c-.06-.15-.06-.39,0-.54.02.15.01.39,0,.54Z"/>
          <path class="cls-2" d="M10.6,23.88c-.18.35-.35.7-.5,1.06.06-.33.21-.6.37-.9l.13-.15Z"/>
          <path class="cls-14" d="M14.93,16.33c.06.04.39.32.4.34.02.11-.23.53-.29.65,0-.19.25-.46.22-.62-.02-.09-.25-.28-.32-.37Z"/>
          <path class="cls-14" d="M21.13,24.68c.07.78-.4,1.45-.61,2.18.11-.75.61-1.26.57-2.09,0-.06-.09-.09.04-.08Z"/>
          <path class="cls-14" d="M19.3,22.6c-.02-.18.01-.35.04-.51-.02.16.05.37-.04.51Z"/>
          <path class="cls-14" d="M22.28,32.49c.07-.24.16-.47.25-.7.07.05-.02.18-.04.24-.06.15-.12.33-.21.47Z"/>
          <path class="cls-14" d="M12.96,19.59c-.03.21-.1.4-.14.61-.07-.2.11-.44.11-.64.02,0,.03.03.04.03Z"/>
          <path class="cls-14" d="M14.97,25.13c-.02.06-.16.4-.14.42.03.02.15-.04.14.03-.25-.04-.16.06-.23.19-.02.03-.05.05-.05.06.06-.24.15-.49.29-.7Z"/>
          <path class="cls-14" d="M23.64,30.37l-.03.02c0-.25-.1-.48-.2-.71-.01-.03-.06-.12-.01-.13.16.31.21.49.25.83Z"/>
          <path class="cls-14" d="M15.76,23.02c-.04.08-.06-.04-.06-.06-.04-.17-.14-.39-.05-.55.04.21.05.39.11.61Z"/>
          <path class="cls-14" d="M18.77,34.85c-.05-.1-.18-.29-.11-.38.05.13.09.25.11.38Z"/>
          <path class="cls-14" d="M23.24,35.84c-.03.13-.09.23-.14.35-.02-.07.04-.37.14-.35Z"/>
          <path class="cls-14" d="M20.09,25.64c.03-.15.05-.31.11-.45,0,.15.03.33-.11.45Z"/>
          <path class="cls-14" d="M17.91,35.62c-.06-.13-.06-.36,0-.48.01.15,0,.33,0,.48Z"/>
          <path class="cls-14" d="M13.22,31.81c0,.05,0,.11,0,.16-.11.02-.07-.05-.07-.11s0-.13,0-.19c.03-.04.07.14.07.14Z"/>
          <path class="cls-14" d="M19.27,23.02c-.12-.07-.1-.24-.11-.35.07.1.08.24.11.35Z"/>
          <path class="cls-14" d="M15.79,32.04c-.06-.15-.01-.43.07-.58-.03.19-.06.38-.07.58Z"/>
          <path class="cls-14" d="M20.02,24.71c-.12.02-.05-.08-.07-.14,0-.03-.02-.06-.04-.13-.16-.51-.49-.91-.64-1.4.26.55.64,1.06.75,1.66Z"/>
          <path class="cls-14" d="M15.33,18.73c-.11.21-.23.41-.32.63l-.18.27c.14-.31.29-.62.5-.9Z"/>
          <path class="cls-14" d="M18.91,36.87c-.13-.06-.1-.21-.11-.32.07.09.08.22.11.32Z"/>
          <path class="cls-14" d="M20.74,34.6c-.09-.29-.25-.55-.36-.83.06.02.09.06.11.11.07.14.13.29.19.43.03.06.1.23.05.29Z"/>
          <path class="cls-14" d="M20.67,36.96c-.01-.13-.01-.32,0-.45.06.11.06.34,0,.45Z"/>
          <path class="cls-14" d="M16.9,35.04c-.03-.14-.07-.31-.11-.45.1.13.12.29.11.45Z"/>
          <path class="cls-14" d="M23.03,21.64c-.05-.11-.1-.29-.11-.41,0-.08.03-.1.03-.11.04.15.04.37.07.51Z"/>
          <path class="cls-14" d="M20.77,17.58c-.09,0-.19.02-.29.03-.04-.1.22-.08.29-.03Z"/>
          <path class="cls-2" d="M7.27,20.62v-.42c.04.2.04.21,0,.42Z"/>
          <path class="cls-14" d="M24.86,18.73c-.11-.22-.14-.47-.21-.7.13.22.17.46.21.7Z"/>
          <path class="cls-14" d="M17.48,26.92c0-.12.06-.27.11-.38.07.11-.07.28-.11.38Z"/>
          <path class="cls-14" d="M20.27,18.92s-.02.03-.05.03c-.21,0-.14-.1-.34.07.06-.22.21-.14.39-.1Z"/>
          <path class="cls-14" d="M15.47,26.28c.08-.33.18-.63.36-.93l-.36.93Z"/>
          <path class="cls-14" d="M11.21,19.24c-.06.21-.11.36-.14.58-.06-.15.03-.38.07-.53.02-.06-.04-.11.07-.05Z"/>
          <path class="cls-14" d="M16.4,19.91l-.57,1.06c.14-.38.41-.73.54-1.09.04,0,.03.03.04.03Z"/>
          <path class="cls-14" d="M22.21,32.84c0-.1,0-.23.07-.32-.02.09-.05.21-.07.32Z"/>
          <path class="cls-14" d="M23.21,25.86c-.03.09-.04.18-.08.26l-.21.38c.08-.21.16-.45.29-.64Z"/>
          <path class="cls-14" d="M21.35,19.02c-.1,0-.17.23-.2.32-.03.09-.03.2-.05.29-.01,0-.03-.03-.04-.03.02-.17.08-.42.17-.57.05-.07.05-.04.12,0Z"/>
          <path class="cls-14" d="M15.62,19.75c.08-.18.16-.34.25-.51.06.02-.02.12-.03.15-.06.12-.13.27-.22.36Z"/>
          <path class="cls-14" d="M18.55,23.53s.04,0,.05.03c.13.24.21.45.3.66.01.04.07.11,0,.14-.1-.29-.27-.54-.36-.83Z"/>
          <path class="cls-14" d="M20.41,34.18c-.05-.06-.14-.16-.16-.22-.02-.05,0-.1-.02-.13.1.09.13.23.18.35Z"/>
          <path class="cls-14" d="M21.45,31.85c.03-.09.04-.19.07-.29.07.06-.02.22-.07.29Z"/>
          <path class="cls-14" d="M21.6,18.99c-.05.13-.18.03-.21.03.03-.05.16-.04.21-.03Z"/>
          <path class="cls-14" d="M11.07,25.67c.01-.15.02-.15.07-.29,0,.09,0,.21-.07.29Z"/>
          <path class="cls-14" d="M24.07,35.78c-.1.37-.21.51-.39.83l.23-.45c.04-.11.07-.21.1-.32,0-.02.02-.14.06-.06Z"/>
          <path class="cls-14" d="M14.4,17.29c-.23.45-.5.89-.79,1.31l.79-1.31Z"/>
          <path class="cls-14" d="M16.33,21c.05-.14.1-.27.21-.38-.06.13-.09.29-.21.38Z"/>
          <path class="cls-14" d="M18.95,34.95c-.06-.23-.13-.45-.21-.67.1.18.18.32.23.52.01.05.06.12-.01.15Z"/>
          <path class="cls-14" d="M23.35,24.46c-.12.02-.06-.05-.07-.11-.04-.19-.11-.41-.18-.59.12.19.23.49.25.7Z"/>
          <path class="cls-14" d="M14.15,17.42l.14-.34c.2-.29.37-.63.44-.97,0,.01.08.02.06.07-.15.44-.4.84-.63,1.25Z"/>
          <path class="cls-14" d="M13.61,27.11c.12-.03.06.16.07.26-.04-.06-.07-.19-.07-.26Z"/>
          <path class="cls-14" d="M17.26,27.01c0-.09-.02-.2.07-.26-.01.09,0,.18-.07.26Z"/>
          <path class="cls-14" d="M20.2,24.9c-.07-.07-.03-.18-.04-.26-.04-.19-.16-.49-.24-.66.03-.07.08.09.08.1.12.31.19.5.2.83Z"/>
          <path class="cls-14" d="M15.4,34.85c.1.05.07.19.21.19l-.04.03s-.1-.03-.14-.08-.03-.09-.04-.14Z"/>
          <path class="cls-14" d="M13.93,33.38c.11-.02.05.07.09.1.04.02.11.02.16.03l-.11.1c-.04-.08-.1-.14-.14-.22Z"/>
          <path class="cls-2" d="M7.56,17.23c.07.02,0,.09-.02.13-.04.09-.11.2-.14.29-.03.07,0,.24-.13.22.06-.19.19-.46.29-.64Z"/>
          <path class="cls-14" d="M16.19,33.16c-.13-.15-.2-.39-.21-.58.06.19.14.39.21.58Z"/>
          <path class="cls-14" d="M16.62,28.55l-.16-.2-.06-.22c.07.14.15.28.21.42Z"/>
          <path class="cls-14" d="M20.38,33.73c-.1-.14-.17-.35-.18-.51.05.17.12.35.18.51Z"/>
          <path class="cls-14" d="M20.09,25.67c-.04.18-.09.36-.14.54-.04,0-.03-.03-.04-.03l.18-.51Z"/>
          <path class="cls-14" d="M23.21,25.42c-.08.28-.21.53-.32.8-.05-.02,0-.12.02-.16.08-.21.18-.36.24-.58,0-.02.02-.14.06-.06Z"/>
          <path class="cls-14" d="M15.87,18.92c.07-.15.11-.37.25-.48-.07.16-.14.34-.25.48Z"/>
          <path class="cls-14" d="M20.16,17.64c-.18.04-.32.12-.5.16.13-.08.19-.1.35-.16.05-.02.12-.07.16,0Z"/>
          <path class="cls-14" d="M17.33,26.73c.01-.07,0-.14.04-.21l.21-.53c-.07.25-.13.5-.25.74Z"/>
          <path class="cls-6" d="M21.49,10.83c-.06-.06-.04-.2-.04-.29.06.06.04.2.04.29Z"/>
          <path class="cls-14" d="M14.72,28.2c.1-.02.07.05.09.1.13.29.31.61.39.9.01.05.06.12-.01.15-.09-.32-.44-.95-.47-1.15Z"/>
          <path class="cls-14" d="M21.49,34.6c-.04.08-.04-.04-.05-.06-.02-.08-.1-.22-.06-.29.04.12.07.23.11.35Z"/>
          <path class="cls-14" d="M19.34,21.48c.1-.33.21-.53.36-.83l-.36.83Z"/>
          <path class="cls-14" d="M17.73,17.58c-.17.23-.26.49-.43.7.09-.25.23-.51.43-.7Z"/>
          <path class="cls-14" d="M13.61,27.75c-.1-.09-.1-.26-.11-.38.06.11.08.26.11.38Z"/>
          <path class="cls-14" d="M18.01,24.62l-.32-.77s0-.04.04-.03c.1.28.22.51.29.8Z"/>
          <path class="cls-14" d="M13.5,27.05c0,.08,0,.17,0,.26l-.07-.27.07.02Z"/>
          <path class="cls-14" d="M21.13,22.02c-.01-.06-.1-.18,0-.26,0,.09,0,.17,0,.26Z"/>
          <path class="cls-14" d="M11.82,23.88c.09-.21.15-.43.25-.64-.05.22-.11.45-.25.64Z"/>
          <path class="cls-14" d="M13.72,19.88c-.04-.06.03-.22.06-.29.06-.16.15-.28.23-.42-.11.23-.19.47-.29.7Z"/>
          <path class="cls-14" d="M19.45,19.79c-.04.11-.06.21-.12.33-.02.05,0,.1-.1.09.06-.14.12-.29.21-.42Z"/>
          <path class="cls-14" d="M13.72,20.39c.01-.15.05-.31.11-.45.06.13-.07.32-.11.45Z"/>
          <path class="cls-14" d="M18.09,20.84l-.57,1.06c.04-.26.42-.81.57-1.06Z"/>
          <path class="cls-14" d="M16.8,34.56c-.11-.15-.17-.35-.25-.51.13.15.2.33.25.51Z"/>
          <path class="cls-14" d="M19.95,37.06c.12-.01.12.13.14.19-.11.02-.06-.05-.08-.1-.02-.03-.06-.07-.06-.09Z"/>
          <path class="cls-14" d="M23.32,36c.06.18-.13.34-.14.51-.02,0-.03-.03-.04-.03.06-.16.13-.32.18-.48Z"/>
          <path class="cls-14" d="M13.79,27.91c-.02-.05-.02-.11-.04-.16.08.02.11.12.04.16Z"/>
          <path class="cls-14" d="M21.49,22.98c-.16-.24-.24-.34-.33-.62-.01-.04-.06-.12,0-.15.07.28.18.51.32.77Z"/>
          <path class="cls-14" d="M16.83,18.12s0-.07,0-.11c.02-.04.06-.05.07-.05,0,.06-.01.13-.07.16Z"/>
          <path class="cls-6" d="M24.39,9.04s.08-.01.11.03c0,0-.11.04-.18,0-.01-.05.02-.03.07-.03Z"/>
          <path class="cls-14" d="M16.83,28.97c-.08-.14-.14-.24-.21-.38.11.08.17.26.21.38Z"/>
          <path class="cls-14" d="M23.21,25.83c.06-.17.13-.34.18-.51.06.05-.01.21-.04.27-.03.08-.08.18-.14.24Z"/>
          <path class="cls-6" d="M15.79,16.43c-.14-.11-.24-.2-.36-.32.15.08.26.18.36.32Z"/>
          <path class="cls-14" d="M15.33,34.63l-.25-.54c.12.2.19.33.25.54Z"/>
          <path class="cls-14" d="M13.57,20.33c-.08-.1.06-.31.11-.42-.02.14-.07.28-.11.42Z"/>
          <path class="cls-14" d="M17.01,29.35c-.1-.08-.11-.21-.14-.32.07.12.1.18.14.32Z"/>
          <path class="cls-14" d="M13.75,27.72c-.08-.09-.06-.22-.07-.32.06.09.05.22.07.32Z"/>
          <path class="cls-14" d="M15.79,28.61c-.1-.18-.2-.39-.25-.58.07.15.16.3.23.45.01.03.08.11.02.13Z"/>
          <path class="cls-14" d="M16.22,27.53c.01.07.03.15.04.22l-.11-.21.07-.02Z"/>
          <path class="cls-14" d="M16.37,17.96c-.06.15-.15.32-.25.45.04-.1.07-.2.12-.29.02-.05.05-.17.13-.15Z"/>
          <path class="cls-14" d="M13.22,31.46s0,.04,0,.06l-.07.02v-.11s.07.03.07.03Z"/>
          <path class="cls-14" d="M19.23,19.91c-.06-.02,0-.1,0-.14.13-.31.23-.53.46-.79-.23.28-.32.61-.47.93Z"/>
          <path class="cls-6" d="M14.61,15.08c-.17-.24-.28-.53-.36-.8.15.25.23.55.36.8Z"/>
          <path class="cls-14" d="M14.72,28.17l-.04-.13c.09.14.03.06.04.13Z"/>
          <path class="cls-14" d="M14.5,33.16c-.11-.1-.14-.23-.18-.35.1.1.13.24.18.35Z"/>
          <path class="cls-14" d="M16.83,32.81c-.06-.03-.03-.11-.04-.16,0,0,.03.11.04.16Z"/>
          <path class="cls-14" d="M15.58,17.93c.06-.13.12-.26.18-.38-.01.13-.09.27-.18.38Z"/>
          <path class="cls-14" d="M15.51,33.54c.09-.02.07.04.1.08.05.08.1.16.16.25.01.02.09.11.03.12-.08-.15-.2-.29-.29-.45Z"/>
          <path class="cls-14" d="M14.83,33.96c-.16-.16-.25-.36-.36-.54.14.17.25.36.36.54Z"/>
          <path class="cls-14" d="M13.9,19.82c.07-.29.24-.57.39-.83-.14.27-.28.56-.39.83Z"/>
          <path class="cls-14" d="M13.72,16.81c-.06,0,.02-.09.03-.12.09-.16.21-.36.29-.52-.08.22-.2.44-.32.64Z"/>
          <path class="cls-6" d="M24.75,9.16c-.08-.03-.21,0-.18-.1.07.01.13.07.18.1Z"/>
          <path class="cls-14" d="M23.07,21.8l-.04-.13s.02.09.04.13Z"/>
          <path class="cls-14" d="M11.07,25.86c-.05-.01-.06-.11,0-.13,0,.04,0,.09,0,.13Z"/>
          <path class="cls-14" d="M19.34,31.62c.02-.14.07-.28.11-.42.07.11-.06.3-.11.42Z"/>
          <path class="cls-14" d="M11.78,28.52l-.25-.58s0-.04.04-.03c.07.2.14.43.22.61Z"/>
          <path class="cls-14" d="M20.63,34.76c-.06-.18-.15-.36-.21-.54.11.16.2.36.21.54Z"/>
          <path class="cls-14" d="M15.83,25.32s.03-.07.04-.1l.03.02-.07.08Z"/>
          <path class="cls-14" d="M16.3,27.88s0,.04-.04.03c0-.04,0-.09,0-.13l.04.1Z"/>
          <path class="cls-4" d="M12.07,23.21l.04-.13c0,.06-.03.11-.04.13Z"/>
          <path class="cls-14" d="M21.27,32.33c.04-.15.08-.32.18-.45-.04.14-.08.33-.18.45Z"/>
          <path class="cls-14" d="M15.87,31.43l.04-.1c0,.06-.04.09-.04.1Z"/>
          <path class="cls-14" d="M24.39,31.94c.03-.08.08-.16.11-.22l-.11.22Z"/>
          <path class="cls-14" d="M23.24,32.23c-.05-.1.06-.3.14-.38-.04.13-.1.25-.14.38Z"/>
          <path class="cls-14" d="M13.14,33.09l.35.26s0,.05,0,.06c-.13-.09-.25-.2-.36-.32Z"/>
          <path class="cls-6" d="M15.83,16.43c.07.06.18.15.25.19-.1-.04-.19-.11-.25-.19Z"/>
          <path class="cls-6" d="M17.69,16.91c.02-.1.13-.13.21-.19-.05.09-.15.13-.21.19Z"/>
          <path class="cls-14" d="M14.4,22.22s-.03-.03-.04-.1l.04.1Z"/>
          <path class="cls-14" d="M15.4,34.82c-.05-.04-.06-.1-.07-.16.07.04.06.1.07.16Z"/>
          <path class="cls-14" d="M18.37,21.61c.05-.15.09-.3.21-.42-.06.14-.13.29-.21.42Z"/>
          <path class="cls-14" d="M15.47,18.15c-.08.16-.16.34-.29.48.03-.06.05-.13.09-.19l.2-.29Z"/>
          <path class="cls-14" d="M21.81,18.99c.08.1-.01.05-.04.06l.04-.06Z"/>
          <path class="cls-14" d="M15.54,19.56s-.05.09-.07.13l.04-.16.04.03Z"/>
          <path class="cls-14" d="M15.22,20.33c-.06-.02,0-.1,0-.14.06-.15.13-.29.21-.44-.06.19-.14.39-.21.58Z"/>
          <path class="cls-14" d="M20.16,20.01v.1s-.04-.03-.04-.03c.01-.03.03-.05.04-.06Z"/>
          <path class="cls-14" d="M13.5,26.6c-.05,0-.05-.09,0-.1,0,.03,0,.06,0,.1Z"/>
          <path class="cls-2" d="M19.09,25.22s-.03-.02-.04-.1l.04.1Z"/>
          <path class="cls-14" d="M14.79,28.68c-.06-.12-.1-.19-.14-.32.06.1.14.21.14.32Z"/>
          <path class="cls-14" d="M23.6,29.64l-.18-.32s.02-.03.04-.03c.02.13.1.22.14.35Z"/>
          <path class="cls-14" d="M22.28,24.07s-.03-.07-.04-.1l.04.1Z"/>
          <path class="cls-6" d="M25.18,9.58l-.11-.11.03-.02s.06.09.07.13Z"/>
          <path class="cls-12" d="M25.21,9.68l-.04-.06s.02.02.04.06Z"/>
          <path class="cls-6" d="M15.4,16.07c-.05-.05-.1-.1-.14-.16.05.05.14.07.14.16Z"/>
          <path class="cls-14" d="M18.59,21.16c.07-.15.13-.31.25-.45-.08.15-.13.32-.25.45Z"/>
          <path class="cls-4" d="M18.84,20.68l.07-.13c-.03.05-.05.09-.07.13Z"/>
          <path class="cls-14" d="M22.81,26.34l.04-.06s-.03.05-.04.06Z"/>
          <path class="cls-14" d="M11.03,26.76l-.04-.02.04-.05s0,.04,0,.06Z"/>
          <path class="cls-14" d="M15.15,23.43l-.04-.06s.03,0,.04.06Z"/>
          <path class="cls-16" d="M21.49,11.15l-.04-.02.04-.02s0,.02,0,.03Z"/>
          <path class="cls-16" d="M21.49,11.28l-.04-.02.04-.02s0,.02,0,.03Z"/>
          <path class="cls-2" d="M17.59,17l.07-.06s-.05.04-.07.06Z"/>
          <path class="cls-5" d="M20.63,1.55v.09c.06.01.02-.06.06-.06.06-.01.17,0,.24,0,1.51.25,2.46,1.63,2.57,2.95.02.2-.01.42,0,.62-.22-.01-.44-.05-.66-.07-.06,0-.11.03-.14.03-.02,0-.01-.05-.04-.06-.08-.02-.18-.02-.24-.03-.04-.01.03-.05.02-.06-.07-.05-.07.06-.1.06-.18.04-.28-.06-.39-.06-.05,0-.12.04-.18.03-.35-.02-.69-.09-1.04-.07.02-.17-.06,0-.11,0-.1,0-.19-.04-.29-.04-.17,0-1.11.02-1.16,0-.02-.01,0-.06-.02-.06-.05.13-.14.06-.25.06-.14,0-.27-.02-.32-.02-.04,0-.13.1-.23.04-.02,0,0-.13-.06,0-.14-.04-.39.05-.49.03-.03,0,0-.09-.11-.07-.01,0-.01.06-.04.07-.05,0-.11-.03-.17-.02-.31.02-.58.08-.9.09-.41.01-1.05.22-1.43.19-.01,0-.01.05-.06.07-.1.03-.28.09-.36.06l.02.09c-.15-.06-.21.05-.24.06-.28.09-.62.22-.89.28-.03,0-.08-.02-.08-.02,0,0,.02.07-.02.1-.05.03-.19.04-.24.06-.04.02,0,.08-.05.1-.83.3-1.47.75-2.15,1.29-.09.07-.28.3-.35.35-.06.04-.12,0-.13,0,0,0,0,.07-.04.11-.2.25-.49.44-.69.65-.33.33-.64.7-.96,1.05-.09.1-.07.24-.25.2.08.18-.07.12-.16.24s-.25.46-.46.44c-.02,0-.02-.06-.05-.07-.14-.03-.31-.01-.47-.08-.14-.06-.64-.41-.64-.54,0-.02.04-.08.03-.08-.02,0-.08.02-.11-.02-.04-.07-.16-.49-.17-.58-.03-.58.21-1.21.55-1.7.04-.05.12-.11.14-.14.02-.04-.02-.09-.02-.09.01,0,.08.01.1,0s.01-.09.04-.13c.43-.6,1.26-1.28,1.83-1.8.13-.12.36-.38.49-.46.27-.18.55-.44.83-.67.14-.11.27-.19.4-.3s.28-.18.36-.24c0,0-.04-.05-.03-.06.01-.02.29-.17.35-.22.15-.11.26-.24.43-.35.07-.05.3-.14.34-.17s.01-.09.02-.1c.01-.01.1.04.11.03s0-.11.07-.14c.04-.02.12-.06.19-.09.18-.1.36-.17.55-.24.31-.13.59-.28.95-.19l-.02-.1c.13.12.13,0,.22-.02.22-.06.65-.11.89-.13.16-.02.37,0,.49,0,.02,0,.02-.06.03-.06.03,0,.08.04.14.03.05,0-.06-.04.18-.03.14,0,.39-.05.43.06.07-.16.21-.06.32-.06,1.02-.02,2.07-.11,3.12-.07.17,0,.34.06.52.04Z"/>
          <path class="cls-4" d="M17.59,25.96l.04-.03s-.04.03-.04.03Z"/>
          <path class="cls-14" d="M15.26,23.56s.03-.03.04-.03l-.04.03Z"/>
          <path class="cls-14" d="M14.65,28.33l-.04-.02.04-.02s0,.02,0,.03Z"/>
          <path class="cls-14" d="M24.35,32.01l.04-.03s-.03.03-.04.03Z"/>
          <path class="cls-14" d="M18.01,24.68s0-.02,0-.03l.04.02-.04.02Z"/>
          <path class="cls-14" d="M26.68,17.9s-.08-.02-.07.03c.18-.03.12.04.18.11.71.78,1.43,1.36,1.84,2.36.24.59.3,1.17.46,1.76.26.96.89,1.31,1.55,1.99.09.1.04.2.05.21,0,0,.06-.03.07-.02.03.02.02.08.05.1.82.87.95,2.5.43,3.52-.02.05-.08.14-.11.19-.22.38-.57.77-.62,1.21-.1.89.66,1.51.57,2.46-.04.41-.43,1.25-.8,1.5-.05.03-.09,0-.12,0-.01,0-.13.14-.21.15.27-.39.47-.81.55-1.27.22-1.34-1.08-1.91-.38-3.31.45-.89.86-1.34.78-2.41-.14-1.75-1.86-2.5-2.27-4.11-.22-.86-.35-1.53-.82-2.34-.67-1.16-1.86-1.9-2.22-3.23-.04-.14-.09-.27-.03-.41l-.07.06c-.12-.45-.05-.92.12-1.34.06,0,.12.56.14.65.14.61.37,1.31.72,1.85.04.06.23.24.19.28Z"/>
          <path class="cls-14" d="M25.62,17.28c.57,1.34,1.85,2.12,2.47,3.57.24.57.25,1.06.4,1.62.5,1.78,2.61,2.56,2.27,4.72-.12.73-.62,1.24-.86,1.89-.06.15-.05.37-.11.51-.02.04-.09,0-.07.05.13-.01.06.18.07.27.12.78.65,1.24.61,2.05-.04.75-.49,1.58-1.2,1.99-.14.08-.3.13-.46.17.42-.6.93-1.1,1.02-1.84.15-1.27-1.05-1.95-.49-3.28.46-1.1.9-1.41.66-2.72s-1.48-2.01-1.87-3.26c-.14-.44-.18-.95-.32-1.41-.32-1.03-1.09-1.92-1.71-2.79-.19-.26-.42-.52-.57-.8-.35-.68-.35-.96-.19-1.69,0-.03,0-.1.05-.09.11.35.16.71.3,1.04Z"/>
          <path class="cls-14" d="M25.73,32.14c.32-.65.43-1.38.16-2.11-.24-.67-.81-1.21-.99-1.9-.32-1.26.62-2.1.7-3.28.08-1.3-.76-1.97-1.37-3-.3-.51-.34-.99-.32-1.56l.73.9c.79,1.41,2.03,2.31,1.77,4.04-.11.77-.67,1.45-.71,2.24-.06,1.27,1.18,2.13,1.25,3.39.08,1.33-1.1,2.14-1.19,3.39-.03.47.04.9-.08,1.37-.18.67-.57,1.01-1.28,1.26.34-.43.56-.88.64-1.41.11-.72-.2-1.34.01-2.07.13-.44.44-.85.65-1.26Z"/>
          <path class="cls-15" d="M.86,28.33s-.06-.02-.04-.06c.01-.02.06.02.04.06Z"/>
          <path class="cls-15" d="M7.04,33.16s.02.02,0,.03v-.03Z"/>
          <path class="cls-15" d="M11.62,9.29s.02.02,0,.03v-.03Z"/>
          <path class="cls-14" d="M13.47,26.98c-.06,0-.03-.07-.04-.11,0-.08,0-.16,0-.24.06,0,.03.07.04.11,0,.08,0,.16,0,.24Z"/>
        </g>
      </g>
      <text class="cls-11" transform="translate(.71 47.95)"><tspan x="0" y="0">VINCI</tspan></text>
    </g>
  </g>
</svg>