<?xml version="1.0" encoding="UTF-8"?>
<svg id="Capa_2" data-name="Capa 2" xmlns="http://www.w3.org/2000/svg" viewBox="0 0 78.02 106.3">
  <defs>
    <style>
      .cls-1 {
        fill: #093368;
      }

      .cls-2 {
        fill: #d2a969;
      }

      .cls-3 {
        fill: #fff;
      }

      .cls-4 {
        fill: #e7cea1;
      }

      .cls-5 {
        fill: #2a291d;
      }

      .cls-6 {
        fill: #db1c53;
      }

      .cls-7 {
        fill: #396;
      }

      .cls-8 {
        fill: #39c;
      }

      .cls-9 {
        fill: #daa22a;
      }

      .cls-10 {
        fill: none;
        stroke: #150f08;
        stroke-width: .79px;
      }

      .cls-10, .cls-11 {
        stroke-miterlimit: 10;
      }

      .cls-11 {
        fill: #f277b0;
        stroke: #1d1d1b;
        stroke-width: .2px;
      }

      .cls-12 {
        fill: #301d12;
      }

      .cls-13 {
        fill: #f93;
      }

      .cls-14 {
        fill: #150f08;
      }

      .cls-15 {
        fill: #835d2f;
      }

      .cls-16 {
        font-family: Degular-Black, Degular;
        font-size: 31.94px;
        font-weight: 800;
      }
    </style>
  </defs>
  <g id="Capa_2-2" data-name="Capa 2">
    <g>
      <g>
        <g>
          <rect class="cls-10" x=".4" y=".4" width="76.32" height="76.4"/>
          <rect class="cls-7" x=".48" y="24.51" width="29.97" height="33.87"/>
          <rect class="cls-8" x=".48" y=".48" width="49.18" height="29.08"/>
          <rect class="cls-7" x="49.66" y=".48" width="26.96" height="27.91"/>
          <rect class="cls-3" x=".48" y="58.1" width="76.1" height="18.62"/>
          <rect class="cls-8" x="56.86" y="17.09" width="19.77" height="45.95"/>
          <path class="cls-11" d="M76.59,29.54c-.08-.95-.57-3.76-.9-4.59-.47-1.14-5.4-6.68-6.6-8.11-1.1-1.32-2.54-2.3-2.81-4.21-.16-1.1.62-2.75-.04-3.68-.4-.56-1.86-.93-2.49-1.33-1.48-.94-1.7-2.53-2.76-3.32-.92-.69-7.83-3.64-8.97-3.8-2.4-.33-4,2.34-5.47,3.7-.98.91-3.04,2.31-3.7,3.24-1.58,2.25-2.51,6.59-4.03,9.08-1.14.84-2.43,1.21-3.03,2.53-.26.57-.28,1.57-.65,2.03-.93,1.16-3.11.94-4.56,1.18-3.7.61-4.4,1.06-7.55,2.45-1.3.58-2.77.61-4.12,1.01-1.69.51-2.56.98-4.62.94-1.63-.03-3.82-1.3-5.49-.74-1.25.41-1.27,2.17-2.79,2.24-.92.04-.84-.68-1.59-1.18-3.13-2.06-3.14-4.94-3.94-2.28l1.97,5.79c2.46,2.44-2.38,3.21.34,5.35,1.47,1.16,4.94,3.82,4.18,5.73-.23.59-3.37,1.11-1.99,2.55.27.28,4.13,1.6,4.76,1.75,1.9.45,4.99-.05,5.94,1.82.71,1.4.3,2.17,2,3.25,2.37,1.51,4.83,1.88,6.65,4.36.61.83.73,1.35.72,1.81h39.47c-.96-1.29-1.77-2.59-2.03-3.96.68-2.31,3.15-4.38,4.08-6.45.77-1.72.88-4.04,1.79-6.04,1.32-2.92,2.64-4.12,5.5-5.92.73-.46,1.7-.83,2.47-1.26.21-1.3.37-2.63.25-3.95Z"/>
        </g>
        <path class="cls-5" d="M76.7,61.09c.08-1.01-.89-2.1-1.27-3.03-.7-1.69-2.32-3.55-3.84-4.72-.96-.74-2.08-1.37-3.1-2.02-2.19-1.41-4.68-2.65-6.48-4.49-.76-.78-.59-2.02-.58-2.99,0-.56-.02-1.11-.08-1.66-.13-.57-.28-1.13-.43-1.7,0-.03,0-.07-.02-.1-.03-.05-.06-.11-.08-.17-.4-1.1-.82-2.8-1.93-3.51-.13-.08-.23-.18-.32-.28-.15-.09-.28-.2-.38-.33-.09-.05-.19-.11-.28-.17-1.26-.8-2.26-1.93-2.87-3.22-1.01-2.16-1.99-4.08-2.01-6.46-.02-1.43-.03-2.87.05-4.3.05-.93-.12-3.05.67-3.77.54-.48,1.53-.47,2.23-.46.48,0,.96.03,1.44.07.49.03,1.1.26,1.33-.33.06-.16.05-.33.04-.5-.02-.3-.04-.62-.2-.89-.12-.21-.32-.37-.51-.53-.41-.34-.82-.7-1.27-1-1.71-1.16-3.43-2.32-5.15-3.48,0,0,4.2-1.97,2.73-4.28-1.02-1.6-3.33-3.93-5.63-5.26-1.07-.44-2.1-.69-3.25-.87-1.09-.17-2.06-.16-3.17-.13-1,.03-2,.07-3,.12-3.53.16-7.05.35-10.58.57-1.15.2-2.26.53-3.19,1.25-.22.17-.45.26-.68.31-4.3,2.67-12.76,8.32-12.76,11.56,0,4.34,1.46,6.1,1.46,6.1l2.24,1.01-1.75,4.16s0,1.59,2.04,1.14c2.04-.44,3.89-1.51,3.89-1.51,0,0-.49,5.13-3.5,7.13-3.02,2-2.92,6.5-2.92,6.5,0,0,1.29,4.22-.47,5.18-1.76.96-5.61,4.33-5.61,4.33,0,0-.73,1.48-.83,2.6-.04.49-.54,1.01-.84,1.4-.57.73-1.21,1.43-1.84,2.12-.62.67-3.54,3.06-3.54,3.56v19.43h74.28v-.06h1.93c0-.06,0-.13,0-.19-.21-5.07.02-10.21.02-15.29v-.82Z"/>
        <g>
          <path class="cls-14" d="M42.5,13.03h.07s-.02,0-.07,0Z"/>
          <path class="cls-1" d="M34.76,75.6c-1.5-1.52-2.31-1.79-4.18-2.78-1.91-1.01-2.42-2.1-3.81-3.38-1.41-1.29-2.88-1.84-3.31-3.82-.42-1.95.66-3.62-.47-5.5-.64-1.06-1.71-1.88-2.22-3-.53-1.17-.43-2.1-.68-3.25-.13-.61-.52-.69-.66-1.24l-.15.13c0-.08-.01-.17-.07-.24-.28-.33-1.96-1.42-2.41-1.64-1.77-.85-3.03-.85-4.96-.42-2.45.55-5.62,2.38-7.35,4-.05.05-.29.31-.23.36.47-.02.98-.03,1.45,0,2.79.16,4.82.73,6.73,2.63,3.43,3.41,2.9,8.23,2.88,12.49,0,2.16-.19,4.56-.06,6.71,0,.11.05.62.07.81h22.72c-1.24-.41-2.45-1-3.3-1.86Z"/>
          <path class="cls-1" d="M1.15,77.23v.23h13.15l-.04-3.14c.03-1.09.08-2.28.08-3.4,0-.36-.13-2.53-.03-2.67.02-.03.14.02.13-.05-.23-.04-.08-.12-.1-.3-.05-.53-.08-.66.02-1.16,0-.03-.14-.03-.14-.06,0-.1.11-.33.11-.48,0-3.46-.54-6.56-3.57-8.9-.38-.3-1.27-.89-1.81-1.07-.75-.26-2.4-.5-3.26-.52-.77-.02-2.21.07-2.85.42-.19.11-.53.43-.67.6-.3.36-.45.76-.68,1.17-.03.06-.24.07-.15.31l-.2-.06v.21c.03.36.01.71.03,1.08,0,.06-.01.12-.03.18v.17c.07.03.25.03,0,.11v.03s.16.11.13.14c-.02.02-.09-.01-.13,0v.07l.13.03c-.06.08-.1.18-.13.29v.93s.03.08.03.12c-.01.81.06,2.05-.03,2.85v.43c.09.17.04.4,0,.6v.41c.02.07.04.15.04.21,0,.09-.02.21-.04.33v.53c.02.07.06.12.13.14.01.06-.1.01-.13.04v1.09c.02.23.04.43.04.53,0,1-.01,2-.01,3,0,.25-.01.51-.03.79v2.58c.07.08.24.04,0,.14v.21c0,.1,0,.2,0,.3v1.3c.06.04.2-.02.2.05-.11.03-.17.1-.2.18Z"/>
          <path class="cls-1" d="M1.35,58.41s-.13-.04-.07-.13c.03-.05.13.04.07.13Z"/>
          <path class="cls-12" d="M14.19,68.44v.07s.05-.04,0-.07Z"/>
          <path class="cls-1" d="M75.39,77.4c.02-2.5.14-15.83.14-15.83-.16-.81-.51-1.63-.84-2.37-1.25-2.78-3.35-5.33-6.11-7.06-.64-.4-1.35-.84-2.09-1.08-.7-.23-.64-.16-.45.42.49,1.57.11,3.29-.23,4.88-.06.3-.14.6-.27.88-.12.24-.29.45-.44.67-.66.94-1.16,2.02-1.07,3.12.1,1.21.87,2.31,1.01,3.51.09.78-.1,1.57-.28,2.34-.11.46-.22.93-.48,1.35-.44.71-1.24,1.19-2.03,1.58-1.73.86-3.62,1.49-5.23,2.54-1.5.98-2.82,2.26-4.33,3.18-.6.37-.84.47-1.23,1.07-.21.33-.44.77-.89.86l24.84-.06Z"/>
          <path class="cls-13" d="M15.27,35.35c1.47-2.67,4.05-3.32,4.89-6.69.21-.86.18-2.13.87-2.81.91-.9,3.31-2.16,4.53-2.93.48-.3,1.48-1.1,1.91-1.28.1-.04.19-.04.3-.03,0,.4-.07.8-.07,1.2-.12.07-.07.25-.08.36-.03,2.09.11,4.27,0,6.35-.19,3.65-3.68,6.4-4.76,10.03-.23-.13-.12-.03-.15.1-.09.32-.28.8-.15,1.1-.14,1.03-.12,2.23,0,3.26-.17.36.05.92.22,1.26.23,1.73-.43,2.49-1.19,3.92l-.28.32c-.32.63-.64,1.2-.76,1.87-.03.16-.11.32-.07.5,0,.07-.13.04-.18.03-.11-.04-.82-.67-1.02-.81-1.36-.95-2.85-1.79-4.61-1.97-.05-.15-.19-.13-.33-.14-.78-.05-1.41.07-2.17.14-.25.02-.47-.2-.41.13-.47.1-1.14.35-1.59.54-.9.38-1.68.93-2.58,1.32v-1.1c0-2.12,3.72-3.19,5.21-4.32,1.32-1,1.58-1.81,1.86-3.29.08-.42.07-.46,0-.86-.29-1.61-.48-3.23,0-4.85.26.03.2-.32.26-.47.08-.19.2-.41.3-.6.03-.07.19-.22.04-.27Z"/>
          <path class="cls-6" d="M37.59,18.01s0,.08.17.06c2.1-.17,4.19-.24,6.3-.2.05,1.65-.06,3.31,0,4.95,0,.13-.08.27.15.23.03.64.08,1.29.15,1.93l.15,2.23c.08,1.3.5,2.77.52,4.05,0,.18-.02.54-.08.69,0,.01-.32-.1-.14.14-.38.06-1.06,0-1.49,0-.08-.11-.28-.07-.41-.07-1.36-.01-2.39.1-3.61.67-.85.4-1.77,1.05-2.53,1.59-.17.12-.4.19-.45.4-.02.02-.05.04-.07.07l-.15.13c-.13.12-.26.45-.45.44-.29-.02-1.26-.4-1.56-.53-.43-.2-.74-.45-1.11-.7-.14-.1-.37-.28-.52-.4-.01-.01-.06.01-.07,0-.2-.28-.43-.49-.74-.66-.02-.02-.05-.04-.07-.07,0-.19-.18-.24-.3-.33-.58-.49-1.01-1.09-1.34-1.73-.27-.53-.44-1.15-.74-1.66,0-.02,0-.05,0-.07-.09-.3-.13-.66-.21-.97-.04-.15.06-.21-.16-.09-.02-.11.01-.23-.07-.33l.07-7.04c.21-.26,1.28-.83,1.64-1,1.13-.54,2.45-.94,3.71-1.18.19-.04.22.17.31-.15.3-.05.58-.09.82-.13.07.12.26.05.37.04.51-.08,1.05-.18,1.56-.24.13-.01.26-.06.37-.07Z"/>
          <path class="cls-5" d="M58.06,16.45c.02-.07.05-.13.09-.19-.14-.13-.33-.29-.36-.31-2.95-1.85-5.25-2.98-8.79-3.78-1.33-.3-2.89-.63-4.26-.71-.18-.01-.53-.07-.48.13h-.07c0-.05,0-.1-.06-.13-.31-.13-1.6-.12-2.03-.14,0,0-.02,0-.07,0-.65-.02-1.32-.06-1.97-.06-.39,0-.34-.06-.37-.06-.27,0-1.19.03-1.43.05-.14.02-.1.13-.14.13-.1,0-.2-.08-.37-.06-2.01.17-4.93.49-6.49,1.32-.24.13-.79.18-1.08.29-2.57.95-4.88,2.51-6.98,4.15-1.96,1.52-3.92,3.26-5.62,4.84-.95.88-1.86,1.84-2.82,2.74-.03.03-.22.04-.12.16.02.02.18-.05.15.07l-.3.07c-.03.12.12.04.14.07.02.02-.1.16-.07.2l1.12-.07-.08-.13c.28.1.38-.11.41-.12,1.05-.33,1.45-.56,2.37-1.06.13-.07.47-.08.64-.19.31-.2.04-.13.47-.25.66-.18,1.46-.96,1.99-1.33.24-.17.57-.28.84-.45.13-.08.08-.25.27-.12v-.2c.27.16.24-.08.32-.11,1.62-.76,3.07-2.19,4.63-3.01.14-.08.28-.04.34-.07.01,0-.07-.22,0-.26,0,0,.11.07.22.03.29-.09.84-.54,1.15-.7.53-.28,1.12-.53,1.68-.69,1.75-.49,3.48-.91,5.17-1.03.95-.07,1.88-.21,2.83-.27.19-.01.09-.11.11-.2l.11.2c.34-.03.69-.02,1.03-.03.13,0,.26-.08.39-.09.31-.01.86.12,1.17.05.08-.02.02-.14.08-.14.07.24.54.12.82.13,2.1.09,4.1.16,6.24.41.23.03.49.21.53,0,.6.37,1.74.21,2.25.46.2.1.29.02.43.03.53.07,1.85.42,2.31.41.98-.04,2.08.16,3.14.12.42-.02.25-.03.45-.09.01,0,.04,0,.06,0Z"/>
          <path class="cls-12" d="M23.71,18.87v.07s.05-.04,0-.07Z"/>
          <path class="cls-13" d="M43.09,33.09c-.06,0-.23-.02-.11.07.47,0,.94,0,1.41,0,.06,0,.39.03.19-.07.5,0,.6-.09,1.19.03,2.09.44,4.35,2.02,4.99,3.89.16.48.21,1,.45,1.46,0,.02,0,.04,0,.07.29,1.62.36,2.52,1.05,4.08.02.05.07.27.14.11.17.31.41.62.6.93.01.02-.02.1,0,.15s.44.28.22.38c-.94-.6-1.66-1.05-2.34-1.93-.95-1.24-1.08-2.71-2.02-3.97s-1.99-1.98-3.75-2.2c-.63-.08-1.25-.07-1.9-.07-.13,0-.33-.04-.41.07-.02,0-.05,0-.07,0-.14-.11-.68-.14-.6.07-.23.02-.43.02-.67.07-.07-.14-.23-.02-.32,0-.32.11-.45.15-.72.32-2.2,1.4-2.3,2.57-3.36,4.61-.87,1.68-2.24,3.24-2.37,5.16-.34.42,0,.93-.07,1.4.13.02.07-.13.07-.2.11.43.21.86.39,1.28.47,1.09,1.15,1.75,1.25,3.04-.12.28-.08.62-.11.93-.01.1-.11.26.04.33-.02.11-.05.22-.07.33l-.07.07s0,.05,0,.07l-.44,1.1c-.07.14-.05.29-.08.43,0,.02,0,.04,0,.07-.2.12-.14.35-.15.53,0,.02,0,.04,0,.07-.2.78,0,1.86.4,2.57.02.04.14.13.19.22.67,1.11,1.19,1.76,1.49,3.06,0,.57.12,1.16.07,1.73,0,.07,0,.13,0,.2-.17.04-.13.18-.16.29-.44,1.42-1.24,2.97-.66,4.43.41,1.02,1.16,1.91,1.56,2.92-.14.19.11.59.22.8,0,.02,0,.04,0,.07.05.38.08.85.08,1.23,0,.31-.2.68,0,.96-.01.42-.04.83,0,1.26.02.22-.04.53.22.66,0,.02,0,.04,0,.07.01.07.11.16.07.27-.07.06-1.08-.27-1.19-.37-.03-.03-.42-.64-.43-.68-.07-.24.06-.5-.24-.68-.02-.28-.09-.51-.08-.83s.13-.68.12-.99c-.04-1.41-.75-2.34-1.38-3.56-.26-.51-.58-1.02-.72-1.58-.08-.29-.12-.58-.1-.88-.13,0-.08.25-.07.33-.12-.17-.09-.51-.07-.73.24.04.13-.11.15-.23.02-.18.05-.35.09-.53.02-.13.16-.19-.08-.17,0-.03-.01-.07,0-.1.02-.03.04-.04.07-.03.01,0,.04.06.07.07.12-.58.39-1.13.5-1.71.02-.1.07-.28-.06-.35.07-.43.09-.82.07-1.26.12-.09.09-.31.08-.43-.17-2.12-2.55-4.03-2-6.3l.51-1.51c.05-.1.3-.59.37-.6,0,0,.04.06.07.07.25-.75.49-1.4.48-2.2,0-.09.03-.45-.18-.39-.22-1.48-1.27-2.41-1.67-3.79-.23-.79-.3-1.62-.19-2.39.24.04.13-.11.15-.23.05-.36.18-.81.3-1.16,0-.02,0-.05,0-.07.27-.2.32-.53.45-.8.1-.2.09-.17.22-.33.03-.03.12-.05.18-.14.16-.22.35-.87.48-1.02.06-.06.15-.04.23-.04v-.06s-.15-.04-.15-.04c.14-.61.31-1.24.38-1.86.01-.11.04-.3-.07-.36.07-.28.2-.73.3-1,.36-.44.55-.99.89-1.46.93-1.26,3.4-2.92,5.13-2.99.24,0,.73.08,1.08.07.14,0,.3.07.26-.13.08,0,.19-.02.22.07Z"/>
          <path class="cls-6" d="M52.32,21.46l-.15.1c-.02-.6-.08-1.24-.22-1.83,0-.02,0-.05,0-.07l-.07-.13s0-.05,0-.07l-.22-.23.07-.03c-.23-.32-.39-.42-.74-.6-.16-.06-.43,0-.37-.2-.04,0-.1,0-.15,0-.02,0-.23.08-.37,0-.02-.1.05-.06.15-.07-.33-.07-.57-.09-.89-.13-.87-.07-1.85-.05-2.68-.27-.43,0-.24-.04-.33-.06h-.73c-.07.02-.28.09-.28.1-.01.86.03,1.73.01,2.59,0,.12-.08.21-.08.22-.05,2.48.31,4.75.59,7.21.04.32.04.61.07.86.13,1.13.35,2.25.31,3.38.04.11.65.24.83.32.98.4,2.3,1.04,3.06,1.72.19.17.44.34.48.6.11.02.1-.12.12-.19.36-1.19.69-2.7.97-3.92.67-3,.8-6.25.62-9.31Z"/>
          <path class="cls-13" d="M48.45,76.81c-.14-.13,1.03-1.79,1.15-2.06,1.13-2.45-.49-4.22,0-6.51.32-1.5,1.52-2.85,1.68-4.35.29-2.92-2.12-4.21-2.29-6.86-.14-2.29,1.74-4.09,1.62-6.36-.15-2.85-2.91-4.42-3.05-7.31-.05-.97.22-1.98.11-2.97-.05-.44-.43-1.4-.41-1.69,0-.11.29-.23.34-.36.57.58,1.07,1.44,1.27,2.19.33,1.31-.05,2.6.5,3.87.85,1.95,2.71,3.38,3.09,5.62.45,2.71-1.79,4.74-1.54,7.36.19,2.01,2.01,3.42,2.42,5.41.64,3.14-2.2,4.78-2.13,7.61.02.82.28,1.53.23,2.39-.06.97-.76,2.91-1.6,3.55-.14.11-1.3.53-1.38.46Z"/>
          <path class="cls-13" d="M41.68,38.87c.12,0,.25,0,.37,0-.03.41-.34.74-.5,1.11-.37.85-.65,1.63-1.06,2.48-.3.63-.53,1.04-.74,1.73-.09.28-.25.69-.3.93l-.15.43.08,1.03s0,.04,0,.07c.01.23-.02.59.22.73,0,.02,0,.05,0,.07.3,1.02,1,1.85,1.32,2.91.04.13.07.2.09.26.04.13-.11.33.15.29.37,2.02-1.26,3.7-1.25,5.68,0,1.67,1.04,2.69,1.71,4.11.96,2.04.61,3.24-.16,5.23-.28.73-.49,1.32-.45,2.13,0,.02,0,.04,0,.07.04.43.21.81.37,1.2.08.19.15.33.22.53.02.05,0,.17.03.27.05.13.24.34.34.46,0,.02,0,.05,0,.07.14.37.32.75.45,1.13.3.88.26,1.17.07,2.06-.08.38-.19.72-.22,1.13,0,.02,0,.04,0,.07l-.07.03.07.03c-.01.19,0,.35,0,.53-.13.03-.12.1-.12.2,0,.41.11.85.12,1.26l-.97-.07s0-.05,0-.07c-.06-.13-.05-.43-.3-.4-.04-.12-.05-.27-.07-.4-.26-1.45.4-2.74.04-4.19-.02-.1-.08-.44-.26-.4-.5-1.58-1.61-2.78-1.49-4.52.24.04.13-.11.15-.23.04-.27.1-.53.16-.79.02-.09.13-.25,0-.31.07-.2.17-.33.22-.47.1-.24.37-.63.22-.86.7-2.67-.25-3.36-1.26-5.58-1.64-3.57.71-4.32.6-7.21,0-.13.08-.27-.15-.23-.05-.41-.16-.8-.3-1.2.13-.05.01-.21-.02-.28-.18-.45-.36-.88-.62-1.38-.03-.05-.1-.06-.11-.07,0-.02-.06-.04-.07-.07l-.36-1.44c-.11-.9.25-1.98.59-2.82.35-.87.86-1.73,1.26-2.59.19.04.15-.08.2-.18.12-.24.16-.45.24-.68.21-.54.42-1.21.89-1.59.42-.34.28-.14.71-.14.06,0,.1-.06.11-.06Z"/>
          <path class="cls-13" d="M46.22,39.4c0-.1.06-.25,0-.4.25.07.68-.19.82.07,0,.02,0,.05,0,.07.29,1.28.21,2.02.15,3.29-.01.29-.05.7.08.97,0,.02,0,.04,0,.07,0,.01-.08.05-.07.22.01.23.12.62.22.84,0,.02,0,.05,0,.07l.07.27c.58,1.83,2.4,3.02,2.68,5.18.15,1.12-.08,2.12-.45,3.19-.2.59-.48,1.14-.67,1.73-.2-.04-.15.09-.18.2-.23.68-.31,1.35-.26,2.06.08.01.07-.07.07-.07.08,0,.29,1.23.37,1.43.52,1.4,1.69,2.49,1.94,4.02l-.15,1.99c-.09.33-.24.57-.37.86-.06.13-.15.3-.22.47,0,.02,0,.05,0,.07l-.07.07s0,.05,0,.07c-.12.04-.16.14-.21.24-.66,1.22-.99,2.35-.75,3.71.02.12-.09.27.15.23.28,1.49.64,2,.22,3.59-.08-.17-.11.08-.12.12-.06.23-.13.45-.21.67l-.48.93c-.2.34-.41.64-.6,1-.26.37-.79.29-1.19.4-.17-.24.54-1.64.67-1.66,0,0,.04.06.07.07.03-.35.43-.7.3-1.06.1-.31.23-.68.3-1,.14-.61.07-1.23,0-1.86-.08-.01-.07.07-.07.07-.18-.01-.77-2.8-.67-3.15.06-.19.03-.14.08-.4.25-1.55,1.21-2.86,1.41-4.63.05-.43.1-.58.01-1.04-.02-.12.06-.26-.16-.22-.07-.31-.19-.7-.3-1-.1-.27-.25-.46-.3-.73-.03,0-.07.07-.07.07-.13-.01-.66-1.03-.74-1.2-.31-.63-.6-1.26-.67-1.96l-.07.03c-.16-1.16.04-1.66.45-2.72l.43-.78c.08-.18.1-.37.17-.55,0-.02,0-.05,0-.07.13-.13.23-.34.29-.5.05-.13.21-.45.08-.56.37-1.41.17-2.58-.56-3.86-.63-1.11-1.56-2.04-1.82-3.32.12-.25.03-.61.02-.88,0-.1.11-.2-.1-.25,0-.02,0-.04,0-.07.24.04.13-.11.15-.23.07-.44.17-.85.23-1.3.13-.99.11-1.88.15-2.86Z"/>
          <path class="cls-13" d="M41.45,41.07c.22-.46.41-1.02.63-1.46.27-.54.33-.55.97-.53.14,0,.3-.07.26.13,0,.02,0,.05,0,.07-.52.9-.73,2-1.04,2.99,0,.02,0,.05,0,.07-.13.04-.15.16-.19.26-.35.76-.79,2.08-.7,2.86.25,2.15,1.91,3.52,2.08,5.38-.26-.02-.09.06-.08.17.08,1.72-.96,2.78-1.18,4.35-.27,1.82.05,2.58.82,4.19.22.45.5.87.7,1.33.09.19.54,1.39.48,1.45-.03.03-.17-.04-.14.07.06,0,.12,0,.15.05.09.17-.09.38.15.35.08,1.23-.38,2.36-.74,3.52-.2-.04-.14.09-.19.2-.17.46-.23.81-.27,1.29,0,.12-.18.19.08.17,0,.04,0,.09,0,.13-.24.27-.03.78.07,1.06.19.51.48,1.02.67,1.53-.1.15.07.43.11.6.02.06.02.31.11.13.01.05.05.1.07.2l.07,1.86c-.04.72-.34,1.43-.52,2.13-.12.44-.15.64-.15,1.1,0,.05-.03.34.07.17,0,.05.19.24.03.34-1.07.22-1.22.03-1.3-.87.12-.22.13-.69,0-.93.15-1.58.7-2.29.15-3.99.09-.13-.06-.47-.11-.6-.13-.29-.27-.61-.4-.9-.05-.11-.1-.18-.23-.23,0-.02,0-.05,0-.07-.13-.34-.27-.72-.37-1.06-.53-1.7.78-3.35.9-5.08.11-1.67-.34-2.38-1.04-3.82-.24-.48-.6-1.03-.8-1.58-.45-1.24-.32-2.23.13-3.44.03-.09.14-.24,0-.3.03-.08.14-.39.22-.4,0,0-.01.08.07.07.12-.38.22-.77.3-1.13,0-.02,0-.04,0-.07.29-.25.2-.62.22-.93.01-.19,0-.41,0-.6-.03-.69-.16-1.08-.42-1.72,0-.02-.11-.36-.17-.21-.44-.93-1.16-1.8-1.26-2.86.17-.3.03-.72.07-1.06.02-.17.04-.24.07-.4l.89-2.33c.22-.49.44-.98.67-1.46l.07.07v-.2s0-.05,0-.07Z"/>
          <path class="cls-13" d="M37.14,42.86c.29-.46.72-.96.96-1.44.33-.65.5-1.43.86-2.09.27-.5.67-.93,1.01-1.39l.41.4c.08.08.44.27.41.36-.09.11-.2.2-.29.3-.47.54-.68,1.01-.95,1.65-.03.07-.15.24-.02.28-.21.45-.45.89-.67,1.33l-.15.27s0,.05,0,.07c-.24.28-.37.61-.52.93,0,.02,0,.05,0,.07-.26.24-.33.56-.45.86-.16.43-.3.89-.45,1.33-.2.61-.09,1.27.15,1.86.26.65.62,1.28.89,1.93-.1.07.02.29.06.38.07.21.13.54.32.68,0,.02,0,.04,0,.07.43,2.48-1.16,3.79-1.07,6.08,0,.1-.07.19.1.23.17,2.33,2.77,3.77,2.08,6.58-.14.59-.37,1.15-.56,1.73-.04.11-.14.38-.04.47-.01.03.01.07,0,.1-.02.03-.04.04-.07.03-.01,0-.04-.06-.07-.07-.29,1.05-.34,1.91.07,2.92.01.03.05.07.07.13-.14.1.07.41.12.52.48,1,1.17,1.97,1.22,3.1l.15-.1c.14,1.29-.46,2.49-.11,3.79.07.27.23.53.34.79-1-.1-1.49-.17-1.86-1.06l-.12-1.17c.04-.19.05-.36.05-.55,0-.21-.07-.16,0-.47.11-.47.12-1,0-1.46,0-.02-.06-.06-.07-.13.14-.06.05-.22.03-.32-.1-.41-.27-.71-.47-1.07-.45-.83-1.08-1.61-1.34-2.52l-.06-1.42c.25-1.58,1.08-2.91.96-4.59-.12-1.62-1.11-2.78-1.86-4.15-.18-.33-.3-.55-.37-.93.15-.25,0-.61,0-.9,0-.22.2-.51,0-.7,0-.03.07-.05.07-.07.07-.21.36-.57.22-.8.04-.09.3-.59.37-.6,0,0,.04.06.07.07.49-1.12.69-1.81.52-2.99,0-.07-.05-.23-.07-.33l.07-.03-.07-.03s0-.05,0-.07c-.14-.6-.39-1.08-.6-1.66-.08-.01-.07.07-.07.07-.2-.03-.42-1.07-.45-1.26-.11-.8-.09-1.96.07-2.72,0-.02,0-.04,0-.07l1.19-2.19Z"/>
          <path class="cls-13" d="M44.43,40.33c-.08.81-.24,1.3-.45,2.06-.24.34-.41.91-.5,1.32-.06.29-.2.68-.02.94,0,.04,0,.09,0,.13-.2.15-.02.4,0,.53.02.14.04.26.07.4-.13.05-.04.22-.01.31.19.58.35.79.68,1.29.55.83,1.16,1.63,1.41,2.59l.07,1.49c-.3,2.02-1.83,3.74-1.55,5.86l.07-.03c.22,1.97,2.18,3.54,2.38,5.68.18,1.92-1.28,3.65-1.26,5.55-.17.24-.06.59-.01.84.02.12-.06.26.16.22.19.87.65,1.75.74,2.59-.13.31-.12.82,0,1.13,0,.09-.06.27-.07.4-.13.07-.12.19-.15.3-.21.75-.52,1.39-.69,2.11-.02.1-.12.26.03.32-.05.32-.12.53,0,.86-.24-.01-1.1.18-1.23,0-.16-.21-.07-1.08-.02-1.36.08-.47.3-.93.44-1.37.4-1.24.36-1.85.11-3.12-.01-.06-.01-.28-.11-.13-.09-.32-.32-.7-.45-1.06-.15-.44-.37-1-.43-1.45-.04-.36.05-.75-.1-1.08.05-.35.13-.6.22-.93.21-.24.29-.63.37-.93,0-.02,0-.05,0-.07.1-.14.3-.47.15-.6.05-.14.1-.26.15-.4.55-1.67.37-2.8-.52-4.32-.43-.73-.94-1.39-1.19-2.19-.31-.98-.34-1.92-.15-2.92,0-.02,0-.04,0-.07l1.11-2.63c.21-.8.2-1.56.06-2.37,0-.04-.06-.29-.13-.12-.32-1.15-1.35-2.26-1.71-3.39.12-.2-.06-.46-.08-.7-.11-1.44.42-2.31.81-3.6.02-.08.13-.25,0-.29.22-.6.46-1.2.6-1.83.01-.03.04-.04.07-.03.01,0,.04.06.07.07.05-.19.05-.41.11-.6.05-.18.21-.68.41-.66.02,0,.05,0,.07,0,.08,0,.34.2.45-.07.03,0,.06,0,.07,0,0,.44-.03.89-.07,1.33Z"/>
          <path class="cls-13" d="M45.92,39.47c-.17.64-.03,1.34-.07,1.99-.15,1.05-.47,2.16-.37,3.23.14,1.63,1.52,2.76,2.09,4.22.14.37.3.84.37,1.23.02.12-.1.27.15.23,0,.02,0,.04,0,.07-.26-.02-.09.06-.08.17.01.33-.03.76-.07,1.09-.04.28-.07.4-.15.66-.08-.17-.11.08-.12.12-.12.46-.33.78-.5,1.21-.03.07-.14.28-.04.33-.02.06-.06.1-.07.13l-.07.13c-.1.25-.2.54-.3.8-.3.78-.47,1.34-.3,2.19.31,1.5,1.13,2.36,1.79,3.65-.1.03,0,.22.03.28.22.48.43.96.42,1.48l.07-.03s.06.06.07.2c-.19.05-.09.13-.09.24.02.88-.25,1.72-.51,2.55,0,.02,0,.05,0,.07-.17.18-.4.59-.3.8-.35,1.09-.64,1.68-.52,2.89.08.87.6,1.76.67,2.62-.26-.02-.09.06-.08.17.02.33-.06.72.08,1.03-.02.25-.08.55-.15.8-.21-.03-.34.58-.3.73-.02.06-.06.1-.07.13l-.07.13c-.3.69-.76,1.37-.74,2.13l-1.12.07c-.04-.46,0-.72.15-1.13.49-1.3,1-2.32.9-3.76-.08-1.09-.61-1.96-.82-2.99-.02-.12.08-.27-.15-.23,0-.02,0-.04,0-.07.13-.34.12-.86,0-1.2,0-.03.07-.05.07-.07.06-.22.1-.47.15-.66,0-.02,0-.05,0-.07.18-.29.31-.65.44-.97.05-.12.23-.39.08-.49.07-.18.15-.35.22-.53.04-.08.15-.17.19-.33.08-.3.18-.85.03-1.13,0-.04,0-.09,0-.13.25.03.11-.07.11-.18,0-.45-.03-.83-.11-1.28-.03,0-.06.07-.07.07-.04,0-.06,0-.07-.03-.19-1.09-.97-1.99-1.49-2.96l-.52-1.63c-.11-.45-.07-.89-.02-1.35.01-.11.09-.28-.05-.35.04-.2.14-.39.15-.6.19.03.16-.08.2-.18.37-.96.85-1.89,1.06-2.87.02-.11.06-.3.07-.4.09-.67.11-1.1-.06-1.77-.03-.11,0-.24-.16-.29,0-.02,0-.05,0-.07l-.07-.2c-.32-.82-1.07-1.66-1.49-2.46l-.44-1.44v-1.42c.11-.65.36-1.21.51-1.79.1.14.09-.07.11-.13.21-.87.5-1.74.46-2.65,0-.12.12-.24-.13-.21,0-.04,0-.13,0-.13.04-.03.25.08.07-.13.65.04.94-.23,1.04.47Z"/>
          <path class="cls-13" d="M35.06,36.28c-.11.21-.24.4-.37.6,0,.01-.1.02-.14.11-.03.08,0,.16-.01.22,0,.02,0,.05,0,.07-.3.36-.36.92-.45,1.37-.07.36-.21.89-.07,1.22-.03.13-.27,1.06-.37,1.06,0,0,.01-.08-.07-.07-.27.74-.82,1.47-1.12,2.26-.2.52-.32,1.05-.45,1.59,0-.07.05-.22-.07-.2.03.42-.05.89,0,1.3.01.13.08.2.08.23,0,.01.07.04.07.07-.19.33.01.79.1,1.14.01.04.05.29.12.12.12.44.39.89.45,1.4-.13.34-.12.86,0,1.2-.01.13-.05.33-.07.47-.25-.04-.12.11-.14.23-.14.69-.45,1.36-.67,2.03-.27.82-.66,1.68-.74,2.52l-.07-.03c.05.39-.1.86.07,1.23,0,.02,0,.04,0,.07.02.32.03.59.15.89l.29.57c.51,1.3,1.22,2.04,1.41,3.52.12,1.08-.2,2.07-.37,3.12,0,.02,0,.04,0,.07l-.07.2s0,.04,0,.07c-.17.29-.28.88-.15,1.2-.11,1.95.74,2.57,1.56,4.19.18.34.3.74.52,1.06,0,.02,0,.05,0,.07.08.3.16.63.22.93.04.21.06.31.07.53l-.07.8-.3-.13c-.15-.07-.98-.49-1.01-.53-.07-.11.03-.17.03-.23,0-.03-.1-.25-.15-.45-.2-.89-.45-1.37-.88-2.17.13-.02-.03-.2-.06-.24-.11-.17-.22-.34-.32-.51-.06-.09-.03-.21-.21-.17,0-.02,0-.05,0-.07-1.32-2.47-.97-2.87-.6-5.45.03-.2.15-.64.15-.76v-1.66c0-.16-.17-.58-.22-.76.15-.07.05-.22.02-.32-.17-.62-.54-1.28-.8-1.88-.04-.1.02-.24-.18-.2,0-.02,0-.04,0-.07-.02-.13.12.02-.07-.27-.04-.06-.05-.08-.07-.13l-.3-1.76c-.09-.52.22-1.07,0-1.56.06-.38.2-.77.37-1.13,0-.02.08-.07.11-.13.15-.28-.05-.48.48-.4.02-.14-.24-.03-.3-.07-.04-.03.26-.75.3-.86.14-.47.27-.95.37-1.43.01-.03.04-.04.07-.03.01,0,.04.06.07.07.12-.7.27-1.37.15-2.06-.05-.27-.11-.57-.15-.86.14-.07.07-.24.05-.34-.06-.43-.15-.86-.2-1.28-.03-.23.09-.53-.15-.7-.01-.26-.01-.54,0-.8.18-.05.14-.18.15-.3.03-.26-.02-.67,0-.83,0-.02,0-.04,0-.07.23.04.13-.1.16-.22.19-.76.5-1.51.81-2.24,0-.02,0-.05,0-.07.2-.2.33-.51.46-.75.03-.06.18-.28.06-.31.16-.31.36-.62.52-.93.03-.05.13-.11.18-.21.41-.77.76-1.57,1.02-2.39l.82.27Z"/>
          <path class="cls-13" d="M51.53,44.23c.65.49,1.41.84,2.06,1.32,2.54,1.92,3.54,5.14,2.72,8.01-.67,2.35-1.73,3.36-.52,5.91,1.06,2.22,2.05,3.3,1.82,5.95-.21,2.41-2.31,3.74-2.94,5.88-.11.37-.12.73-.24,1.11-.26.86-.84,1.48-1.47,2.14-.09-.05-.02-.19,0-.26.53-1.46.37-2.11.47-3.56.17-2.48,2.44-4.07,2.43-6.81-.01-3.39-3.48-4.75-2.31-8.64.56-1.86,1.39-2.66,1.23-4.82-.18-2.45-2.04-4.23-3.34-6.25.02-.23.07,0,.09.02Z"/>
          <path class="cls-13" d="M33.57,36.88c-.17-.04-.23.22-.27.32-.09.2-.16.41-.25.61,0,.02,0,.05,0,.07-.28.24-.38.68-.52,1-.21.45-.44.88-.67,1.33l-.07-.07-.08.33s-.05.09-.07.13c-.16.3-.29.6-.43.91-.03.07-.15.24-.02.28-.06.16-.15.32-.15.5-.01.03-.04.04-.07.03-.01,0-.04-.06-.07-.07.03.39-.37.83-.15,1.2-.04.2-.11.41-.15.6-.08.4-.1.8-.07,1.23l.45,2.76s0,.04,0,.07l.07.13c0,.24.01.49,0,.73-.23.01-.17.04-.17.19,0,1.57-.9,2.86-1.24,4.33,0,.02,0,.05,0,.07-.16.18-.25.61-.27.84,0,.05.05.08.05.09-.02.19-.07.45-.07.6l-.07-.03c.04.35-.09.78.07,1.1,0,.02,0,.04,0,.07.03.67.16.99.37,1.63.04.12-.09.24.15.1.04.14.1.26.15.4l-.07.03.07.03s0,.05,0,.07c.1.26.17.41.3.66.17.35.26.46.37.86.08.3.14.61.21.91.03.11,0,.25.16.29,0,.09,0,.18,0,.27.02.28.01.69,0,.97,0,.22-.19.51,0,.69-.1.67-.34,1.34-.52,1.99-.36,1.34-.12,2.39.6,3.59.44.73.94,1.42,1.34,2.19.12.25.58,1.73.45,1.86l-.67-.2c-.1-.05-.16-.05-.3-.13l.07-.07c-.3,0-.24-.29-.45-.4,0-.02,0-.05,0-.07-.03-.12,0-.25-.15-.33,0-.02,0-.05,0-.07-.12-.44-.28-.72-.52-1.13-.4-.67-.85-1.21-1.19-1.93-.11-.23-.17-.52-.37-.73,0-.02,0-.05,0-.07-.76-2.52.51-3.94.3-6.28-.12-1.32-.86-2.53-1.34-3.76,0-.02-.06-.04-.07-.07.15-.08.09-.29-.07-.33,0-.02,0-.04,0-.07-.04-.21-.02-.48-.15-.66,0-.02,0-.04,0-.07-.01-.2.1-.59-.15-.53,0-.04,0-.09,0-.13.19.1.15.1.13-.08-.14-1.17.24-2.45.61-3.57s.91-2.19,1.12-3.39c.15-.87.07-1.73-.1-2.61-.02-.11-.03-.24-.13-.32,0-.02,0-.04,0-.07l-.07-.2c-.03-.27-.06-.53-.07-.8.14-.44.09-.97.16-1.42.1-.68.3-1.44.51-2.1.12-.37.22-.53.37-.86l.37-.56c.18-.45.44-.87.67-1.3.54-1.03,1.19-2.06,1.41-3.19l1.11.51c.02.06-.31.95-.37,1.09Z"/>
          <path class="cls-13" d="M32.3,36.02c-.12.26-.25.54-.37.8-.07.15-.15.31-.22.47l-.41.59c-.08.13-.11.27-.18.4-.58,1.1-1.17,2.23-1.64,3.39s-.62,2.87-.37,4.15c.02.12-.03.25.15.3,0,.13,0,.27,0,.4.01.18.07.46.07.56v1.66c0,.45-.35,1.34-.5,1.81-.02.08-.16.23-.02.28-.15.39-.36.75-.52,1.13-.39.91-.62,1.38-.67,2.39,0,.09,0,.18,0,.27-.11,0-.11.19,0,.2,0,.31,0,.62,0,.93l-.15-.03.15.57s0,.09,0,.13c.02.25.02.61.22.8,0,.02,0,.05,0,.07.09.39.29,1.25.47,1.58.01.02.18.08.2.15.15.38.4.79.52,1.2l-.07.64c.4.67.19,1.91.07,2.82,0,.02,0,.04,0,.07-.54,1.4-.67,2.74,0,4.12.18.37.39.77.6,1.13.22.39.41.81.74,1.13.34.58.76,1.19.82,1.86-.13.01-.24,0-.37-.04-.88-.3-1.58-1.82-2.01-2.55l.22-.2c-.09-.02-.25-.02-.33-.06-.09-.05.04-.26-.19-.21,0-.02,0-.05,0-.07-.61-1.08-.99-1.75-1.19-2.99-.05-.31-.1-.53-.07-.86.24.04.12-.11.15-.23.05-.27.04-.52.08-.76.05-.4.13-.62.22-1,.4-1.6.25-2.28-.37-3.79-.12-.29-.32-.61-.45-.93l-.51-1.84-.16-.22c-.01-.11,0-.22,0-.33-.07-1.08.05-2.17.37-3.22.03-.09.15-.24,0-.3.07-.18.16-.32.22-.47.77-1.74,1.49-2.92,1.41-4.89,0-.13.08-.27-.15-.23-.02-.38-.11-.63-.15-1l.05-.35-.2-2.11c.03-.54.13-.89.3-1.4.08-.26.34-.67.22-.93.05-.13.12-.2.15-.27.24-.57.54-1.17.82-1.73.48-.95,1.07-1.87,1.58-2.81.3-.56.5-1.16.81-1.71.18.1.99.55,1.02.71-.04.3-.24.57-.36.82ZM27.54,55.62c0-.17,0-.33,0-.5,0-.08.06-.25-.07-.23,0,.17,0,.33,0,.5,0,.08-.06.25.07.23Z"/>
          <path class="cls-13" d="M52.72,37.99c1.1,1.62,2.51,3.06,3.48,4.83,1.22,2.22.97,4.57,2.41,6.68,1.49,2.2,3.01,3.09,3.01,6.02,0,2.44-1.99,3.82-1.79,6.24.16,1.89,1.77,3.07,1.24,5.23-.23.93-1.74,3.29-2.71,3.7-.26.11-.61.17-.89.2-.13.01-.16-.06-.1-.13,0,0,.11,0,.15-.05.79-1.22,1.93-2.78,2.07-4.18.18-1.76-.99-3.08-1.11-4.71-.23-3.11,2.46-4.84,1.02-8.42-.38-.96-1.66-2.29-1.89-3.03-.22-.69-.37-1.42-.61-2.06-.66-1.75-1.08-3.66-2.06-5.26-.63-1.01-1.36-1.88-1.9-2.95s-1.08-2.44-1.38-3.55c-.09-.31-.12-.62-.1-.94l.48,1.2c.26.37.41.8.66,1.17Z"/>
          <path class="cls-13" d="M30.59,33.49c.15.19.63.57.67.77.07.34-.46.89-.45,1.29-.66,1.31-1.42,2.58-2.16,3.85-.16.28-.35.54-.48.87-.06.14-.21.46-.11.6-.01.03-.07.05-.07.07-.1.23-.38.65-.22.86-.42,1.62-.18,2.79,0,4.39-.12.09-.09.31-.08.44.03.42.07.79.08,1.23,0,.02,0,.04,0,.07-.16.63-.24,1.27-.45,1.89-.35,1.01-.93,1.89-1.19,2.96,0,.02,0,.05,0,.07-.59,1.46-.35,3.04,0,4.52.03-.01.06-.07.07-.07.04,0,.06,0,.07.03.35,1.32,1.23,2.69,1.34,4.05.09,1.17-.5,2.39-.59,3.55l-.15-.07v.23s.15-.03.15-.03c0,.2,0,.4,0,.6,0-.02-.09-.39-.15-.3,0,.13,0,.27,0,.4s-.08.27.15.23c.15.97.47,1.87,1,2.73.38.62,1.14,1.42,1.38,2.09.01.03.02.11-.04.1-.67-.57-1.17-1.28-1.75-1.93,0,0,.02-.07-.02-.11l-.73-.55c-.66-.75-.77-1.2-.98-2.09,0-.03-.12-.03-.13-.08-.08-.41-.1-1.06-.08-1.48.24.04.13-.11.15-.23.04-.26.05-.51.08-.76s.05-.49.07-.73c.2.06.2-.33.21-.44.26-1.57-.13-2.44-.73-3.81-.37-.85-.79-1.68-.97-2.59.18-.35-.02-.78-.03-1.16-.06-2.45.95-3.52,1.76-5.63.95-2.45-.02-4.28.12-6.73.02-.3.19-.67.08-.96.02-.07.07-.11.07-.13.28-.9.64-1.79,1.04-2.66.11-.24.12-.34.3-.6.59-.88,1.15-1.78,1.64-2.72.36-.71.73-1.44.97-2.19.11-.01.09.13.15.2Z"/>
          <path class="cls-13" d="M33.2,55.35c-.11-.18-.07.12-.07.17,0,.39.01.65.07,1.03,0,.01.06.09.07.2l-.15.03.22.43s0,.04,0,.07c.01.09,0,.18,0,.27.08.01.07-.07.07-.07.08,0,.18.44.22.53l.12.46.33.41s0,.05,0,.07c.15.3.29.52.45.8.02.04.05.09.07.13.07.23.09.5.3.66,0,.02,0,.05,0,.07.27.91.35,1.71.3,2.66-.02.32-.06.38-.15.66-.19.58-.43,1.12-.52,1.73,0,.04,0,.09,0,.13-.23.31-.15.8-.15,1.16,0,.11-.05.3.08.36,0,.02,0,.04,0,.07,0,.11-.05.28.07.33,0,.02,0,.05,0,.07.11.54.34.83.52,1.33.03,0,.07-.07.07-.07.45.06,1.59,3.03,1.64,3.52-.12.25-.13.74,0,1,0,.02,0,.04,0,.07-.23-.04-.14.1-.15.23-.03.67.11,1.28.37,1.9l-.37-.07c-.51-.27-1.65-.98-1.63-1.56,0-.05.07-.09.07-.11.13-.31.12-.82,0-1.13,0-.24.06-.44.06-.64,0-.03-.12-.02-.13-.08-.38-1.66-1.18-2.3-1.79-3.74-.16-.38-.33-.81-.45-1.2-.24-.78-.1-1.54.07-2.33.19.04.23-.36.26-.47.06-.22.08-.38.11-.6,0-.02,0-.04,0-.07.28-.68.31-1.62.21-2.35-.12-.94-.52-1.56-.96-2.37-.01-.02-.06-.04-.07-.07.12-.02-.02-.2-.04-.26-.14-.32-.34-.62-.48-.93-.21-.46-.28-.71-.37-1.2.06-.42-.04-.87,0-1.29.03-.32.15-.77.22-1.1,0-.02,0-.05,0-.07l.74-1.93s0-.05,0-.07l.15-.17-.07-.03c.11-.33.2-.66.3-1,0,0,.09-.05.11-.13.15-.53.13-1.07.26-1.6.91,1.34,1.16,2.05.78,3.66-.19.8-.7,1.68-.78,2.46Z"/>
          <path class="cls-13" d="M30.15,33.03c-.13.7-.49,1.42-.91,2.01l-.28.71c-.57,1.01-1.26,2-1.77,3.03-.11.22-.59,1.47-.68,1.49,0,0-.04-.06-.07-.07,0,.42-.37.92-.22,1.33-.03.14-.05.26-.07.4-.24-.04-.12.11-.15.23-.13.73-.11,1.46-.08,2.2,0,.13-.08.27.15.23.02.25.06.48.07.73.16,2.64-.08,3.04-1.04,5.45,0,.02,0,.05,0,.07-.15.09-.24.33-.31.49-.57,1.26-.83,2.57-.73,3.94,0,.14,0,.28.15.36,0,.07,0,.13,0,.2.12,1.17.48,1.88.97,2.92.28.59.53,1.15.67,1.79v1.49c-.08.97-.63,1.98-.37,2.96,0,.07,0,.13,0,.2-.19.13-.1.55-.07.76.06.38.35.94.37,1.2.02.3-.21-.05-.22-.06-.9-.84-1.03-1.71-1.19-2.83,0-.05-.06-.12-.07-.2.24-.18.12-.5.16-.76.25-1.69.57-2.33-.16-4.03-.06-.14-.15-.29-.22-.47-.15-.36-.3-.86-.45-1.26-.08-.01-.07.07-.07.07-.17-.02-.26-.66-.3-.8-.08-.3-.13-.61-.21-.91-.04-.15.05-.21-.16-.09,0-.07,0-.13,0-.2-.08-.96.02-2.01.19-2.99.02-.1.1-.27-.04-.33.18-.69.48-1.24.82-1.86.44-.81.93-1.48,1.12-2.39,0-.02,0-.04,0-.07.08-.13.24-.44.26-.56.18-.95-.12-2.09-.26-3.06-.02-.12.09-.27-.15-.23-.01-.18,0-.36,0-.53,0-.35.06-.78.08-1.16,0-.15.05-.39-.08-.5.05-.36.14-.71.22-1.06l1.41-3.39c1.01-1.76,2.46-3.35,2.98-5.32.05-.03.69.77.74.86Z"/>
          <path class="cls-13" d="M24.64,37.68c1.09-2.12,2.8-3.81,3.59-6.13.06-.18.17-.88.2-.91.11-.13.13.05.16.09.09.17.64,1.09.65,1.15.04.2-.4,1.06-.51,1.28-.17.34-.41.75-.61,1.09-.03.05-.19.22-.06.24-.9,1.5-2.01,2.86-2.68,4.45l-.28.21c-.14.99-.56,1.79-.61,2.85-.05,1.03.09,1.92.15,2.92.05.85.15,1.68.07,2.52,0,.02,0,.04,0,.07l-.07.27s0,.05,0,.07c-.22.43-.34.89-.52,1.33-.44,1.05-1,2.04-1.41,3.12-.11.28-.12.28-.15.6,0,.04,0,.09,0,.13-.12.03-.11.24,0,.27-.04.59-.09,1.13-.07,1.73l-.07.1.07.03s0,.09,0,.13c.11,1.59.99,2.75,1.41,4.25h-.07c-1.35-1.65-2.57-2.83-2.6-5.05,0-.65.09-1.37.2-2.05.02-.11.08-.28-.05-.35.46-1.97,2.07-3.47,2.38-5.32.24.04.13-.1.15-.23.1-.53.09-.88,0-1.4-.02-.12.09-.27-.15-.23-.04-.23-.11-.44-.15-.66.15-.07.05-.23.04-.33-.3-2.14-.06-4.03.97-5.98.04-.07.19-.23.04-.27Z"/>
          <path class="cls-2" d="M23.9,59.54s.12.06.04.07c-.03,0-.05-.05-.04-.07Z"/>
          <path class="cls-13" d="M58.27,62.06c-.21-.2-.25-.55-.38-.82-.15-.31-.87-1.34-.88-1.54-.02-.35.63-1.66.77-2.09.3-.9.34-2.07.1-3.07-.07-.3-.38-.86-.4-1.09-.03-.41.16-1.02.2-1.45.03-.34-.02-.69,0-1.03.09,0,.12.09.16.15,1.66,2.48,2.41,4,1.32,6.93-.25.68-.89,1.84-.89,2.52v1.5Z"/>
          <path class="cls-13" d="M55.18,35.12c1.43,1.89,3.64,3.31,4.73,5.51.69,1.38,1.08,3.35.97,4.85-.02.33-.14.64-.23.96-.13-.07-.2-.35-.24-.48-.56-1.68-.61-3.25-1.45-4.95-1.1-2.22-3.6-3.69-4.7-6.03-.28-.6-.55-1.38-.59-2.03.58.67.99,1.46,1.52,2.16Z"/>
          <path class="cls-6" d="M46.89,37.74c.09.06.33.19.3.3-.04.13-.71.4-.89.43l-4.76-.03c-.96-.13-1.75-.55-.44-1.06.79-.31,4.08-.36,4.88-.1.2.07.74.35.93.47Z"/>
          <path class="cls-13" d="M58.71,63.52c.04.57.35,1.1.49,1.66.03.11-.04.19-.03.23s.13,0,.14.13c.24,1.79-.85,3.14-1.8,4.58-.09.14-.14.24-.18.3-.43.65-.81.65-1.6.8.58-1.64,2.16-2.89,2.65-4.57.19-.63.25-1.64.25-2.3,0-.23-.12-.45-.08-.74.02-.12-.03-.11.15-.1Z"/>
          <path class="cls-13" d="M56.78,59.27c-.28-.67-.59-1.5-.52-2.23s.59-2.27.96-2.93c.04-.06.05-.16.15-.16.51,1.12.46,2.44.13,3.6-.11.38-.4,1.21-.57,1.55-.03.07-.05.16-.15.16Z"/>
          <path class="cls-13" d="M53.46,41.51s.1.04.12.07c.86,1.35,1.96,2.63,2.23,4.2-.13,0-.08-.16-.17-.25-1.31-1.28-2.51-2.92-3.02-4.64-.12-.42-.25-.85-.23-1.29.11.02.14.12.18.2.3.53.56,1.19.88,1.7Z"/>
          <path class="cls-6" d="M40.78,17.81c.1,0,.2,0,.3,0,.02,0,.05,0,.07,0,.25,0,.5,0,.74,0,.02,0,.05,0,.07,0,.17,0,.35,0,.52,0,.1,0,.2,0,.3,0,.34,0,.7-.02,1.04,0,.1,0,.2,0,.3,0,0,1.22,0,2.44,0,3.65,0,.19-.06.47.07.6,0,.2,0,.4,0,.6l-.07.03.07.03c0,.07,0,.13,0,.2l-.07.03.07.03s0,.04,0,.07c-.22.04-.14-.1-.15-.23-.06-1.65.05-3.31,0-4.95-2.11-.04-4.2.02-6.3.2-.18.01-.17-.06-.17-.06,1.05-.17,2.13-.18,3.2-.2Z"/>
          <path class="cls-13" d="M24.49,56.08c-.79-4.07,2.35-6.11,2.08-9.73-.12-1.61-.68-3.08-.15-4.75.11.29-.06.66-.08.96-.14,2.45.82,4.28-.12,6.73-.81,2.11-1.83,3.18-1.76,5.63,0,.38.21.82.03,1.16Z"/>
          <path class="cls-6" d="M44.8,32.1c-.18-.24.14-.13.14-.14.06-.15.09-.52.08-.69-.03-1.28-.44-2.75-.52-4.05l-.15-2.23c.15,1.47.35,3,.52,4.48.07.63.28,1.39.3,2,0,.25-.05.58-.37.63Z"/>
          <path class="cls-6" d="M46.89,37.74c-.18-.12-.72-.4-.93-.47-.8-.26-4.09-.2-4.88.1-1.31.51-.51.93.44,1.06l4.76.03c-.76.17-4.43.16-5.21-.03-1.21-.31-.81-.92.13-1.21s3.73-.36,4.65-.07c.36.11.77.33,1.02.58Z"/>
          <path class="cls-13" d="M24.27,64.06c-.13-1.06.49-2.38.29-3.68-.06-.38-.22-.73-.29-1.1.73,1.7.41,2.34.16,4.03-.04.25.09.57-.16.76Z"/>
          <path class="cls-13" d="M23.6,44.25c-.4-2.6-.18-4.2,1.04-6.58.15.04,0,.2-.04.27-1.03,1.95-1.26,3.84-.97,5.98.01.1.11.26-.04.33Z"/>
          <path class="cls-6" d="M28.73,27.78v-6.88c-.03-.09.04-.11.07-.16l-.07,7.04Z"/>
          <path class="cls-13" d="M27.62,29.5c.11-2.08-.03-4.25,0-6.35,0-.11-.05-.3.08-.36-.04,2.11.03,4.23,0,6.35,0,.11.05.3-.08.36Z"/>
          <path class="cls-13" d="M47.26,43.39c-.12-.27-.09-.68-.08-.97.06-1.27.15-2-.15-3.29.11.12.16.3.2.45.29,1.12.13,2.65.02,3.8Z"/>
          <path class="cls-13" d="M31.78,69.17c-1.34-1.66-1.31-3.57-.6-5.45-.37,2.58-.72,2.98.6,5.45Z"/>
          <path class="cls-13" d="M24.79,44.12c.24-.04.13.11.15.23.15.97.44,2.11.26,3.06-.02.12-.18.43-.26.56.3-1.61-.04-2.37-.15-3.85Z"/>
          <path class="cls-13" d="M29.25,46.12c-.18-.05-.13-.18-.15-.3-.25-1.28-.11-2.94.37-4.15-.29,1.16-.43,2.3-.37,3.49.02.29.13.67.15.96Z"/>
          <path class="cls-13" d="M25.09,50.77c.96-2.4,1.2-2.81,1.04-5.45.58,1.86-.03,3.81-1.04,5.45Z"/>
          <path class="cls-13" d="M30.96,48.04l-.45-2.76c-.02-.42,0-.83.07-1.23.08.51.02,1.05.08,1.56.08.83.24,1.58.3,2.43Z"/>
          <path class="cls-13" d="M40.71,71.56c.18-.05.24.3.26.4.36,1.45-.29,2.74-.04,4.19-.44-1.04.11-2.23.08-3.29-.01-.47-.16-.87-.3-1.29Z"/>
          <path class="cls-13" d="M39.15,51.36c.23-.04.14.1.15.23.12,2.9-2.23,3.65-.6,7.21-.51-.73-.81-1.69-.74-2.56.11-1.45,1.21-2.85,1.26-4.29l-.07-.2c0-.13.01-.27,0-.4Z"/>
          <path class="cls-13" d="M29.03,63.66c.13-.91.33-2.15-.07-2.82l.07-.64c.32,1.11.46,2.36,0,3.46Z"/>
          <path class="cls-13" d="M33.2,63.79c.26-1.74.15-3.12-.74-4.72.43.81.83,1.43.96,2.37.1.73.07,1.67-.21,2.35Z"/>
          <path class="cls-13" d="M28.06,46.78c.22-.04.14.1.15.23.08,1.97-.65,3.15-1.41,4.89.24-.76.65-1.47.89-2.22.33-1,.42-1.84.37-2.89Z"/>
          <path class="cls-13" d="M26.2,57.28s-.04.06-.07.07c-.35-1.48-.59-3.06,0-4.52-.34,1.51-.29,2.95.07,4.45Z"/>
          <path class="cls-13" d="M36.17,58.08c.75,1.37,1.74,2.53,1.86,4.15.12,1.68-.71,3.01-.96,4.59l.06,1.42c-.03-.09-.15-.41-.15-.43v-1.4c0-.52.63-1.84.78-2.49.27-1.17.24-2.08-.21-3.21-.36-.93-1.04-1.72-1.39-2.64Z"/>
          <path class="cls-13" d="M22.85,55.62c-.22-1.07-.13-2.26.15-3.32.14.07.06.23.04.33-.16.98-.27,2.03-.19,2.99Z"/>
          <path class="cls-13" d="M52.39,42.73c-.06.16-.12-.06-.14-.11-.7-1.55-.77-2.46-1.05-4.08.34.89.33,1.84.6,2.75.14.49.34.98.59,1.43Z"/>
          <path class="cls-13" d="M35.58,62.2c-.15-3.36-3.42-4.47-1.41-8.24l-.51,1.51c-.55,2.27,1.83,4.18,2,6.3,0,.12.04.35-.08.43Z"/>
          <path class="cls-13" d="M27.69,62.99c.03-.52.15-.95.12-1.48-.05-.8-.32-1.53-.49-2.3.62,1.51.77,2.18.37,3.79Z"/>
          <path class="cls-13" d="M29.33,67.64c-.14-.04-.15-.16-.19-.26-.7-1.98.53-3.78.41-5.75-.08-1.42-.84-2.68-1.26-4.02.48,1.23,1.22,2.43,1.34,3.76.21,2.34-1.06,3.76-.3,6.28Z"/>
          <path class="cls-13" d="M26.2,55.88c-.12-.07-.07-.25-.08-.36-.02-1.12.02-2.09.45-3.16.15.06.03.21,0,.3-.32,1.05-.44,2.14-.37,3.22Z"/>
          <path class="cls-13" d="M38.03,48.37c-.72-1.35-.57-2.95.22-4.25-.33.83-.7,1.91-.59,2.82l.36,1.44Z"/>
          <path class="cls-13" d="M44.5,74.49c.21-1.09.32-2.17,0-3.26.1-.14.1.07.11.13.24,1.27.28,1.88-.11,3.12Z"/>
          <path class="cls-13" d="M35.2,38.54c.12.07.09.26.07.36-.06.62-.23,1.25-.38,1.86l.15.04v.06c-.08,0-.18-.02-.23.04-.13.15-.32.8-.48,1.02-.06.08-.15.11-.18.14.04-.27.28-.45.39-.68.43-.92.43-1.89.65-2.84Z"/>
          <path class="cls-13" d="M41.9,46.71c-.54-1.69.17-3.02.74-4.58.12.04.02.21,0,.29-.4,1.29-.93,2.16-.81,3.6.02.24.2.49.08.7Z"/>
          <path class="cls-13" d="M30,57.68c-.44-.88-.46-2.38-.3-3.32.22.49-.09,1.04,0,1.56l.3,1.76Z"/>
          <path class="cls-13" d="M44.43,64.72c.23-.98.29-1.94.04-2.93-.12-.48-.43-.92-.56-1.39.89,1.52,1.07,2.65.52,4.32Z"/>
          <path class="cls-13" d="M44.21,57.21l-.07.03c-.28-2.12,1.25-3.83,1.55-5.86l-.07-1.49c.75,2.8-1.72,4.64-1.41,7.31Z"/>
          <path class="cls-13" d="M29.33,44.72c-.03-.98.11-1.92.39-2.87.06-.21.12-.49.28-.65-.21.66-.41,1.42-.51,2.1-.07.45-.01.98-.16,1.42Z"/>
          <path class="cls-13" d="M28.81,50.83c-.14-.05,0-.2.02-.28.15-.47.5-1.36.5-1.81v-1.66c0-.1-.06-.39-.07-.56.45,1.46.1,2.92-.45,4.32Z"/>
          <path class="cls-13" d="M36.77,68.24c-.58-1.46.22-3.01.66-4.43.03-.11-.01-.25.16-.29-.1.85-.64,1.72-.8,2.58-.13.72-.12,1.42-.02,2.14Z"/>
          <path class="cls-13" d="M29.03,67.84c-.67-1.38-.54-2.72,0-4.12-.15,1.09-.49,1.95-.29,3.08.06.35.24.68.29,1.04Z"/>
          <path class="cls-13" d="M44.8,39.27c.25-.03.12.09.13.21.04.9-.25,1.78-.46,2.65-.02.07,0,.28-.11.13.29-1.07.37-1.9.45-2.99Z"/>
          <path class="cls-13" d="M49.34,70.3c-.24.04-.12-.11-.15-.23-.24-1.37.09-2.49.75-3.71.05-.1.09-.2.21-.24-.71,1.58-1.16,2.41-.82,4.19Z"/>
          <path class="cls-13" d="M40.71,54.35c.14.06.04.21,0,.3-.46,1.21-.58,2.2-.13,3.44.2.55.56,1.1.8,1.58-.25-.28-.47-.67-.63-1-.76-1.58-.71-2.72-.04-4.32Z"/>
          <path class="cls-13" d="M39.15,65.92c-.23.98-.3,1.88,0,2.86-.41-1.01-.36-1.87-.07-2.92.03,0,.06.07.07.07Z"/>
          <path class="cls-13" d="M24.71,47.44c.08-.85-.03-1.68-.07-2.52.27.79.34,1.73.07,2.52Z"/>
          <path class="cls-2" d="M14.67,49.11c-.92-.09-2-.06-2.9.13-.06-.33.15-.11.41-.13.75-.07,1.38-.19,2.17-.14.14,0,.28-.02.33.14Z"/>
          <path class="cls-13" d="M35.87,47.84c-.11-.09-.14-.24-.15-.37-.07-.75-.02-1.64.22-2.36-.16.76-.19,1.92-.07,2.72Z"/>
          <path class="cls-13" d="M29.7,48.71c.07-.99-.12-1.95-.22-2.92.09.08.11.21.13.32.16.88.24,1.74.1,2.61Z"/>
          <path class="cls-13" d="M37.73,57.01c-.17-.04-.1-.13-.1-.23-.09-2.29,1.49-3.6,1.07-6.08.82,1.83-.83,3.59-.97,5.35-.02.28-.02.68,0,.97Z"/>
          <path class="cls-13" d="M44.28,46.91c-.57-1.09-.66-1.67-.45-2.86v1.42s.45,1.44.45,1.44Z"/>
          <path class="cls-13" d="M21.22,54.49c-.12-.07-.07-.25-.08-.36,0-.68.07-1.36.22-2.03.13.07.07.24.05.35-.11.67-.21,1.4-.2,2.05Z"/>
          <path class="cls-13" d="M34.91,50.83c.21-.06.18.3.18.39,0,.8-.23,1.45-.48,2.2-.03,0-.07-.07-.07-.07.31-.87.51-1.61.37-2.52Z"/>
          <path class="cls-13" d="M31.04,48.97c-.09,1.5-.79,2.82-1.24,4.24-.03.1-.07.21-.17.28.34-1.47,1.24-2.76,1.24-4.33,0-.15-.06-.17.17-.19Z"/>
          <path class="cls-13" d="M32.6,64.59c.17-1.05.5-2.04.37-3.12,0,.02.07.07.08.16.09.98-.06,2.05-.45,2.96Z"/>
          <path class="cls-13" d="M25.46,64.99c-.26-.98.29-1.98.37-2.96v-1.49c.35,1.61-.36,2.85-.37,4.45Z"/>
          <path class="cls-13" d="M42.27,75.62c.01.55,0,1.05.15,1.59-.26-.06-1.03.01-1.12-.2l.97.07c0-.41-.12-.85-.12-1.26,0-.1,0-.17.12-.2Z"/>
          <path class="cls-13" d="M24.19,55.62c-.15-.09-.14-.22-.15-.36-.09-1.37.17-2.67.73-3.94.07-.15.16-.39.31-.49-.75,1.88-1.06,2.72-.89,4.78Z"/>
          <path class="cls-13" d="M49.71,53.23c.36-1.07.59-2.07.45-3.19.11.09.14.24.15.37.09.93-.13,2-.59,2.82Z"/>
          <path class="cls-13" d="M45.62,69.11c.24-.04.13.1.15.23.21,1.03.74,1.91.82,2.99.11,1.44-.41,2.45-.9,3.76.05-.59.42-1.14.57-1.71.67-2.48-.33-3.14-.65-5.26Z"/>
          <path class="cls-13" d="M26.13,41.93c-.17,1.01-.14,1.66-.07,2.66-.22.04-.14-.1-.15-.23-.03-.74-.05-1.47.08-2.2.02-.12-.09-.27.15-.23Z"/>
          <path class="cls-13" d="M48.15,65.65c.26-.83.53-1.68.51-2.55,0-.1-.1-.19.09-.24.07.94-.13,1.95-.6,2.79Z"/>
          <path class="cls-13" d="M31.19,47.44c-.11-.77-.27-1.54-.3-2.33.24.17.12.47.15.7.05.43.15.86.2,1.28.01.11.08.28-.05.34Z"/>
          <path class="cls-13" d="M31.48,56.61c-.13-.72-.15-1.38.06-2.1.03-.11.04-.22.16-.29-.07.33-.19.78-.22,1.1-.04.43.06.87,0,1.29Z"/>
          <path class="cls-6" d="M45.6,17.88h-.31s-.04.02-.04.03c-.15.84.11,2.01,0,2.89,0-.01.08-.1.08-.22.02-.86-.02-1.73-.01-2.59,0-.01.21-.08.28-.1Z"/>
          <path class="cls-13" d="M35.2,63.26c.06-.95-.03-1.74-.3-2.66.4.78.58,1.82.3,2.66Z"/>
          <path class="cls-13" d="M23.75,44.92c.24-.04.12.11.15.23.09.53.11.87,0,1.4-.02.12.09.27-.15.23.11-.65.1-1.21,0-1.86Z"/>
          <path class="cls-13" d="M42.72,58.21c-.42-.79-.46-1.77-.29-2.62.02-.11.03-.23.14-.31-.19,1-.16,1.94.15,2.92Z"/>
          <path class="cls-13" d="M31.34,48.31c.12.69-.03,1.36-.15,2.06-.03,0-.06-.07-.07-.07.14-.59.08-1.22.15-1.79l.07-.07s0-.09,0-.13Z"/>
          <path class="cls-13" d="M45.17,59.07c-.61-1.15-.82-2.03-.6-3.32.14.07.07.24.05.35-.05.45-.09.9.02,1.35l.52,1.63Z"/>
          <path class="cls-13" d="M25.46,58.67c.6,1.37.99,2.24.73,3.81-.02.11-.01.5-.21.44.06-.52.24-1.02.22-1.56-.03-.92-.46-1.82-.74-2.69Z"/>
          <path class="cls-13" d="M46.07,51.7c-.1-.25.01-.54,0-.83-.02-.34-.13-.9-.22-1.23.16.04.13.17.16.29.17.68.15,1.11.06,1.77Z"/>
          <path class="cls-13" d="M27.91,45.78c-.1-.84-.2-1.6-.15-2.46l.2,2.11-.05.35Z"/>
          <path class="cls-6" d="M43.31,32.1c-.71.02-1.31-.01-2.02.09s-1.32.33-1.99.51c1.22-.57,2.25-.68,3.61-.67.13,0,.33-.04.41.07Z"/>
          <path class="cls-13" d="M39,74.22c0,.19,0,.37-.05.55l.12,1.17c-.2-.5-.24-.97-.22-1.5,0-.13-.08-.27.15-.23Z"/>
          <path class="cls-13" d="M45.84,41.46c.05-.65-.1-1.36.07-1.99.11.77.03,1.25-.07,1.99Z"/>
          <path class="cls-6" d="M52.32,21.46l-.15.1c-.02-.6-.08-1.24-.22-1.83.27.51.34,1.17.37,1.73Z"/>
          <path class="cls-13" d="M27.32,65.85c.2,1.24.58,1.91,1.19,2.99-.55-.68-.98-1.48-1.17-2.31-.04-.17-.13-.53-.02-.68Z"/>
          <path class="cls-13" d="M42.27,42.26c.31-.99.52-2.09,1.04-2.99-.42.97-.53,2.05-1.04,2.99Z"/>
          <path class="cls-13" d="M28.58,52.1c-.38,1.12-.76,2.4-.61,3.57.02.18.06.18-.13.08-.07-1.23.18-2.53.74-3.65Z"/>
          <path class="cls-13" d="M35.5,63.46c.13.07.08.24.06.35-.11.58-.38,1.14-.5,1.71-.04,0-.06-.07-.07-.07.13-.67.42-1.31.52-1.99Z"/>
          <path class="cls-13" d="M37.06,51.17c.17,1.19-.03,1.87-.52,2.99-.03,0-.07-.07-.07-.07.4-.95.69-1.9.6-2.92Z"/>
          <path class="cls-13" d="M38.63,74.22c-.2-.28,0-.65,0-.96,0-.38-.03-.85-.08-1.23.32.67.09,1.49.07,2.19Z"/>
          <path class="cls-13" d="M41.45,65.92c-.2.66-.27,1.21-.3,1.9,0,.13.08.27-.15.23-.04-.8.16-1.39.45-2.13Z"/>
          <path class="cls-13" d="M24.34,64.25c.16,1.12.3,1.99,1.19,2.83.01.01.24.37.22.06-.02-.27-.31-.83-.37-1.2-.03-.2-.13-.62.07-.76.01.37.03.71.11,1.07l.52,1.46c-1.11-.87-1.63-1.79-1.8-3.11-.01-.11-.09-.28.05-.35Z"/>
          <path class="cls-13" d="M31.11,68.71c-.72-1.2-.95-2.24-.6-3.59.08.18-.07.46-.07.56v1.06c0,.17.19.83.26,1.03.11.32.34.6.41.93Z"/>
          <path class="cls-13" d="M44.06,70.17c-.46-.82-.64-1.62-.52-2.52.15.33.05.72.1,1.08.06.45.28,1.01.43,1.45Z"/>
          <path class="cls-13" d="M27.62,54.35c.05-1.01.28-1.48.67-2.39l-.67,2.39Z"/>
          <path class="cls-13" d="M24.79,43.59c-.16-.52-.07-1.13,0-1.66.13.11.08.35.08.5-.01.38-.08.81-.08,1.16Z"/>
          <path class="cls-13" d="M33.2,49.24c-.13.53-.11,1.07-.26,1.6-.02.08-.11.12-.11.13.14-.66.24-1.33.22-1.99.14,0,.11.2.15.27Z"/>
          <path class="cls-13" d="M46.07,42.26c-.06.44-.15.86-.23,1.3-.02.12.09.27-.15.23.04-.47.17-1.09.37-1.53Z"/>
          <path class="cls-13" d="M37.44,47.64c-.24-.59-.35-1.25-.15-1.86-.05.63.06,1.24.15,1.86Z"/>
          <path class="cls-13" d="M26.13,52.76c.25-1.07.84-1.95,1.19-2.96.21-.62.29-1.26.45-1.89,0,.71-.12,1.19-.38,1.89l-1.26,2.96Z"/>
          <path class="cls-13" d="M34.01,39.87c-.14-.33,0-.86.07-1.22.09-.44.15-1.01.45-1.37-.25.92-.33,1.69-.52,2.59Z"/>
          <path class="cls-13" d="M42.57,55.22c.37-1.91,1.66-2.91,1.04-5.12.07-.17.12.08.13.12.14.81.15,1.56-.06,2.37l-1.11,2.63Z"/>
          <path class="cls-13" d="M49.04,54.95c-.24.72-.43,1.42-.37,2.19,0,0,.01.08-.07.07-.05-.72.03-1.38.26-2.06.04-.11-.01-.24.18-.2Z"/>
          <path class="cls-13" d="M36.02,58.54c-.06-.1-.17-.19-.19-.22-.41-.7-.6-1.79-.4-2.57-.03.73.04,1.52.32,2.21.08.19.3.34.28.58Z"/>
          <path class="cls-13" d="M37.59,63.32c.04-.57-.07-1.16-.07-1.73.04.15.13.27.15.5.03.36.03.89-.08,1.23Z"/>
          <path class="cls-13" d="M41.38,45.45c-.09-.79.35-2.1.7-2.86.05-.1.06-.22.19-.26-.32,1.03-.81,2.04-.89,3.12Z"/>
          <path class="cls-13" d="M33.49,43.26c-.12.35-.25.8-.3,1.16-.02.12.09.27-.15.23.06-.45.14-1.03.45-1.4Z"/>
          <path class="cls-13" d="M43.46,44.65c-.18-.27-.04-.66.02-.94.09-.41.26-.97.5-1.32-.21.79-.48,1.43-.52,2.26Z"/>
          <path class="cls-13" d="M50.83,64.59l.15-1.99c.11.69.04,1.32-.15,1.99Z"/>
          <path class="cls-13" d="M35.8,57.15c-.09-.43-.15-1.18,0-1.59.19.19,0,.48,0,.7,0,.28.15.64,0,.9Z"/>
          <path class="cls-13" d="M45.1,36.08c-.77.02-1.54-.03-2.31,0,.08-.11.28-.07.41-.07.65,0,1.27-.01,1.9.07Z"/>
          <path class="cls-13" d="M46.22,39.4l-.15-.46c.4.1.47-.22.84-.14.08.02.11.2.12.27-.14-.26-.57,0-.82-.07.06.15,0,.3,0,.4Z"/>
          <path class="cls-13" d="M22.48,55.28c.19.48.24.99.39,1.48.35,1.1,1.04,2.12,1.32,3.24-.22-.07-.25-.32-.37-.47h.07s.01.07.04.07c.08,0,0-.1-.04-.07-.42-1.5-1.31-2.66-1.41-4.25Z"/>
          <path class="cls-13" d="M46.74,62.06s.04-.06.07-.07c.08.45.11.83.11,1.28,0,.11.14.21-.11.18,0-.47-.02-.93-.07-1.4Z"/>
          <path class="cls-13" d="M46.36,57.28c-.18-.85,0-1.41.3-2.19-.16.72-.35,1.45-.3,2.19Z"/>
          <path class="cls-13" d="M48.3,73.36l-.07-1.79s-.01-.08.07-.07c.07.63.14,1.25,0,1.86Z"/>
          <path class="cls-13" d="M29.85,57.94c-.23.14-.11.03-.15-.1-.21-.64-.34-.96-.37-1.63.13.59.34,1.15.52,1.73Z"/>
          <path class="cls-13" d="M46.59,65.05c.09-.51.2-.94.22-1.46.14.29.05.83-.03,1.13-.05.16-.15.24-.19.33Z"/>
          <path class="cls-13" d="M27.76,47.84c0-.43-.05-.81-.08-1.23,0-.13-.04-.35.08-.44.06.53.16,1.14,0,1.66Z"/>
          <path class="cls-13" d="M34.68,47.51c0,.07.05.22-.07.2.08-.46-.27-.98.07-1.4-.03.4.02.8,0,1.2Z"/>
          <path class="cls-13" d="M26.2,56.22l.16.22.51,1.84c-.24-.58-.6-1.46-.67-2.06Z"/>
          <path class="cls-13" d="M43.61,66.31c-.19.61-.35.99-.37,1.66-.26.02-.09-.05-.08-.17.04-.48.09-.84.27-1.29.04-.11-.01-.24.19-.2Z"/>
          <path class="cls-13" d="M31.04,63.13c-.19-.19,0-.47,0-.69.01-.28.01-.69,0-.97.16.52.08,1.14,0,1.66Z"/>
          <path class="cls-13" d="M44.36,73.49l-.07-1.86c.14.6.26,1.25.07,1.86Z"/>
          <path class="cls-13" d="M41.45,41.07c.22-.72.49-1.43.93-2.06l1.08-.06c.08.17-.14.24-.15.27.04-.2-.11-.13-.26-.13-.64-.02-.7,0-.97.53-.22.44-.42,1-.63,1.46Z"/>
          <path class="cls-13" d="M33.05,38.61l1.12-2.72c.35.03.61.29.97.27.02.01-.05.09-.07.13l-.82-.27c-.26.82-.6,1.62-1.02,2.39-.05.09-.15.15-.18.21Z"/>
          <path class="cls-13" d="M39.22,65.78c-.1-.09,0-.36.04-.47.19-.57.42-1.14.56-1.73-.02.73-.35,1.49-.6,2.19Z"/>
          <path class="cls-13" d="M34.46,67.31c-.12-.07-.07-.25-.08-.36,0-.37-.08-.85.15-1.16-.06.5-.1,1.02-.07,1.53Z"/>
          <path class="cls-13" d="M48.89,62.13c.22-.04.14.1.16.22.09.47.04.61-.01,1.04,0-.43-.05-.85-.15-1.26Z"/>
          <path class="cls-6" d="M29.18,29.17c-.19-.28-.31-.74-.37-1.06.21-.12.12-.06.16.09.08.31.13.67.21.97Z"/>
          <path class="cls-13" d="M45.62,69.04c-.05-.4-.11-.8,0-1.2.12.33.13.86,0,1.2Z"/>
          <path class="cls-13" d="M25.01,40.87c.29-1.2.79-2.3,1.41-3.39l-1.41,3.39Z"/>
          <path class="cls-13" d="M30.89,44.32c.02-.38.07-.75.15-1.13-.02.16.03.58,0,.83-.01.12.03.25-.15.3Z"/>
          <path class="cls-13" d="M34.83,67.24c0-.08-.06-.34.07-.33-.03.3.02.59.1.88.15.56.46,1.07.72,1.58-.47-.57-.88-1.42-.89-2.13Z"/>
          <path class="cls-13" d="M42.87,33.03c.04.2-.11.13-.26.13-.35.01-.84-.08-1.08-.07.45.05.89-.09,1.34-.07Z"/>
          <path class="cls-13" d="M28.51,59.01c-.02-.07-.19-.13-.2-.15-.18-.33-.38-1.19-.47-1.58.26.56.44,1.15.67,1.73Z"/>
          <path class="cls-13" d="M39.45,45.12c-.09.44-.1,1.01-.07,1.46l-.08-1.03.15-.43Z"/>
          <path class="cls-13" d="M26.5,41.46c.09-.83.49-1.64.85-2.4.05-.1.05-.22.19-.26-.4.86-.76,1.75-1.04,2.66Z"/>
          <path class="cls-13" d="M25.38,38.94c-.42.99-.66,2.02-.89,3.06.05-1.06.47-1.86.61-2.85l.28-.21Z"/>
          <path class="cls-13" d="M23.23,56.81c-.17-.22-.35-.74-.37-1,.21-.12.12-.06.16.09.08.3.14.61.21.91Z"/>
          <path class="cls-13" d="M44.43,40.33c.04-.44.08-.89.07-1.33.12.05.09.69.08.83-.01.16-.03.37-.15.5Z"/>
          <path class="cls-13" d="M48.08,50.43c.03.39.05.92-.15,1.26.04-.33.08-.76.07-1.09,0-.11-.18-.19.08-.17Z"/>
          <path class="cls-13" d="M30.96,42.33c-.04.38-.14.76-.22,1.13-.22-.36.18-.81.15-1.2.03,0,.06.07.07.07Z"/>
          <path class="cls-13" d="M42.27,74.95c.03-.4.14-.75.22-1.13,0,.37,0,.8-.22,1.13Z"/>
          <path class="cls-13" d="M32.01,44.72c.02.44-.02.89,0,1.33,0-.02-.07-.09-.08-.23-.04-.41.04-.88,0-1.3.13-.02.07.13.07.2Z"/>
          <path class="cls-13" d="M43.09,33.09c.49-.02.99,0,1.49,0,.2.09-.13.07-.19.07-.47,0-.94,0-1.41,0-.12-.09.06-.06.11-.07Z"/>
          <path class="cls-13" d="M45.77,44.99c-.08-.37-.09-.75-.07-1.13.21.06.1.15.1.25,0,.27.09.63-.02.88Z"/>
          <path class="cls-13" d="M33.2,63.86c-.04.22-.05.37-.11.6-.03.11-.07.51-.26.47.07-.31.21-.78.37-1.06Z"/>
          <path class="cls-13" d="M43.76,76.88c-.11.18-.07-.11-.07-.17,0-.46.03-.66.15-1.1.03.43-.11.82-.07,1.26Z"/>
          <path class="cls-13" d="M38.7,50.63c-.19-.14-.25-.47-.32-.68-.03-.09-.15-.31-.06-.38.16.38.3.65.37,1.06Z"/>
          <path class="cls-13" d="M39.82,45.05c.19-.87.54-1.52.89-2.33l-.89,2.33Z"/>
          <path class="cls-13" d="M39,73.76v-1.46c.12.46.11.99,0,1.46Z"/>
          <path class="cls-13" d="M23.82,50.43l1.12-2.39c-.18.91-.68,1.58-1.12,2.39Z"/>
          <path class="cls-13" d="M34.91,65.58c.25-.02.11.05.08.17-.03.18-.06.35-.09.53-.02.12.09.27-.15.23.02-.27.08-.67.15-.93Z"/>
          <path class="cls-6" d="M49.34,18.21c-.87-.07-1.85-.05-2.68-.27.89.01,1.81.16,2.68.27Z"/>
          <path class="cls-13" d="M31.56,57.94l-.29-.57c-.12-.31-.13-.58-.15-.89.18.48.26.98.45,1.46Z"/>
          <path class="cls-13" d="M34.76,72.89s.06.08.06.16c0,.26-.13.61-.06.9l-.37-.4.3.13.07-.8Z"/>
          <path class="cls-13" d="M44.36,62.79c-.24.03-.06-.18-.15-.35-.03-.05-.09-.06-.15-.05-.03-.11.11-.04.14-.07.06-.06-.39-1.26-.48-1.45-.21-.46-.49-.88-.7-1.33.69.98,1.26,2.08,1.34,3.26Z"/>
          <path class="cls-13" d="M25.9,63.66c-.03.25-.04.51-.08.76-.02.12.09.27-.15.23.02-.29.06-.76.22-1Z"/>
          <path class="cls-13" d="M45.32,76.35c-.14-.06-.05-.22-.03-.32.18-.72.49-1.36.69-2.11.03-.11.02-.23.15-.3-.15.99-.67,1.79-.82,2.72Z"/>
          <path class="cls-13" d="M22.78,45.25c-.18-.34-.39-.91-.22-1.26.05.42.17.84.22,1.26Z"/>
          <path class="cls-6" d="M34.46,18.41c-.09.32-.12.11-.31.15-1.25.24-2.57.64-3.71,1.18.18-.18.52-.31.77-.41.97-.4,2.2-.75,3.25-.92Z"/>
          <path class="cls-6" d="M37.21,18.08c-.51.05-1.05.16-1.56.24-.11.02-.3.09-.37-.04.43-.07.88-.13,1.31-.19.17-.02.48-.1.62-.01Z"/>
          <path class="cls-13" d="M40.71,72.43l-.15.1c-.05-1.13-.73-2.1-1.22-3.1-.05-.11-.26-.42-.12-.52.44,1.05,1.37,2.44,1.49,3.52Z"/>
          <path class="cls-13" d="M25.16,58.74c-.49-1.04-.85-1.75-.97-2.92l.97,2.92Z"/>
          <path class="cls-13" d="M29.4,54.49s-.06-.04-.05-.09c.02-.23.11-.66.27-.84-.06.29-.05.65-.22.93Z"/>
          <path class="cls-13" d="M36.25,53.09c-.15-.07-.05-.23-.04-.33.03-.31,0-.65.11-.93.03.42,0,.85-.07,1.26Z"/>
          <path class="cls-13" d="M43.31,69.17c-.1-.29-.31-.8-.07-1.06,0,.36.06.7.07,1.06Z"/>
          <path class="cls-13" d="M32.68,50.43c-.11.65-.39,1.37-.63,2-.04.1-.05.22-.19.26.22-.67.53-1.34.67-2.03.03-.12-.1-.27.14-.23Z"/>
          <path class="cls-13" d="M27.47,63.99c-.03.25-.03.5-.08.76-.02.12.09.27-.15.23.02-.29.1-.72.22-1Z"/>
          <path class="cls-13" d="M45.99,52.1c-.21.98-.7,1.92-1.06,2.87-.04.11-.01.22-.2.18l1.26-3.06Z"/>
          <path class="cls-13" d="M34.54,65.65c.09-.6.33-1.15.52-1.73l-.11.67-.41,1.06Z"/>
          <path class="cls-13" d="M31.11,55.22c-.03.35-.02.84,0,1.2-.17-.37-.03-.84-.07-1.23l.07.03Z"/>
          <path class="cls-13" d="M45.47,69.5c-.22.04-.14-.1-.16-.22-.05-.25-.16-.6.01-.84,0,.43.06.66.15,1.06Z"/>
          <path class="cls-13" d="M36.77,73.62c-.01.73-.08,1.1.2,1.85.07.18.24.29.25.48-.05.05-.5-.21-.59-.27l.37.07c-.26-.62-.4-1.23-.37-1.9,0-.13-.08-.27.15-.23Z"/>
          <path class="cls-13" d="M32.45,70.9s.12.12.16.22c.25.55.36,1.18.43,1.77-.09.08-.69-.27-.82-.33l.67.2c.14-.13-.32-1.61-.45-1.86Z"/>
          <path class="cls-13" d="M48,72.03c.03.34.03.85,0,1.2-.14-.3-.06-.69-.08-1.03,0-.12-.18-.19.08-.17Z"/>
          <path class="cls-13" d="M39.52,65.72c.14.06.03.22,0,.31-.06.26-.11.52-.16.79-.02.12.09.27-.15.23.03-.38.17-.96.3-1.33Z"/>
          <path class="cls-13" d="M47.48,59.27c-.45-.58-.65-1.24-.74-1.93l.07-.03c.07.7.36,1.33.67,1.96Z"/>
          <path class="cls-13" d="M41.38,69.3c-.16-.39-.33-.76-.37-1.2.32.29.2.83.37,1.2Z"/>
          <path class="cls-13" d="M33.2,55.35c-.04.38.03.81,0,1.2-.06-.38-.07-.64-.07-1.03,0-.05-.03-.34.07-.17Z"/>
          <path class="cls-13" d="M35.13,69.04s-.04.06-.07.07c-.18-.5-.41-.79-.52-1.33l.6,1.26Z"/>
          <path class="cls-13" d="M32.75,49.97c-.12-.33-.13-.86,0-1.2.03.33.03.86,0,1.2Z"/>
          <path class="cls-13" d="M46.96,77.01c.4-.11.93-.03,1.19-.4-.03.06-.02.16-.08.23-.14.17-.71.18-.96.21-.07,0-.14.07-.15-.04Z"/>
          <path class="cls-13" d="M37.06,74.75c.3.18.17.44.24.68.01.04.4.65.43.68.11.09,1.12.43,1.19.37.04-.11-.06-.19-.07-.27l.34.46c-.41-.16-1.22-.28-1.53-.56-.02-.02-.3-.37-.31-.39-.14-.26-.25-.69-.28-.98Z"/>
          <path class="cls-13" d="M29.33,55.09c-.02.34,0,.72,0,1.06-.17-.32-.03-.75-.07-1.1l.07.03Z"/>
          <path class="cls-13" d="M32.01,40.67c-.31.73-.62,1.48-.81,2.24-.03.12.07.26-.16.22,0-.22.34-1.16.45-1.43.13-.34.32-.72.52-1.03Z"/>
          <path class="cls-13" d="M53.21,44.19c.22-.1-.2-.33-.22-.38s.01-.13,0-.15l.82.9c-.26,0-.45-.27-.59-.37Z"/>
          <path class="cls-13" d="M35.06,74.02c0-.38,0-.75,0-1.13.12.31.13.82,0,1.13Z"/>
          <path class="cls-13" d="M31.04,61.2c-.16-.04-.14-.17-.16-.29-.07-.3-.12-.61-.21-.91.19.37.34.79.37,1.2Z"/>
          <path class="cls-13" d="M46.22,73.22c-.12-.31-.13-.82,0-1.13.03.31.03.81,0,1.13Z"/>
          <path class="cls-2" d="M21.59,49.17c-.38.72-.73,1.45-1.04,2.19.13-.68.44-1.25.76-1.87l.28-.32Z"/>
          <path class="cls-13" d="M30.59,33.49c.12.08.81.66.82.71.04.22-.47,1.1-.6,1.35-.01-.4.51-.95.45-1.29-.04-.2-.52-.58-.67-.77Z"/>
          <path class="cls-13" d="M43.46,50.83c.15,1.62-.82,3.01-1.26,4.52.23-1.57,1.27-2.63,1.18-4.35,0-.12-.18-.19.08-.17Z"/>
          <path class="cls-13" d="M39.67,46.51c-.04-.37.03-.72.07-1.06-.04.34.09.76-.07,1.06Z"/>
          <path class="cls-13" d="M45.84,67.05c.14-.5.34-.98.52-1.46.14.1-.03.37-.08.49-.13.32-.25.68-.44.97Z"/>
          <path class="cls-13" d="M26.5,40.27c-.07.43-.21.84-.3,1.26-.15-.41.22-.91.22-1.33.04,0,.07.07.07.07Z"/>
          <path class="cls-13" d="M30.67,51.76c-.03.12-.34.84-.3.86.05.04.31-.07.3.07-.53-.08-.34.13-.48.4-.03.06-.1.11-.11.13.12-.49.32-1.02.6-1.46Z"/>
          <path class="cls-13" d="M48.67,62.66l-.07.03c0-.53-.21-1.01-.42-1.48-.03-.06-.13-.25-.03-.28.33.65.43,1.03.52,1.73Z"/>
          <path class="cls-13" d="M32.3,47.38c-.07.17-.11-.08-.12-.12-.09-.35-.29-.81-.1-1.14.08.44.1.81.22,1.26Z"/>
          <path class="cls-13" d="M38.55,71.96c-.11-.2-.36-.61-.22-.8.11.27.18.51.22.8Z"/>
          <path class="cls-13" d="M47.85,74.02c-.07.26-.2.49-.3.73-.04-.15.09-.77.3-.73Z"/>
          <path class="cls-13" d="M41.31,52.83c.06-.3.11-.64.22-.93-.02.31.06.68-.22.93Z"/>
          <path class="cls-13" d="M36.77,73.56c-.13-.26-.12-.75,0-1,.03.31,0,.68,0,1Z"/>
          <path class="cls-13" d="M27.02,65.65c.01.11-.02.23,0,.33-.23.04-.14-.1-.15-.23s0-.27,0-.4c.06-.09.15.28.15.3Z"/>
          <path class="cls-13" d="M39.59,47.38c-.25-.14-.21-.5-.22-.73.15.21.16.5.22.73Z"/>
          <path class="cls-13" d="M32.38,66.12c-.13-.32-.03-.9.15-1.2-.06.4-.13.8-.15,1.2Z"/>
          <path class="cls-13" d="M41.16,50.9c-.26.04-.11-.16-.15-.29-.02-.06-.05-.13-.09-.26-.33-1.06-1.03-1.89-1.32-2.91.53,1.15,1.33,2.21,1.56,3.46Z"/>
          <path class="cls-13" d="M31.41,38.47c-.23.43-.49.85-.67,1.3l-.37.56c.29-.64.6-1.3,1.04-1.86Z"/>
          <path class="cls-13" d="M38.85,76.15c-.26-.13-.2-.44-.22-.66.14.19.17.45.22.66Z"/>
          <path class="cls-13" d="M42.64,71.43c-.19-.6-.52-1.14-.74-1.73.13.04.18.12.23.23.14.29.28.61.4.9.05.13.2.47.11.6Z"/>
          <path class="cls-13" d="M42.5,76.35c-.02-.27-.02-.66,0-.93.13.24.12.71,0,.93Z"/>
          <path class="cls-13" d="M34.68,72.36c-.06-.3-.14-.63-.22-.93.21.27.25.61.22.93Z"/>
          <path class="cls-13" d="M47.41,44.52c-.1-.22-.21-.61-.22-.84,0-.17.07-.21.07-.22.08.31.08.77.15,1.06Z"/>
          <path class="cls-13" d="M42.72,36.08c-.18,0-.4.05-.6.07-.09-.21.45-.17.6-.07Z"/>
          <path class="cls-2" d="M14.67,42.39v-.86c.07.41.08.44,0,.86Z"/>
          <path class="cls-13" d="M51.2,38.47c-.24-.46-.28-.98-.45-1.46.27.46.36.96.45,1.46Z"/>
          <path class="cls-13" d="M35.87,55.48c.02-.25.12-.56.22-.8.14.23-.15.59-.22.8Z"/>
          <path class="cls-13" d="M41.68,38.87s-.05.06-.11.06c-.43,0-.29-.2-.71.14.12-.45.44-.29.82-.2Z"/>
          <path class="cls-13" d="M31.71,54.16c.16-.68.38-1.31.74-1.93l-.74,1.93Z"/>
          <path class="cls-13" d="M22.85,39.54c-.13.43-.24.74-.3,1.2-.13-.3.06-.78.15-1.1.03-.13-.08-.23.15-.1Z"/>
          <path class="cls-13" d="M33.64,40.93l-1.19,2.19c.29-.78.85-1.52,1.12-2.26.08-.01.07.07.07.07Z"/>
          <path class="cls-13" d="M45.69,67.78c0-.22,0-.48.15-.66-.05.19-.09.44-.15.66Z"/>
          <path class="cls-13" d="M47.78,53.29c-.06.18-.08.37-.17.55l-.43.78c.17-.44.32-.93.6-1.33Z"/>
          <path class="cls-13" d="M43.91,39.07c-.2-.01-.36.48-.41.66-.06.19-.05.41-.11.6-.03-.01-.06-.07-.07-.07.03-.35.16-.88.35-1.18.1-.15.1-.08.24-.02Z"/>
          <path class="cls-13" d="M32.01,40.6c.16-.37.33-.71.52-1.06.12.03-.03.25-.06.31-.13.24-.26.56-.46.75Z"/>
          <path class="cls-13" d="M38.11,48.44s.08.02.11.07c.26.49.44.92.62,1.38.03.08.15.24.02.28-.21-.6-.56-1.13-.74-1.73Z"/>
          <path class="cls-13" d="M41.97,70.57c-.1-.13-.29-.33-.34-.46-.04-.1-.01-.21-.03-.27.2.2.28.49.37.73Z"/>
          <path class="cls-13" d="M44.13,65.72c.05-.19.08-.39.15-.6.15.13-.05.46-.15.6Z"/>
          <path class="cls-13" d="M44.43,39.01c-.11.27-.37.07-.45.07.07-.1.32-.08.45-.07Z"/>
          <path class="cls-13" d="M22.56,52.89c.03-.32.04-.32.15-.6,0,.2-.01.44-.15.6Z"/>
          <path class="cls-13" d="M49.56,73.89c-.2.77-.43,1.06-.82,1.73l.48-.93c.08-.22.15-.45.21-.67.01-.04.05-.29.12-.12Z"/>
          <path class="cls-13" d="M29.48,35.48c-.48.94-1.05,1.84-1.64,2.72l1.64-2.72Z"/>
          <path class="cls-13" d="M33.49,43.19c.1-.3.21-.56.45-.8-.13.27-.18.59-.45.8Z"/>
          <path class="cls-13" d="M38.92,72.16c-.13-.48-.26-.93-.45-1.4.2.36.38.67.47,1.07.02.1.12.26-.03.32Z"/>
          <path class="cls-13" d="M48.08,50.37c-.24.04-.12-.11-.15-.23-.08-.39-.23-.86-.37-1.23.25.38.47,1.02.52,1.46Z"/>
          <path class="cls-13" d="M28.96,35.75l.28-.71c.42-.59.77-1.31.91-2.01.01.02.16.04.12.14-.32.91-.83,1.74-1.31,2.59Z"/>
          <path class="cls-13" d="M27.84,55.88c.25-.06.13.33.15.53-.08-.12-.14-.39-.15-.53Z"/>
          <path class="cls-13" d="M35.43,55.68c0-.18-.05-.41.15-.53-.03.18,0,.38-.15.53Z"/>
          <path class="cls-13" d="M41.53,51.3c-.14-.14-.05-.37-.09-.55-.08-.38-.33-1.01-.5-1.38.07-.15.16.19.17.21.26.64.39,1.03.42,1.72Z"/>
          <path class="cls-13" d="M31.56,71.96c.21.11.14.39.45.4l-.07.07c-.1-.06-.21-.06-.29-.17s-.05-.19-.08-.29Z"/>
          <path class="cls-13" d="M28.51,68.91c.23-.05.1.15.19.21.07.04.23.05.33.06l-.22.2c-.09-.16-.2-.29-.3-.47Z"/>
          <path class="cls-2" d="M15.27,35.35c.15.04,0,.2-.04.27-.09.19-.22.41-.3.6-.06.15,0,.5-.26.47.12-.4.39-.95.6-1.33Z"/>
          <path class="cls-13" d="M33.2,68.44c-.26-.32-.41-.8-.45-1.2.12.39.29.82.45,1.2Z"/>
          <path class="cls-13" d="M34.09,58.87l-.33-.41-.12-.46c.14.29.3.57.45.86Z"/>
          <path class="cls-13" d="M41.9,69.64c-.21-.28-.35-.72-.37-1.06.11.34.24.72.37,1.06Z"/>
          <path class="cls-13" d="M41.31,52.89c-.08.36-.18.75-.3,1.13-.08.01-.07-.07-.07-.07l.37-1.06Z"/>
          <path class="cls-13" d="M47.78,52.36c-.16.58-.44,1.11-.67,1.66-.1-.05.01-.26.04-.33.17-.43.38-.75.5-1.21.01-.04.05-.29.12-.12Z"/>
          <path class="cls-13" d="M32.53,38.87c.15-.32.24-.76.52-1-.14.33-.28.71-.52,1Z"/>
          <path class="cls-13" d="M41.45,36.22c-.38.07-.67.24-1.04.33.27-.17.4-.21.72-.32.09-.03.25-.15.32,0Z"/>
          <path class="cls-13" d="M35.58,55.09c.03-.14.01-.29.08-.43l.44-1.1c-.14.52-.27,1.04-.52,1.53Z"/>
          <path class="cls-6" d="M44.21,22.06c-.13-.13-.07-.41-.07-.6.13.13.07.41.07.6Z"/>
          <path class="cls-13" d="M30.15,58.14c.21-.04.14.1.18.2.26.6.63,1.26.8,1.88.03.1.12.25-.02.32-.18-.67-.91-1.97-.97-2.39Z"/>
          <path class="cls-13" d="M44.21,71.43c-.08.17-.09-.08-.11-.13-.05-.16-.21-.45-.11-.6.09.24.15.48.22.73Z"/>
          <path class="cls-13" d="M39.74,44.19c.21-.69.44-1.1.74-1.73l-.74,1.73Z"/>
          <path class="cls-13" d="M36.4,36.08c-.35.47-.54,1.02-.89,1.46.19-.52.47-1.06.89-1.46Z"/>
          <path class="cls-13" d="M27.84,57.21c-.2-.18-.2-.55-.22-.8.13.24.17.54.22.8Z"/>
          <path class="cls-13" d="M36.99,50.7l-.67-1.59s-.01-.08.07-.07c.21.58.45,1.06.6,1.66Z"/>
          <path class="cls-13" d="M27.62,55.75c0,.18,0,.36,0,.53l-.15-.57.15.03Z"/>
          <path class="cls-13" d="M43.46,45.32c-.02-.13-.2-.38,0-.53,0,.18,0,.35,0,.53Z"/>
          <path class="cls-13" d="M24.12,49.17c.18-.44.31-.9.52-1.33-.1.45-.23.94-.52,1.33Z"/>
          <path class="cls-13" d="M28.06,40.87c-.09-.13.06-.46.11-.6.13-.33.32-.58.48-.87-.24.47-.39.98-.6,1.46Z"/>
          <path class="cls-13" d="M39.97,40.67c-.09.23-.13.45-.24.68-.05.1-.01.22-.2.18.13-.29.25-.6.45-.86Z"/>
          <path class="cls-13" d="M28.06,41.93c.03-.31.11-.64.22-.93.12.26-.14.67-.22.93Z"/>
          <path class="cls-13" d="M37.14,42.86l-1.19,2.19c.07-.54.87-1.67,1.19-2.19Z"/>
          <path class="cls-13" d="M34.46,71.36c-.22-.32-.34-.72-.52-1.06.27.31.42.68.52,1.06Z"/>
          <path class="cls-13" d="M41.01,76.55c.25-.03.24.27.3.4-.22.04-.11-.09-.17-.21-.03-.07-.12-.15-.13-.19Z"/>
          <path class="cls-13" d="M48,74.35c.13.37-.27.71-.3,1.06-.03,0-.07-.07-.07-.07.13-.33.26-.66.37-1Z"/>
          <path class="cls-13" d="M28.21,57.54c-.04-.11-.05-.22-.07-.33.16.04.22.25.07.33Z"/>
          <path class="cls-13" d="M44.21,47.31c-.33-.5-.49-.71-.68-1.29-.03-.09-.12-.26.01-.31.15.58.37,1.06.67,1.59Z"/>
          <path class="cls-13" d="M34.54,37.21c.01-.06-.02-.14.01-.22.03-.09.13-.1.14-.11,0,.13-.02.26-.15.33Z"/>
          <path class="cls-6" d="M50.23,18.34c.07.02.17-.02.22.07-.02,0-.23.08-.37,0-.02-.1.05-.06.15-.07Z"/>
          <path class="cls-13" d="M34.54,59.74c-.16-.28-.3-.49-.45-.8.23.17.36.53.45.8Z"/>
          <path class="cls-13" d="M47.78,53.23c.12-.36.28-.7.37-1.06.13.11-.03.43-.08.56-.07.16-.17.37-.29.5Z"/>
          <path class="cls-6" d="M32.38,33.69c-.29-.22-.49-.41-.74-.66.31.18.55.38.74.66Z"/>
          <path class="cls-13" d="M31.41,71.5l-.52-1.13c.25.41.4.69.52,1.13Z"/>
          <path class="cls-13" d="M27.76,41.8c-.16-.21.13-.64.22-.86-.05.29-.15.58-.22.86Z"/>
          <path class="cls-13" d="M34.91,60.53c-.21-.17-.23-.44-.3-.66.14.25.21.38.3.66Z"/>
          <path class="cls-13" d="M28.14,57.15c-.17-.19-.13-.45-.15-.66.13.18.11.46.15.66Z"/>
          <path class="cls-13" d="M32.38,59.01c-.2-.36-.41-.81-.52-1.2.14.31.34.61.48.93.03.06.16.24.04.26Z"/>
          <path class="cls-13" d="M33.27,56.75c.03.15.05.31.07.47l-.22-.43.15-.03Z"/>
          <path class="cls-13" d="M33.57,36.88c-.13.3-.32.66-.52.93.09-.2.15-.41.25-.61.05-.1.11-.36.27-.32Z"/>
          <path class="cls-13" d="M27.02,64.92s0,.09,0,.13l-.15.03v-.23s.15.07.15.07Z"/>
          <path class="cls-13" d="M39.52,40.93c-.13-.04-.01-.21.02-.28.27-.64.47-1.1.95-1.65-.48.58-.66,1.28-.97,1.93Z"/>
          <path class="cls-6" d="M29.92,30.9c-.34-.5-.59-1.09-.74-1.66.3.51.47,1.13.74,1.66Z"/>
          <path class="cls-13" d="M30.15,58.08l-.07-.27c.19.29.06.13.07.27Z"/>
          <path class="cls-13" d="M29.7,68.44c-.22-.2-.29-.48-.37-.73.2.21.26.51.37.73Z"/>
          <path class="cls-13" d="M34.54,67.71c-.12-.06-.07-.23-.07-.33,0,.02.06.24.07.33Z"/>
          <path class="cls-13" d="M31.93,36.81c.13-.26.25-.53.37-.8-.02.28-.2.57-.37.8Z"/>
          <path class="cls-13" d="M31.78,69.24c.18-.04.15.08.21.17.11.18.21.34.32.51.03.05.19.23.06.24-.17-.32-.42-.61-.6-.93Z"/>
          <path class="cls-13" d="M30.37,70.1c-.33-.32-.53-.74-.74-1.13.29.35.52.74.74,1.13Z"/>
          <path class="cls-13" d="M28.43,40.73c.15-.61.49-1.18.82-1.73-.28.56-.57,1.15-.82,1.73Z"/>
          <path class="cls-13" d="M28.06,34.49c-.13-.02.03-.19.06-.24.19-.34.44-.75.61-1.09-.17.46-.42.9-.67,1.33Z"/>
          <path class="cls-6" d="M50.98,18.61c-.16-.06-.43,0-.37-.2.14.02.26.14.37.2Z"/>
          <path class="cls-13" d="M47.48,44.85l-.07-.27c.02.08.05.19.07.27Z"/>
          <path class="cls-13" d="M22.56,53.29c-.11-.02-.12-.24,0-.27,0,.09,0,.18,0,.27Z"/>
          <path class="cls-13" d="M39.74,65.25c.05-.29.15-.58.22-.86.15.23-.13.62-.22.86Z"/>
          <path class="cls-13" d="M24.04,58.81l-.52-1.2s-.01-.08.07-.07c.15.41.3.9.45,1.26Z"/>
          <path class="cls-13" d="M42.42,71.76c-.13-.38-.3-.75-.45-1.13.23.32.41.75.45,1.13Z"/>
          <path class="cls-13" d="M32.45,52.16c.02-.07.05-.14.07-.2l.07.03-.15.17Z"/>
          <path class="cls-13" d="M33.42,57.48s.01.08-.07.07c-.01-.09.01-.18,0-.27l.07.2Z"/>
          <path class="cls-4" d="M24.64,47.78l.07-.27c-.01.13-.07.22-.07.27Z"/>
          <path class="cls-13" d="M43.76,66.71c.09-.31.18-.66.37-.93-.08.3-.16.69-.37.93Z"/>
          <path class="cls-13" d="M32.53,64.85l.07-.2c-.02.12-.07.19-.07.2Z"/>
          <path class="cls-13" d="M50.23,65.92c.07-.16.16-.33.22-.47l-.22.47Z"/>
          <path class="cls-13" d="M47.85,66.51c-.1-.21.13-.62.3-.8-.09.27-.21.53-.3.8Z"/>
          <path class="cls-13" d="M26.87,68.31l.73.55s0,.1.02.11c-.28-.19-.53-.42-.74-.66Z"/>
          <path class="cls-6" d="M32.45,33.69c.15.12.38.3.52.4-.22-.08-.4-.22-.52-.4Z"/>
          <path class="cls-6" d="M36.32,34.69c.05-.21.28-.28.45-.4-.09.18-.3.27-.45.4Z"/>
          <path class="cls-13" d="M29.48,45.72s-.06-.06-.07-.2l.07.2Z"/>
          <path class="cls-13" d="M31.56,71.9c-.11-.08-.12-.21-.15-.33.15.08.12.21.15.33Z"/>
          <path class="cls-13" d="M37.73,44.45c.11-.3.18-.63.45-.86-.13.28-.27.61-.45.86Z"/>
          <path class="cls-13" d="M31.71,37.28c-.17.33-.34.71-.6,1,.07-.13.11-.27.18-.4l.41-.59Z"/>
          <path class="cls-13" d="M44.88,39.01c.17.21-.03.1-.07.13l.07-.13Z"/>
          <path class="cls-13" d="M31.86,40.2c-.05.1-.11.18-.15.27l.08-.33.07.07Z"/>
          <path class="cls-13" d="M31.19,41.8c-.13-.04-.01-.21.02-.28.13-.31.27-.61.43-.91-.13.4-.29.8-.45,1.2Z"/>
          <path class="cls-13" d="M41.45,41.13v.2s-.07-.07-.07-.07c.03-.05.06-.1.07-.13Z"/>
          <path class="cls-13" d="M27.62,54.82c-.11,0-.11-.19,0-.2,0,.07,0,.13,0,.2Z"/>
          <path class="cls-2" d="M39.22,51.96s-.07-.05-.07-.2l.07.2Z"/>
          <path class="cls-13" d="M30.29,59.14c-.12-.25-.2-.4-.3-.66.13.2.28.43.3.66Z"/>
          <path class="cls-13" d="M48.6,61.13l-.37-.66s.04-.06.07-.07c.05.27.2.46.3.73Z"/>
          <path class="cls-13" d="M45.84,49.57s-.05-.15-.07-.2l.07.2Z"/>
          <path class="cls-6" d="M51.87,19.47l-.22-.23.07-.03c.05.07.12.19.15.27Z"/>
          <path class="cls-9" d="M51.94,19.67l-.07-.13s.05.04.07.13Z"/>
          <path class="cls-6" d="M31.56,32.96c-.1-.11-.21-.21-.3-.33.11.1.3.14.3.33Z"/>
          <path class="cls-13" d="M38.18,43.52c.15-.32.28-.65.52-.93-.16.31-.27.66-.52.93Z"/>
          <path class="cls-4" d="M38.7,42.53l.15-.27c-.05.1-.11.18-.15.27Z"/>
          <path class="cls-13" d="M46.96,54.29l.07-.13c-.02.06-.06.11-.07.13Z"/>
          <path class="cls-13" d="M22.48,55.15l-.07-.03.07-.1s0,.09,0,.13Z"/>
          <path class="cls-13" d="M31.04,48.24l-.07-.13s.07.01.07.13Z"/>
          <path class="cls-15" d="M44.21,22.73l-.07-.03.07-.03s0,.04,0,.07Z"/>
          <path class="cls-15" d="M44.21,22.99l-.07-.03.07-.03s0,.04,0,.07Z"/>
          <path class="cls-2" d="M36.1,34.89l.15-.13c-.05.05-.1.09-.15.13Z"/>
          <path class="cls-5" d="M42.42,2.8v.19c.13.03.04-.11.13-.13.12-.03.36,0,.49.02,3.14.53,5.1,3.38,5.34,6.13.04.42-.02.87,0,1.3-.46-.02-.92-.1-1.38-.14-.13-.01-.22.06-.3.06-.03,0-.03-.1-.09-.12-.16-.04-.37-.03-.5-.07-.08-.02.06-.11.04-.13-.14-.11-.15.12-.2.13-.37.08-.58-.12-.8-.13-.11,0-.24.07-.38.06-.72-.05-1.43-.19-2.16-.14.04-.35-.12,0-.22,0-.2.01-.39-.07-.6-.08-.35,0-2.3.05-2.41-.01-.04-.02.02-.13-.05-.12-.11.27-.29.12-.52.13-.29.01-.57-.05-.67-.04-.09,0-.28.2-.47.09-.04-.02.01-.27-.13.02-.28-.09-.82.1-1.02.07-.06-.01-.02-.19-.23-.14-.03,0-.03.13-.08.14-.11.02-.23-.05-.35-.04-.64.04-1.21.16-1.87.18-.85.03-2.17.46-2.98.4-.03,0-.02.1-.13.14-.21.06-.57.18-.76.12l.04.2c-.32-.11-.44.11-.5.13-.57.18-1.29.45-1.85.58-.06.01-.17-.05-.17-.05-.02.02.04.15-.04.21-.11.07-.4.07-.5.12-.09.04,0,.17-.1.2-1.71.62-3.06,1.56-4.47,2.68-.18.14-.57.62-.73.72-.13.08-.25-.02-.26,0,0,0,0,.15-.07.23-.42.51-1.01.92-1.44,1.36-.68.69-1.33,1.45-1.99,2.18-.19.21-.14.5-.52.41.17.38-.14.26-.34.49s-.52.96-.95.91c-.05,0-.04-.12-.09-.14-.3-.06-.65-.03-.99-.17-.29-.12-1.32-.85-1.34-1.12,0-.05.08-.16.07-.17-.05-.02-.17.05-.23-.04-.09-.14-.33-1.02-.34-1.19-.07-1.2.44-2.52,1.15-3.53.07-.1.25-.22.28-.28.04-.08-.05-.19-.04-.2.02-.01.16.03.21-.01s.03-.2.09-.28c.89-1.25,2.63-2.65,3.8-3.73.28-.25.75-.79,1.02-.97.56-.38,1.14-.92,1.72-1.39.28-.23.55-.39.84-.63s.59-.38.74-.5c0,0-.08-.1-.06-.12.02-.03.61-.36.73-.45.3-.24.55-.49.89-.73.15-.11.61-.29.7-.36s.03-.19.05-.21c.03-.03.21.08.22.07s.02-.22.15-.3c.09-.05.25-.12.39-.19.38-.21.76-.35,1.14-.51.65-.26,1.22-.57,1.97-.4l-.04-.2c.27.25.28,0,.47-.05.46-.13,1.35-.22,1.85-.28.32-.04.77.02,1.03,0,.05,0,.04-.13.07-.13.07,0,.17.09.29.06.11-.02-.13-.08.38-.07.29,0,.82-.1.89.13.15-.34.43-.13.67-.13,2.13-.04,4.29-.23,6.47-.14.34.01.71.12,1.07.07Z"/>
          <path class="cls-4" d="M36.1,53.49l.07-.07s-.07.06-.07.07Z"/>
          <path class="cls-13" d="M31.26,48.51s.07-.06.07-.07l-.07.07Z"/>
          <path class="cls-13" d="M30,58.41l-.07-.03.07-.03s0,.05,0,.07Z"/>
          <path class="cls-13" d="M50.16,66.05l.07-.07s-.07.06-.07.07Z"/>
          <path class="cls-13" d="M36.99,50.83s0-.05,0-.07l.07.03-.07.03Z"/>
          <path class="cls-13" d="M54.99,36.74s-.17-.04-.14.07c.38-.07.26.09.38.22,1.48,1.61,2.97,2.83,3.82,4.9.5,1.22.62,2.43.96,3.66.53,1.99,1.85,2.72,3.23,4.13.2.2.08.43.1.44,0,0,.12-.06.15-.03.07.05.05.16.1.21,1.71,1.8,1.98,5.2.88,7.32-.05.1-.16.29-.22.39-.45.79-1.18,1.59-1.28,2.51-.21,1.85,1.38,3.13,1.18,5.11-.09.85-.88,2.59-1.66,3.11-.1.06-.18-.02-.24,0-.03.01-.28.3-.43.32.56-.82.98-1.68,1.14-2.63.47-2.78-2.25-3.97-.78-6.88.93-1.85,1.79-2.79,1.61-5-.29-3.64-3.87-5.19-4.72-8.54-.45-1.79-.73-3.19-1.7-4.86-1.38-2.41-3.87-3.94-4.61-6.71-.08-.29-.19-.56-.05-.85l-.15.13c-.25-.93-.11-1.91.26-2.79.13,0,.25,1.17.29,1.35.29,1.26.77,2.72,1.49,3.83.08.13.49.49.4.59Z"/>
          <path class="cls-13" d="M52.79,35.46c1.19,2.79,3.84,4.39,5.12,7.42.5,1.17.51,2.21.84,3.37,1.04,3.7,5.43,5.32,4.73,9.8-.24,1.53-1.29,2.57-1.79,3.92-.12.31-.11.76-.22,1.05-.03.09-.18,0-.15.11.27-.03.12.37.15.56.24,1.62,1.35,2.58,1.26,4.26-.08,1.55-1.02,3.29-2.5,4.14-.29.17-.63.27-.95.34.87-1.25,1.93-2.28,2.11-3.83.31-2.63-2.18-4.04-1.01-6.82.95-2.28,1.87-2.92,1.37-5.64-.5-2.76-3.08-4.18-3.89-6.76-.29-.92-.37-1.98-.67-2.92-.66-2.13-2.26-3.98-3.56-5.8-.39-.55-.87-1.07-1.18-1.67-.73-1.41-.72-1.99-.4-3.5.02-.07,0-.21.11-.2.22.72.33,1.47.62,2.17Z"/>
          <path class="cls-13" d="M53.02,66.34c.67-1.35.88-2.86.34-4.38-.5-1.39-1.69-2.52-2.05-3.95-.66-2.61,1.29-4.37,1.45-6.81.17-2.69-1.57-4.09-2.84-6.23-.62-1.05-.7-2.05-.66-3.23l1.52,1.87c1.63,2.92,4.22,4.79,3.68,8.39-.24,1.59-1.4,3.01-1.48,4.66-.13,2.65,2.44,4.43,2.61,7.04.17,2.75-2.28,4.45-2.46,7.04-.07.97.09,1.86-.17,2.84-.36,1.39-1.19,2.1-2.66,2.61.7-.9,1.16-1.83,1.33-2.93.22-1.5-.41-2.78.03-4.29.27-.92.92-1.76,1.35-2.62Z"/>
          <path class="cls-14" d="M1.35,58.41s-.13-.04-.07-.13c.03-.05.13.04.07.13Z"/>
          <path class="cls-14" d="M14.19,68.44s.05.04,0,.07v-.07Z"/>
          <path class="cls-14" d="M23.71,18.87s.05.04,0,.07v-.07Z"/>
          <path class="cls-13" d="M27.54,55.62c-.13.02-.07-.15-.07-.23,0-.17,0-.33,0-.5.13-.02.07.15.07.23,0,.17,0,.33,0,.5Z"/>
        </g>
      </g>
      <text class="cls-16" transform="translate(1.04 99.17)"><tspan x="0" y="0">VINCI</tspan></text>
    </g>
  </g>
</svg>