<?xml version="1.0" encoding="UTF-8"?>
<svg id="Capa_2" data-name="Capa 2" xmlns="http://www.w3.org/2000/svg" viewBox="0 0 129.59 129.59">
  <defs>
    <style>
      .cls-1 {
        fill: #e44424;
      }

      .cls-2 {
        fill: #f37a67;
      }

      .cls-3 {
        fill: #fff;
      }

      .cls-4 {
        fill: #f69779;
      }

      .cls-5 {
        fill: #fc3;
      }

      .cls-6 {
        fill: #051733;
      }

      .cls-7 {
        fill: #1dacac;
      }

      .cls-8 {
        fill: #007289;
      }
    </style>
  </defs>
  <g id="OBJECT">
    <g>
      <path class="cls-5" d="M129.59,64.79c0,18.51-7.76,35.21-20.21,47.03-2.99,2.82-6.24,5.37-9.73,7.6-1.89,1.21-3.85,2.33-5.87,3.33-8.72,4.38-18.57,6.84-28.99,6.84s-20.26-2.46-28.98-6.83c-2.02-1.01-3.98-2.12-5.87-3.33-3.89-2.49-7.49-5.38-10.75-8.62C7.34,99.08,0,82.79,0,64.79,0,29.01,29.01,0,64.79,0s64.8,29.01,64.8,64.79Z"/>
      <g>
        <g>
          <path class="cls-1" d="M97.65,83.43c-5.39-4.33-4.11-8.83-1.27-16.5,2.83-7.67.67-15.17-3.83-19.17s-6.31-9.03-6.31-9.03l-22.29,1.01-22.29-1.01s-1.81,5.03-6.31,9.03-6.67,11.5-3.83,19.17c2.83,7.67,4.12,12.17-1.27,16.5s-10.73,15.17-4.23,25h75.86c6.5-9.83,1.17-20.67-4.23-25Z"/>
          <path class="cls-7" d="M109.38,111.82c-2.99,2.82-6.24,5.37-9.73,7.6-1.89,1.21-3.85,2.33-5.87,3.33-8.72,4.38-18.57,6.84-28.99,6.84s-20.26-2.46-28.98-6.83c-2.02-1.01-3.98-2.12-5.87-3.33-3.89-2.49-7.49-5.38-10.75-8.62,1.45-2.1,3.18-3.98,5.12-5.61,2.45-2.07,5.24-3.74,8.28-4.91l5.97-2.3c1.56-.6,3.05-1.35,4.44-2.22,1.51-.95,2.91-2.05,4.18-3.28.23-.22.45-.45.67-.68.17-.17.34-.35.5-.53.19-.21.38-.42.56-.64.05-.05.09-.1.12-.15.04-.03.06-.06.09-.1.01,0,.01-.01.02-.02.09-.1.18-.21.26-.33.02-.01.03-.03.04-.05h29.02c.18.22.35.44.53.65s.36.42.55.62c-.01.01,0,.02.01.02l.11.11s.05.06.07.09c0,0,0,.01.01.01.12.14.25.27.38.4l.6.6c1.27,1.23,2.67,2.33,4.18,3.28,1.39.87,2.88,1.62,4.44,2.22l5.97,2.3c3.04,1.17,5.83,2.84,8.28,4.91,2.25,1.88,4.21,4.12,5.79,6.62Z"/>
          <path class="cls-8" d="M78.46,89.99h-29.03c-.7.88-1.45,1.72-2.26,2.5-1.27,1.23-2.67,2.33-4.18,3.28,5.3,3.62,12.68,5.83,20.95,5.83s15.65-2.21,20.95-5.83c-1.51-.95-2.91-2.05-4.18-3.28-.81-.78-1.56-1.62-2.26-2.5Z"/>
          <path class="cls-4" d="M80.72,92.49c-4.38,2.55-10.27,4.11-16.77,4.11s-12.39-1.56-16.77-4.11c3.66-3.53,6.25-8.13,7.32-13.27l.57-2.74,1.77-8.56h14.22l2.34,11.3c.45,2.12,1.14,4.15,2.08,6.05,1.31,2.71,3.09,5.15,5.24,7.22Z"/>
          <path class="cls-2" d="M75.48,85.27c-2.5.68-4.28.68-4.28.68,0,0-10.36,0-16.13-9.47l1.77-8.56h14.22l2.34,11.3c.45,2.12,1.14,4.15,2.08,6.05Z"/>
          <g>
            <path class="cls-1" d="M83.7,28.67c-2.31-4.34-6.73-6.74-10.81-8.06-5.8-1.89-12.08-1.89-17.88,0-4.07,1.33-8.5,3.73-10.81,8.06-4.18,8-3.47,20.46-3.47,20.46l4.36,4.62,18.86-2.39,18.86,2.39,4.36-4.62s.71-12.45-3.47-20.46Z"/>
            <path class="cls-4" d="M83.49,55.71c-2.78,19.5-19.54,19.5-19.54,19.5,0,0-16.76,0-19.54-19.5-1.58-.36-2.93-1.37-3.84-2.71s-1.29-3.02-1.05-4.63c.12-.79.42-1.6,1.03-2.13.55-.48,1.3-.68,2.03-.65s1.43.28,2.09.6c0,0,1.12-20.63,15.06-19.6,8.49,1.15,9.18,5.85,10.44,9.18,1.26,3.32,4.59,10.09,9.06,13.76s4.26,6.18,4.26,6.18Z"/>
          </g>
        </g>
        <g>
          <path class="cls-8" d="M35.81,122.76c-2.02-1.01-3.98-2.12-5.87-3.33l2.04-11,.62-3.33.61,3.33,2.6,14.33Z"/>
          <path class="cls-8" d="M99.65,119.42c-1.89,1.21-3.85,2.33-5.87,3.33l2.6-14.32.61-3.33.62,3.33,2.04,10.99Z"/>
        </g>
        <g>
          <path class="cls-2" d="M63.01,49.7v11.44h1.94c3.32,0-1.32-10.13-1.94-11.44Z"/>
          <g>
            <g>
              <path class="cls-1" d="M77.11,45.24c-2.68-1.32-5.66-1.52-8.45-.41-1.18.47-.67,2.41.53,1.93,2.29-.91,4.69-.89,6.91.21,1.15.57,2.17-1.16,1.01-1.73Z"/>
              <path class="cls-6" d="M74.7,48.8c-.61-1.06-1.89-.99-1.89-.99-1.04,0-1.89.84-1.89,1.89s.84,1.89,1.89,1.89c.23,0,.45-.05.65-.12h0s.02,0,.03-.01c.06-.02.12-.05.18-.08,1.65-.72,1.82-2.55,1.82-2.55-.33.28-.8-.02-.8-.02Z"/>
            </g>
            <g>
              <path class="cls-1" d="M50.79,45.24c2.68-1.32,5.66-1.52,8.45-.41,1.18.47.67,2.41-.53,1.93-2.29-.91-4.69-.89-6.91.21-1.15.57-2.17-1.16-1.01-1.73Z"/>
              <path class="cls-6" d="M53.2,48.8c.61-1.06,1.89-.99,1.89-.99,1.04,0,1.89.84,1.89,1.89s-.84,1.89-1.89,1.89c-.23,0-.45-.05-.65-.12h0s-.02,0-.03-.01c-.06-.02-.12-.05-.18-.08-1.65-.72-1.82-2.55-1.82-2.55.33.28.8-.02.8-.02Z"/>
            </g>
          </g>
          <path class="cls-3" d="M57.8,65.32c.66,2.48,3.16,4.33,6.15,4.33s5.48-1.85,6.15-4.33h-12.29Z"/>
        </g>
      </g>
    </g>
  </g>
</svg>